<?xml version="1.0" encoding="utf-8"?>
<!-- Generator: Adobe Illustrator 17.0.0, SVG Export Plug-In . SVG Version: 6.00 Build 0)  -->
<!DOCTYPE svg PUBLIC "-//W3C//DTD SVG 1.1 Tiny//EN" "http://www.w3.org/Graphics/SVG/1.1/DTD/svg11-tiny.dtd">
<svg version="1.1" baseProfile="tiny" id="resistance"
	 xmlns="http://www.w3.org/2000/svg" xmlns:xlink="http://www.w3.org/1999/xlink" x="0px" y="0px" width="720px" height="960px"
	 viewBox="0 0 720 960" xml:space="preserve">
<g>
	<polygon fill="#FFFFFF" points="388.476,97.334 423.866,126.334 584.75,126.334 584.75,604.508 360,814 135.251,604.508 
		135.251,126.334 296.133,126.334 331.524,97.334 106.499,97.334 106.499,617.584 360,853.875 613.501,617.584 613.501,97.334 	"/>
	<path fill="#FFFFFF" d="M411,374.333v-12.877l137.334-103.79V167H405.431L360,131.167L314.569,167H171.666v90.667L309,361.457
		v12.877h24.75V397h-25v28.5h25V595H266.5v-28.5h36v-41.75h-81.947v98.378l85.302,79.512V667h27.895v61.641L360,753.108
		l26.25-24.468V425.5h25V397h-25v-22.667H411z M360,162.917l31,24.452l-31,32.507l-31-32.507L360,162.917z M360.001,302.667
		l-47.245,13.338l-102.333-77.338V206h103.664l45.913,48.145L405.913,206h103.664v32.667l-102.333,77.338L360.001,302.667z"/>
</g>
<g>
</g>
<g>
</g>
<g>
</g>
<g>
</g>
<g>
</g>
<g>
</g>
</svg>
