<?xml version="1.0" encoding="utf-8"?>
<!-- Generator: Adobe Illustrator 17.0.0, SVG Export Plug-In . SVG Version: 6.00 Build 0)  -->
<!DOCTYPE svg PUBLIC "-//W3C//DTD SVG 1.1 Tiny//EN" "http://www.w3.org/Graphics/SVG/1.1/DTD/svg11-tiny.dtd">
<svg version="1.1" baseProfile="tiny" id="Layer_1" xmlns="http://www.w3.org/2000/svg" xmlns:xlink="http://www.w3.org/1999/xlink"
	 x="0px" y="0px" width="50px" height="50px" viewBox="0 0 50 50" xml:space="preserve">
<g>
	<g>
		<path fill="#A0A1A2" d="M25.06,0.121c0.233-0.115,0.495-0.151,0.75-0.095c0.381,0.113,0.781,0.015,1.168,0.071
			c0.188,0.049,0.381,0.06,0.574,0.077C27.38,0.626,27.51,1.128,27.468,1.6c0.224,0.093,0.459,0.179,0.704,0.165
			c0.605-0.012,1.175,0.265,1.78,0.219c0.039-0.485,0.321-0.912,0.338-1.399c0.774,0.217,1.546,0.454,2.329,0.64
			c-0.112,0.484-0.3,0.959-0.318,1.458c0.493,0.185,1,0.339,1.483,0.553c0.269,0.108,0.53,0.253,0.825,0.275
			c0.119-0.086,0.171-0.225,0.232-0.353c0.127-0.31,0.353-0.575,0.431-0.905c0.753,0.361,1.504,0.727,2.22,1.157
			c0.394,0.211,0.758,0.474,1.158,0.677c0.355,0.182,0.639,0.474,0.993,0.659c-0.271,0.382-0.558,0.756-0.762,1.179
			C38.644,6.406,38.25,6.793,38.063,7.3c0.175,0.078,0.343,0.178,0.472,0.325c0.345,0.371,0.858,0.545,1.156,0.965
			c0.406-0.278,0.729-0.653,1.081-0.993c0.648,0.618,1.244,1.291,1.928,1.868c0.143,0.176,0.303,0.341,0.411,0.542
			c-0.216-0.246-0.415-0.51-0.663-0.723c-0.573-0.523-1.1-1.093-1.672-1.617c-0.364,0.32-0.676,0.702-1.092,0.959
			c-0.581-0.417-1.1-0.915-1.703-1.302c0.212-0.507,0.602-0.906,0.858-1.388c0.125-0.213,0.181-0.457,0.167-0.704
			c-0.046,0.002-0.138,0.004-0.185,0.005c0.012,0.114,0.022,0.228,0.033,0.342c-0.026,0.029-0.08,0.087-0.107,0.115
			c-0.016-0.13-0.031-0.259-0.046-0.389c-0.13,0.024-0.26,0.048-0.389,0.073c0.011-0.07,0.02-0.141,0.03-0.211
			c-0.028-0.018-0.082-0.055-0.109-0.073c-0.088,0.074-0.173,0.147-0.26,0.22c-0.041-0.275-0.091-0.55-0.148-0.823
			c-0.105,0.123-0.208,0.249-0.309,0.376c-0.27-0.087-0.447-0.306-0.58-0.545c0.008,0.082,0.016,0.164,0.026,0.245
			c-0.405-0.192-0.818-0.368-1.218-0.572c0.072-0.097,0.142-0.195,0.212-0.294c-0.171,0.038-0.339,0.106-0.515,0.103
			c-0.173-0.043-0.328-0.142-0.494-0.205c-0.219-0.092-0.473-0.014-0.684-0.132c-0.629-0.294-1.281-0.533-1.943-0.745
			c-0.016-0.026-0.046-0.077-0.061-0.103c-0.088-0.132-0.192-0.251-0.296-0.369c0.016-0.091,0.033-0.183,0.052-0.275
			c-0.226,0.136-0.489,0.165-0.747,0.183c0.013-0.075,0.027-0.149,0.041-0.224C31.155,1.995,31,2.052,30.846,2.106
			c-0.034-0.129-0.067-0.257-0.101-0.386c-0.107,0.111-0.215,0.221-0.323,0.331C30.387,1.844,30.346,1.636,30.3,1.43
			c-0.055,0.006-0.163,0.017-0.218,0.023c-0.039,0.183-0.071,0.367-0.099,0.553l-0.06-0.002c-0.396-0.002-0.794-0.028-1.176-0.139
			c-0.237-0.076-0.487-0.063-0.724,0c-0.167-0.053-0.333-0.108-0.5-0.161c-0.012-0.022-0.039-0.065-0.052-0.086
			c-0.046-0.077-0.093-0.155-0.139-0.231c-0.538,0.18-1.122-0.219-1.649,0.055c0.02-0.146,0.042-0.293,0.062-0.44
			c-0.094-0.032-0.187-0.062-0.281-0.093c0.031,0.148,0.059,0.297,0.092,0.445c-0.158,0.042-0.314,0.09-0.472,0.131
			c-0.18,0.042-0.364,0.064-0.549,0.052c-0.523-0.029-1.043,0.057-1.564,0.08c-0.955,0.05-1.896,0.228-2.834,0.396
			c0.031,0.512,0.179,1.006,0.261,1.51c-0.509,0.14-1.025,0.243-1.529,0.398c-0.226,0.071-0.456,0.134-0.691,0.167
			c-0.152-0.428-0.216-0.911-0.505-1.274c-0.259-0.062-0.502,0.098-0.728,0.203c-0.285,0.162-0.614,0.208-0.922,0.308
			c0.544-0.228,1.1-0.426,1.654-0.624c0.218,0.441,0.381,0.93,0.733,1.285c0.148-0.128,0.338-0.169,0.527-0.197
			c0.249-0.174,0.294-0.541,0.596-0.646c-0.009,0.251,0.266,0.136,0.424,0.162c-0.032-0.097-0.068-0.193-0.106-0.288
			c0.132-0.004,0.264-0.008,0.396-0.01c-0.053-0.333-0.105-0.667-0.178-0.996c1.285-0.302,2.608-0.436,3.926-0.502
			c0.354-0.049,0.711-0.04,1.067-0.041C25.065,1.021,25.07,0.571,25.06,0.121z M25.996,1.02c-0.11,0.089,0.045,0.242,0.139,0.143
			C26.247,1.08,26.086,0.923,25.996,1.02z M25.178,1.073c-0.098,0.048-0.099,0.098-0.005,0.148
			C25.271,1.172,25.272,1.123,25.178,1.073z M26.82,1.145c0.01,0.105,0.058,0.124,0.141,0.056
			C26.951,1.096,26.903,1.077,26.82,1.145z M31.482,1.665c-0.133,0.031-0.059,0.237,0.063,0.203
			C31.678,1.839,31.603,1.631,31.482,1.665z M32.104,1.952c0.02,0.143,0.058,0.285,0.158,0.393c0.009-0.134,0.013-0.269,0.019-0.404
			C32.238,1.944,32.149,1.949,32.104,1.952z M20.132,3.28c0.001,0.045,0.002,0.134,0.002,0.18c0.046,0,0.135,0.002,0.181,0.002
			c-0.002-0.044-0.005-0.132-0.007-0.176C20.264,3.284,20.175,3.281,20.132,3.28z M36.829,3.438
			c-0.032,0.103,0.003,0.138,0.107,0.106C36.966,3.442,36.932,3.406,36.829,3.438z M36.538,4.004
			c-0.097,0.05-0.098,0.099-0.003,0.148C36.631,4.103,36.632,4.053,36.538,4.004z M37.57,4.385
			c-0.097,0.064,0.001,0.242,0.103,0.164C37.769,4.484,37.671,4.307,37.57,4.385z M38.227,4.65
			c-0.018,0.022-0.053,0.067-0.071,0.089C38.226,4.994,38.505,4.611,38.227,4.65z M39.258,4.908
			c-0.05,0.056-0.069,0.211,0.033,0.218C39.402,5.098,39.39,4.809,39.258,4.908z M38.681,4.965
			c-0.107,0.096,0.061,0.263,0.158,0.157C38.949,5.024,38.778,4.858,38.681,4.965z"/>
	</g>
	<g>
		<path fill="#A0A1A2" d="M11.555,3.951c0.271-0.173,0.576-0.299,0.808-0.526c0.275,0.39,0.482,0.829,0.783,1.199
			c0.136,0.006,0.283,0.018,0.403-0.059c0.5-0.255,0.977-0.555,1.486-0.791c-0.139,0.298-0.137,0.634-0.188,0.954
			c-0.101-0.064-0.199-0.135-0.307-0.187c-0.293,0.199-0.483,0.527-0.825,0.656c-0.076-0.181-0.152-0.362-0.226-0.543
			c-0.25,0.019-0.515-0.002-0.746,0.11c-0.241,0.14-0.423,0.357-0.621,0.549c-0.359,0.249-0.725,0.489-1.081,0.744
			C10.464,6.418,9.967,6.89,9.409,7.282C9.34,7.333,9.269,7.381,9.2,7.431C8.914,7.086,8.675,6.701,8.327,6.41
			c0.619-0.467,1.166-1.033,1.832-1.437C10.65,4.668,11.063,4.254,11.555,3.951z M14.133,4.37c-0.031,0.102,0.005,0.138,0.107,0.106
			C14.272,4.374,14.235,4.338,14.133,4.37z M13.676,4.811c-0.035,0.103,0,0.138,0.103,0.103C13.814,4.812,13.779,4.778,13.676,4.811
			z M10.156,5.645c-0.069,0.085-0.05,0.132,0.056,0.143C10.28,5.703,10.262,5.656,10.156,5.645z M9.802,6.261
			c-0.03,0.152-0.06,0.304-0.09,0.456c0.041-0.013,0.124-0.04,0.166-0.053C9.911,6.552,9.947,6.44,9.984,6.329
			C9.924,6.306,9.863,6.284,9.802,6.261z"/>
	</g>
	<path fill="#A0A1A2" d="M15.216,3.763c0.205-0.188,0.485-0.252,0.731-0.369c-0.143,0.161-0.274,0.332-0.402,0.506
		C15.436,3.855,15.328,3.807,15.216,3.763z"/>
	<path fill="#A0A1A2" d="M14.978,4.296c0.044-0.2,0.17-0.346,0.368-0.405c-0.052,0.129-0.106,0.255-0.16,0.382
		C15.133,4.28,15.029,4.291,14.978,4.296z"/>
	<path fill="#A0A1A2" d="M8.921,7.931c0.347,0.087,0.311,0.503,0.476,0.757C9.132,8.702,8.803,8.599,8.599,8.82
		C8.45,8.931,8.397,9.11,8.364,9.285c-0.212-0.004-0.318,0.171-0.39,0.346c-0.101-0.116-0.204-0.23-0.31-0.343
		C7.713,9.243,7.76,9.198,7.807,9.153c0.09,0.013,0.178,0.027,0.268,0.04C8.081,9.043,8.03,8.862,8.15,8.744
		c0.179-0.203,0.397-0.368,0.587-0.56c0.109,0.104,0.219,0.206,0.334,0.303C9.022,8.331,8.949,8.183,8.852,8.051
		C8.869,8.021,8.904,7.961,8.921,7.931z"/>
	<g>
		<path fill="#A0A1A2" d="M44.628,11.096c0.085-0.314,0.436-0.405,0.672-0.577c0.226,0.319,0.461,0.633,0.65,0.976
			c0.175,0.331,0.428,0.613,0.59,0.951c-0.225,0.115-0.423,0.284-0.659,0.375c-0.189,0.021-0.38,0.009-0.57,0.019
			c0.021-0.063,0.043-0.127,0.066-0.19c-0.099-0.053-0.225-0.071-0.296-0.161c0.029-0.088,0.096-0.154,0.149-0.227
			c-0.234-0.119-0.496-0.229-0.614-0.482c0.089,0.04,0.179,0.082,0.268,0.125c0.133-0.088,0.4-0.08,0.423-0.262
			c-0.112-0.097-0.306-0.136-0.336-0.302c0.12-0.166,0.285-0.292,0.446-0.415c-0.153-0.005-0.307-0.012-0.459-0.024
			c0.019,0.079,0.037,0.159,0.056,0.239C44.884,11.143,44.754,11.126,44.628,11.096z M45.65,11.561
			c-0.051,0.113,0.132,0.243,0.23,0.171C45.939,11.617,45.744,11.494,45.65,11.561z"/>
	</g>
	<path fill="#A0A1A2" d="M44.461,11.067c0.131,0.014,0.045,0.272-0.071,0.22C44.329,11.218,44.379,11.095,44.461,11.067z"/>
	<path fill="#A0A1A2" d="M44.669,11.197c0.114,0.001,0.078,0.18-0.019,0.177C44.536,11.372,44.57,11.194,44.669,11.197z"/>
	<g>
		<path fill="#A0A1A2" d="M11.047,12.435c-0.003-0.015-0.007-0.044-0.009-0.059c0.055,0.142,0.121,0.281,0.219,0.399
			c0.231,0.275,0.445,0.582,0.775,0.748c-0.117,0.096-0.235,0.191-0.336,0.303c-0.644,0.761-1.161,1.617-1.703,2.451
			c-0.292-0.169-0.589-0.333-0.888-0.49c-0.128-0.06-0.265-0.14-0.411-0.105c-0.145,0.196-0.25,0.416-0.37,0.627
			c0.082-0.246,0.213-0.472,0.36-0.684c0.129,0.028,0.258,0.057,0.388,0.083c-0.055-0.11-0.111-0.22-0.167-0.329
			c0.143,0.033,0.285,0.067,0.428,0.099c-0.005-0.087-0.01-0.175-0.015-0.262c0.199-0.121,0.404-0.231,0.616-0.331
			c-0.099-0.131-0.198-0.262-0.298-0.392c0.12-0.035,0.24-0.068,0.36-0.103c0.042-0.154,0.059-0.323,0.156-0.456
			c0.149-0.007,0.297,0.012,0.445,0.023c-0.167-0.1-0.334-0.203-0.495-0.313c0.281-0.04,0.561-0.091,0.84-0.146
			c-0.056-0.234-0.092-0.473-0.118-0.711c0.09-0.008,0.179-0.016,0.269-0.023C11.077,12.655,11.062,12.545,11.047,12.435z
			 M9.212,15.696c-0.068,0.085,0.063,0.231,0.152,0.162C9.426,15.775,9.298,15.631,9.212,15.696z"/>
	</g>
	<path fill="#A0A1A2" d="M10.683,13.32c0.07-0.091,0.236,0.021,0.161,0.117C10.773,13.529,10.605,13.417,10.683,13.32z"/>
	<path fill="#A0A1A2" d="M9.787,14.03c0.022-0.028,0.067-0.083,0.088-0.111c0.001,0.138,0,0.276-0.001,0.415
		c-0.045-0.023-0.138-0.071-0.183-0.096C9.722,14.169,9.754,14.099,9.787,14.03z"/>
	<path fill="#A0A1A2" d="M9.599,14.775c0.059-0.086,0.215,0.007,0.144,0.096C9.684,14.957,9.53,14.863,9.599,14.775z"/>
	<g>
		<path fill="#A0A1A2" d="M3.448,15.828c0.044-0.135,0.206-0.141,0.318-0.194c0.127,0.079,0.262,0.143,0.398,0.203
			c0.035,0.074,0.071,0.149,0.108,0.224c-0.233,0.121-0.453,0.264-0.66,0.423c0.012,0.162,0.024,0.324,0.034,0.485
			C3.58,16.87,3.516,16.77,3.452,16.67c-0.033,0.025-0.101,0.073-0.135,0.097c0.083,0.111,0.165,0.221,0.249,0.332
			c0.087-0.029,0.174-0.06,0.261-0.089c0.039,0.063,0.078,0.125,0.116,0.189c0.067,0.006,0.134,0.013,0.202,0.019
			c-0.175,0.228-0.305,0.492-0.286,0.787c-0.387-0.052-0.769-0.139-1.125-0.301C2.951,17.072,3.206,16.452,3.448,15.828z
			 M3.05,17.14c-0.033,0.102,0.004,0.139,0.106,0.107C3.187,17.145,3.153,17.109,3.05,17.14z"/>
	</g>
	<path fill="#A0A1A2" d="M46.471,15.705c0.175,0.283,0.292,0.594,0.396,0.909c-0.15-0.021-0.297-0.043-0.444-0.067
		c0.031-0.179,0.058-0.357,0.082-0.536c-0.108,0.072-0.214,0.146-0.321,0.218C46.279,16.054,46.377,15.881,46.471,15.705z"/>
	<path fill="#A0A1A2" d="M3.858,16.61c0.12-0.038,0.16,0.002,0.122,0.122C3.86,16.769,3.819,16.729,3.858,16.61z"/>
	<path fill="#A0A1A2" d="M46.582,17.301c0.02-0.216,0.01-0.478,0.237-0.589c0.022,0.094,0.044,0.188,0.067,0.282
		c0.145,0.068,0.237,0.193,0.286,0.344C46.976,17.327,46.778,17.331,46.582,17.301z"/>
	<path fill="#A0A1A2" d="M4.078,16.903c0.12-0.038,0.16,0.002,0.122,0.122C4.08,17.063,4.04,17.022,4.078,16.903z"/>
	<path fill="#A0A1A2" d="M46.945,17.577c0.09-0.057,0.18-0.114,0.27-0.172c0.019,0.131,0.04,0.262,0.063,0.393
		c-0.117-0.009-0.232-0.018-0.347-0.027C46.934,17.723,46.941,17.625,46.945,17.577z"/>
	<g>
		<path fill="#A0A1A2" d="M48.122,17.813c0.099-0.277,0.41-0.273,0.651-0.326c0.127,0.364,0.254,0.73,0.341,1.107
			c0.08,0.38,0.229,0.745,0.244,1.136c-0.415,0.106-0.829,0.213-1.245,0.313c-0.12-0.476-0.265-0.947-0.352-1.43
			c-0.025-0.089,0.04-0.164,0.075-0.238c-0.169-0.097-0.266-0.258-0.274-0.453c0.164,0.054,0.328,0.107,0.497,0.149
			c-0.089-0.124-0.203-0.223-0.33-0.303c0.09-0.037,0.182-0.073,0.275-0.109c-0.005,0.053-0.014,0.157-0.019,0.209
			C48.018,17.854,48.088,17.826,48.122,17.813z M48.152,18.281c0.157-0.013,0.315-0.038,0.472-0.067
			c-0.022-0.037-0.066-0.109-0.088-0.146C48.403,18.129,48.271,18.196,48.152,18.281z M47.855,18.654
			c0.111-0.021,0.224-0.043,0.336-0.067c-0.027-0.045-0.081-0.136-0.107-0.181C47.997,18.478,47.915,18.558,47.855,18.654z"/>
	</g>
	<g>
		<path fill="#A0A1A2" d="M1.213,17.535c0.477,0.095,0.942,0.287,1.435,0.271c-0.066,0.085-0.131,0.172-0.181,0.268
			c-0.302,0.602-0.379,1.284-0.611,1.913c-0.424-0.051-0.84-0.154-1.253-0.259C0.766,18.986,0.929,18.24,1.213,17.535z
			 M1.731,18.899c-0.032,0.103,0.004,0.138,0.107,0.106C1.868,18.903,1.833,18.867,1.731,18.899z"/>
	</g>
	<path fill="#A0A1A2" d="M2.1,20.284c0.102-0.031,0.137,0.005,0.107,0.107C2.103,20.422,2.067,20.387,2.1,20.284z"/>
	<path fill="#A0A1A2" d="M1.977,20.486c0.109,0.025,0.216,0.051,0.325,0.077c-0.1,0.095-0.199,0.193-0.3,0.288
		C1.977,20.731,1.967,20.608,1.977,20.486z"/>
	<path fill="#A0A1A2" d="M2.319,20.713c0.118-0.039,0.16,0.002,0.122,0.122C2.322,20.873,2.281,20.832,2.319,20.713z"/>
	<path fill="#A0A1A2" d="M1.898,21.19c-0.092-0.114,0.033-0.328,0.179-0.266c0.158,0.009,0.192,0.195,0.25,0.311
		c-0.105-0.047-0.21-0.094-0.317-0.138C1.974,21.128,1.936,21.159,1.898,21.19z"/>
	<path fill="#A0A1A2" d="M2.537,20.932c0.104-0.034,0.138,0,0.104,0.103C2.538,21.069,2.504,21.035,2.537,20.932z"/>
	<path fill="#A0A1A2" d="M1.884,21.335c0.118,0.044,0.334,0.062,0.275,0.24c0,0.162-0.215,0.116-0.322,0.126
		c0.052,0.207,0.12,0.409,0.195,0.608c-0.111-0.075-0.237-0.132-0.327-0.233C1.709,21.819,1.813,21.578,1.884,21.335z"/>
	<path fill="#A0A1A2" d="M2.009,21.795c0.065,0.005,0.196,0.017,0.262,0.023c-0.063,0.095-0.145,0.175-0.241,0.239
		C2.025,21.991,2.014,21.86,2.009,21.795z"/>
	<path fill="#A0A1A2" d="M42.281,23.321c0.459-0.018,0.923-0.07,1.363-0.208c-0.099,0.102-0.184,0.217-0.254,0.34
		c-0.095-0.038-0.189-0.077-0.283-0.113c0.038,0.187,0.079,0.374,0.123,0.56c-0.089,0.028-0.177,0.057-0.265,0.086
		c-0.026,0.072-0.05,0.145-0.074,0.217c0.235-0.088,0.479-0.055,0.705,0.048c-0.138,0.054-0.276,0.105-0.414,0.155
		c-0.04,0.183-0.086,0.364-0.135,0.545c-0.2,0.014-0.4,0.025-0.597,0.055c-0.161,0.016-0.128,0.194-0.143,0.309
		c-0.017,0.57-0.024,1.146-0.139,1.707l0.005-0.059c0.058-0.569,0.087-1.139,0.117-1.71c0.079-0.406,0.094-0.824,0.049-1.234
		C42.293,23.788,42.276,23.555,42.281,23.321z"/>
	<path fill="#A0A1A2" d="M43.28,24.743c0.117-0.038,0.16,0.002,0.122,0.122C43.281,24.902,43.241,24.862,43.28,24.743z"/>
	<path fill="#A0A1A2" d="M48.259,26.428c0.095,0.048,0.095,0.098-0.003,0.148C48.161,26.527,48.161,26.478,48.259,26.428z"/>
	<path fill="#A0A1A2" d="M48.069,26.864c0.067-0.093,0.238,0.014,0.163,0.114C48.164,27.068,47.994,26.96,48.069,26.864z"/>
	<g>
		<path fill="#A0A1A2" d="M2.573,27.817c0.111-0.185,0.23-0.414,0.483-0.399c-0.212,0.197-0.362,0.442-0.384,0.736
			c0.085,0.063,0.169,0.128,0.254,0.192c-0.143,0.184-0.219,0.438-0.459,0.522c-0.166-0.194-0.328-0.39-0.473-0.599
			c-0.069,0.07-0.137,0.139-0.206,0.21c0.005-0.052,0.011-0.155,0.014-0.207c0.091-0.065,0.183-0.129,0.273-0.194
			c0.004-0.05,0.01-0.151,0.013-0.202c-0.123,0.102-0.246,0.205-0.37,0.307c0.008-0.195,0.01-0.39,0.01-0.584
			c0.268-0.028,0.533-0.072,0.801-0.107c-0.037,0.035-0.108,0.104-0.143,0.139C2.449,27.692,2.511,27.754,2.573,27.817z
			 M2.325,27.778c-0.039,0.139-0.072,0.281-0.102,0.423c0.08-0.039,0.158-0.079,0.235-0.122C2.474,27.958,2.397,27.863,2.325,27.778
			z"/>
	</g>
	<path fill="#A0A1A2" d="M2.01,28.599c0.134,0.133,0.264,0.275,0.324,0.459c-0.112-0.043-0.222-0.088-0.332-0.134
		c0.031,0.183,0.063,0.366,0.094,0.55c-0.037,0.021-0.111,0.063-0.148,0.084C1.864,29.24,1.873,28.903,2.01,28.599z"/>
	<g>
		<path fill="#A0A1A2" d="M2.105,29.653c0.075-0.169,0.249-0.258,0.392-0.361c-0.012,0.196-0.027,0.391-0.042,0.586
			c0.115-0.08,0.229-0.162,0.343-0.242c-0.005,0.08-0.008,0.16-0.012,0.241c0.11-0.009,0.218-0.018,0.329-0.028
			c-0.033,0.08-0.064,0.16-0.096,0.241c-0.121-0.058-0.242-0.117-0.362-0.175c-0.193,0.132-0.331,0.323-0.4,0.546
			c0.105-0.013,0.211-0.033,0.318-0.034c0.188,0.083,0.301,0.268,0.419,0.427c-0.117,0.207-0.078,0.44-0.026,0.659
			c-0.133,0.026-0.268,0.053-0.402,0.082c0.194,0.075,0.404,0.073,0.602,0.015c0.014,0.024,0.041,0.071,0.054,0.094
			c0.076,0.018,0.152,0.037,0.228,0.056c-0.217,0.19-0.466,0.343-0.738,0.439c-0.483,0.162-0.975,0.301-1.478,0.383
			c-0.353-0.681-0.481-1.447-0.632-2.191c0.259-0.075,0.517-0.162,0.783-0.209c0.252-0.044,0.489,0.086,0.72,0.166
			c-0.006-0.035-0.02-0.104-0.026-0.139c-0.058-0.009-0.116-0.018-0.174-0.027C1.991,30.015,2.032,29.828,2.105,29.653z
			 M2.536,30.997c-0.086,0.059,0.006,0.216,0.096,0.144C2.718,31.082,2.624,30.927,2.536,30.997z M2.184,31.053
			c-0.093,0.069,0.019,0.236,0.114,0.163C2.39,31.145,2.281,30.976,2.184,31.053z M2.623,31.341
			c-0.083,0.102,0.099,0.198,0.16,0.097C2.866,31.335,2.685,31.241,2.623,31.341z M2.322,31.441
			c-0.069,0.057-0.058,0.211,0.045,0.224C2.514,31.655,2.466,31.364,2.322,31.441z"/>
	</g>
	<g>
		<path fill="#A0A1A2" d="M48.074,30.035c0.484,0.038,0.933,0.25,1.401,0.366c-0.273,0.632-0.29,1.343-0.587,1.962
			c-0.035,0.11-0.019,0.227-0.025,0.341c-0.465-0.126-0.912-0.313-1.385-0.408c0.103-0.234,0.275-0.425,0.477-0.58
			c-0.056-0.013-0.164-0.038-0.218-0.05c0.042-0.175,0.082-0.351,0.124-0.526c0.124,0.039,0.248,0.084,0.379,0.103
			c0.092-0.048,0.174-0.115,0.257-0.177C48.244,30.778,48.08,30.422,48.074,30.035z M48.555,31.264
			c-0.035,0.103-0.001,0.137,0.103,0.103C48.692,31.264,48.657,31.23,48.555,31.264z"/>
	</g>
	<path fill="#A0A1A2" d="M3.157,30.341c0.105-0.054,0.212-0.103,0.32-0.15c0.001,0.067,0.002,0.202,0.003,0.27
		C3.372,30.421,3.263,30.381,3.157,30.341z"/>
	<path fill="#A0A1A2" d="M2.941,30.506c0.198,0.004,0.249,0.157,0.258,0.327C3.075,30.756,2.977,30.651,2.941,30.506z"/>
	<g>
		<path fill="#A0A1A2" d="M41.515,30.584c0.275,0.061,0.552,0.119,0.826,0.189c-0.138,0.064-0.278,0.121-0.419,0.174
			c-0.018,0.034-0.053,0.102-0.069,0.136c0.091-0.019,0.182-0.038,0.275-0.057c0.017,0.126,0.036,0.251,0.056,0.377
			c0.116-0.042,0.232-0.085,0.347-0.129c0.034,0.093,0.07,0.184,0.105,0.277c-0.086-0.052-0.171-0.104-0.255-0.156
			c-0.054,0.094-0.109,0.187-0.162,0.281c0.123-0.012,0.246-0.026,0.37-0.036c-0.192,0.238-0.527,0.286-0.725,0.526
			c0.099,0.04,0.207,0.078,0.266,0.177c-0.419,0.06-0.82-0.111-1.143-0.364C41.148,31.509,41.332,31.047,41.515,30.584z
			 M41.6,31.345c0.15,0.133,0.276,0.287,0.389,0.452c-0.004-0.041-0.014-0.124-0.016-0.165c0.055-0.015,0.167-0.044,0.224-0.058
			c-0.078-0.034-0.151-0.08-0.206-0.144c0.002-0.026,0.005-0.08,0.006-0.107c-0.063,0.02-0.125,0.04-0.186,0.062
			c-0.011-0.1-0.023-0.199-0.033-0.298C41.717,31.172,41.658,31.258,41.6,31.345z"/>
	</g>
	<path fill="#A0A1A2" d="M3.345,30.679c0.12-0.039,0.16,0.003,0.122,0.121C3.348,30.838,3.307,30.797,3.345,30.679z"/>
	<path fill="#A0A1A2" d="M42.329,30.981c0.107-0.088,0.221,0.104,0.117,0.177C42.337,31.244,42.224,31.053,42.329,30.981z"/>
	<path fill="#A0A1A2" d="M48.116,30.972c0.119-0.039,0.159,0.002,0.122,0.122C48.118,31.132,48.077,31.091,48.116,30.972z"/>
	<path fill="#A0A1A2" d="M3.202,31.127c0.109-0.088,0.22,0.105,0.116,0.177C3.208,31.39,3.096,31.198,3.202,31.127z"/>
	<path fill="#A0A1A2" d="M3.648,31.624c0.134-0.046,0.169,0.174,0.042,0.201C3.558,31.868,3.522,31.651,3.648,31.624z"/>
	<path fill="#A0A1A2" d="M45.916,33.155c0.133-0.322,0.073-0.689,0.227-1c0.137,0.333-0.025,0.674-0.066,1.008
		C46.036,33.161,45.956,33.157,45.916,33.155z"/>
	<path fill="#A0A1A2" d="M46.504,32.301c0.112,0.004,0.077,0.181-0.022,0.177C46.369,32.475,46.403,32.297,46.504,32.301z"/>
	<path fill="#A0A1A2" d="M46.808,32.294c0.07-0.094,0.234,0.02,0.16,0.116C46.898,32.503,46.731,32.389,46.808,32.294z"/>
	<path fill="#A0A1A2" d="M46.729,32.668c0.241-0.096,0.479-0.204,0.702-0.343c-0.315,0.308-0.308,0.775-0.5,1.149
		c-0.133,0.269-0.214,0.56-0.303,0.847c0.075-0.225,0.03-0.46-0.041-0.68c0.118-0.092,0.302-0.144,0.328-0.311
		c-0.122-0.009-0.244-0.009-0.366-0.012c0.188-0.114,0.373-0.233,0.557-0.356C46.98,32.863,46.855,32.766,46.729,32.668z"/>
	<path fill="#A0A1A2" d="M45.773,33.111c0.148,0.015,0.06,0.298-0.071,0.226C45.631,33.269,45.676,33.126,45.773,33.111z"/>
	<path fill="#A0A1A2" d="M45.847,33.472c0.109-0.087,0.221,0.105,0.117,0.178C45.854,33.736,45.742,33.544,45.847,33.472z"/>
	<path fill="#A0A1A2" d="M46.17,33.569c0.112-0.092,0.253-0.122,0.395-0.138c-0.027,0.081-0.056,0.164-0.084,0.245
		C46.378,33.641,46.273,33.605,46.17,33.569z"/>
	<path fill="#A0A1A2" d="M45.624,33.683c0.12-0.038,0.16,0.002,0.122,0.122C45.627,33.842,45.586,33.802,45.624,33.683z"/>
	<g>
		<path fill="#A0A1A2" d="M9.119,34.329c0.29-0.138,0.587-0.263,0.882-0.386c0.268,0.414,0.543,0.824,0.796,1.247
			c-0.288,0.22-0.578,0.442-0.913,0.588c-0.009,0.046-0.027,0.137-0.037,0.183c0.071-0.038,0.142-0.076,0.213-0.115
			c-0.087,0.075-0.201,0.128-0.255,0.233c0.035,0.144,0.139,0.255,0.213,0.38c-0.093-0.081-0.181-0.176-0.213-0.298
			c-0.065-0.219-0.137-0.438-0.237-0.645c0.177,0.052,0.359,0.081,0.544,0.078c-0.23-0.168-0.505-0.262-0.738-0.424
			c-0.163-0.125-0.05-0.338-0.027-0.502C9.273,34.555,9.197,34.441,9.119,34.329z M9.866,34.935c-0.115-0.002-0.133,0.198-0.009,0.2
			C9.971,35.136,9.988,34.935,9.866,34.935z"/>
	</g>
	<path fill="#A0A1A2" d="M46.289,34.216c0.097-0.109,0.262,0.063,0.155,0.158C46.344,34.485,46.182,34.312,46.289,34.216z"/>
	<path fill="#A0A1A2" d="M8.697,34.476c0.181,0.001,0.343,0.077,0.481,0.19c-0.152-0.033-0.302-0.072-0.445-0.132
		C8.724,34.52,8.705,34.49,8.697,34.476z"/>
	<g>
		<path fill="#A0A1A2" d="M46.538,34.829c0.184,0.143,0.382,0.344,0.637,0.24c-0.105-0.076-0.211-0.149-0.32-0.217
			c0.332,0.164,0.657,0.348,1.013,0.459c-0.132,0.253-0.297,0.488-0.406,0.754c-0.196,0.485-0.477,0.929-0.715,1.393
			c-0.339-0.191-0.714-0.316-1.043-0.527c-0.086-0.072-0.196-0.07-0.301-0.068c0.014-0.017,0.043-0.051,0.058-0.069
			c0.114-0.076,0.231-0.158,0.368-0.186c0.12,0.021,0.233,0.068,0.349,0.11c0.06-0.16,0.124-0.319,0.197-0.473
			c-0.078-0.153-0.157-0.303-0.239-0.452c0.102-0.248,0.237-0.481,0.396-0.698c0.044,0.205,0.081,0.412,0.108,0.62
			c0.113-0.031,0.227-0.061,0.341-0.091c0.014-0.042,0.04-0.128,0.054-0.17c-0.074,0.035-0.146,0.071-0.22,0.107
			C46.721,35.317,46.625,35.075,46.538,34.829z M47.19,35.218c0.011,0.104,0.058,0.123,0.143,0.054
			C47.321,35.167,47.273,35.149,47.19,35.218z M46.97,36.245c0.011,0.104,0.058,0.123,0.143,0.055
			C47.101,36.193,47.053,36.175,46.97,36.245z M45.951,36.995c-0.041,0.146,0.262,0.157,0.29,0.03
			C46.198,36.918,46.024,36.925,45.951,36.995z"/>
	</g>
	<path fill="#A0A1A2" d="M45.729,36.411c0.029-0.056,0.09-0.17,0.121-0.226c0.042,0.069,0.094,0.138,0.106,0.221
		C45.881,36.409,45.804,36.411,45.729,36.411z"/>
	<path fill="#A0A1A2" d="M7.236,38.396c0.082-0.062,0.192,0.077,0.115,0.145C7.268,38.604,7.158,38.464,7.236,38.396z"/>
	<path fill="#A0A1A2" d="M6.796,38.593c0.062-0.099,0.242-0.001,0.159,0.1C6.892,38.793,6.714,38.693,6.796,38.593z"/>
	<path fill="#A0A1A2" d="M6.139,38.921c0.117-0.091,0.232-0.186,0.347-0.282c0.176,0.156,0.281,0.363,0.294,0.599
		c0.056-0.042,0.113-0.083,0.17-0.124c0.154,0.066,0.346,0.1,0.422,0.27c-0.089-0.026-0.18-0.042-0.271-0.053
		c0.033,0.08,0.044,0.192,0.133,0.23c0.086-0.009,0.107-0.112,0.138-0.177c0.033,0.022,0.098,0.063,0.131,0.083
		c-0.029,0.143-0.058,0.286-0.085,0.429c-0.078-0.003-0.156-0.006-0.233-0.007c-0.054-0.106-0.11-0.21-0.161-0.317
		c-0.029-0.088-0.114-0.239-0.222-0.155c-0.09,0.133,0.124,0.206,0.222,0.155c0.012,0.111,0.025,0.221,0.039,0.333
		c-0.05-0.003-0.148-0.008-0.198-0.01C6.63,39.564,6.358,39.261,6.139,38.921z"/>
	<path fill="#A0A1A2" d="M43.386,38.833c0.041-0.028,0.122-0.084,0.163-0.112c0.113,0.051,0.226,0.101,0.339,0.156l0.057,0.04
		c-0.067,0.047-0.134,0.097-0.21,0.127C43.592,39.038,43.495,38.91,43.386,38.833z"/>
	<path fill="#A0A1A2" d="M7.505,39.097c0.161-0.043,0.329-0.078,0.49-0.01c-0.13,0.058-0.262,0.114-0.394,0.169
		C7.577,39.217,7.528,39.138,7.505,39.097z"/>
	<g>
		<path fill="#A0A1A2" d="M14.851,39.14c0.438,0.352,0.921,0.642,1.411,0.917c-0.189,0.272-0.358,0.556-0.51,0.85
			c-0.055,0.141-0.181,0.29-0.137,0.446c0.536,0.351,1.115,0.645,1.718,0.865c0.226-0.443,0.409-0.908,0.634-1.353
			c0.566,0.201,1.118,0.444,1.684,0.645c-0.152,0.473-0.324,0.939-0.444,1.421c0.595,0.29,1.258,0.377,1.894,0.54
			c0.863,0.187,1.743,0.29,2.623,0.365c-0.423,0.039-0.837-0.066-1.258-0.094c-0.901-0.112-1.785-0.331-2.666-0.549
			c-0.218-0.051-0.425-0.141-0.627-0.235c0.09-0.496,0.301-0.957,0.421-1.444c-0.554-0.159-1.064-0.449-1.627-0.575
			c-0.218,0.426-0.393,0.874-0.607,1.302c-0.436-0.086-0.809-0.338-1.204-0.526c-0.205-0.1-0.402-0.217-0.584-0.354
			c0.08-0.304,0.145-0.611,0.215-0.916c-0.064,0.004-0.129,0.009-0.194,0.013c-0.018-0.089-0.035-0.179-0.054-0.268
			c-0.111,0.051-0.222,0.103-0.333,0.155c0.075,0.099,0.15,0.197,0.224,0.297c-0.248-0.126-0.495-0.255-0.748-0.368
			c0.115-0.161,0.229-0.323,0.342-0.485c-0.22,0.092-0.458,0.133-0.691,0.066c-0.029,0.155,0.011,0.31,0.05,0.46
			c-0.162-0.032-0.324-0.059-0.488-0.08c-0.021-0.003-0.061-0.009-0.082-0.013c0.056,0.002,0.166,0.005,0.221,0.007
			C14.248,39.822,14.613,39.528,14.851,39.14z M14.794,39.542c-0.032,0.103,0.004,0.138,0.107,0.107
			C14.932,39.546,14.896,39.51,14.794,39.542z"/>
	</g>
	<g>
		<path fill="#A0A1A2" d="M33.817,40.059c0.443-0.246,0.885-0.497,1.291-0.801c0.207,0.262,0.455,0.495,0.614,0.792
			c-0.092,0.226-0.25,0.416-0.369,0.627c-0.078-0.1-0.16-0.196-0.246-0.288c0.13-0.046,0.294-0.057,0.363-0.196
			c-0.205,0.011-0.41,0.035-0.616,0.05c-0.12,0.193-0.348,0.392-0.185,0.63c-0.101,0.052-0.198,0.154-0.322,0.118
			C34.124,40.709,34.014,40.358,33.817,40.059z M35.143,39.909c-0.038,0.119,0.003,0.159,0.122,0.121
			C35.304,39.911,35.263,39.87,35.143,39.909z"/>
	</g>
	<path fill="#A0A1A2" d="M7.884,39.551c0.132-0.046,0.171,0.171,0.043,0.197C7.792,39.796,7.756,39.577,7.884,39.551z"/>
	<path fill="#A0A1A2" d="M7.666,39.87c0.143-0.006,0.285-0.015,0.427-0.024c0.007,0.091,0.012,0.183,0.019,0.274
		c-0.1-0.055-0.201-0.111-0.302-0.165c0.021,0.113,0.044,0.226,0.065,0.34c-0.166-0.057-0.329-0.117-0.493-0.179
		c-0.043,0.076-0.085,0.153-0.127,0.23c-0.075-0.081-0.15-0.162-0.224-0.243c0.18-0.134,0.4-0.129,0.61-0.085
		C7.647,39.982,7.66,39.908,7.666,39.87z"/>
	<path fill="#A0A1A2" d="M42.553,40.376c0.083-0.062,0.188,0.081,0.112,0.148C42.58,40.585,42.475,40.441,42.553,40.376z"/>
	<path fill="#A0A1A2" d="M7.612,40.431c0.22-0.025-0.005,0.279-0.128,0.182C7.441,40.531,7.544,40.453,7.612,40.431z"/>
	<path fill="#A0A1A2" d="M14.628,40.435c0.121,0,0.101,0.201-0.012,0.2C14.493,40.633,14.514,40.434,14.628,40.435z"/>
	<path fill="#A0A1A2" d="M34.78,40.504c0.101-0.083,0.2,0.097,0.101,0.16C34.78,40.746,34.681,40.566,34.78,40.504z"/>
	<g>
		<path fill="#A0A1A2" d="M30.462,41.5c0.525-0.104,1.035-0.289,1.512-0.533c0.164,0.354,0.296,0.727,0.508,1.057
			c0.065,0.135,0.223,0.159,0.355,0.193c-0.054,0.001-0.109-0.001-0.165-0.004c-0.142-0.018-0.281-0.06-0.425-0.065
			c-0.146,0.176-0.29,0.357-0.506,0.451c-0.004-0.097-0.007-0.195-0.01-0.292c-0.128-0.011-0.256-0.031-0.384-0.022
			c-0.116,0.048-0.215,0.129-0.324,0.188c-0.114-0.068-0.21-0.16-0.311-0.242c0.06,0.231,0.118,0.463,0.181,0.694
			c-0.568,0.304-1.219,0.378-1.831,0.556c-0.93,0.165-1.864,0.358-2.813,0.368c1.459-0.144,2.919-0.359,4.32-0.802
			c0.073-0.027,0.145-0.056,0.215-0.092C30.85,42.444,30.512,41.997,30.462,41.5z M32.085,41.714
			c-0.038,0.086-0.076,0.173-0.113,0.26c0.158,0.025,0.317,0.045,0.476,0.063C32.328,41.927,32.208,41.819,32.085,41.714z"/>
	</g>
	<g>
		<path fill="#A0A1A2" d="M6.529,41.867c0.307-0.303,0.69-0.535,0.939-0.894c0.3,0.205,0.572,0.448,0.805,0.725
			c0.244,0.293,0.545,0.529,0.81,0.8c-0.273,0.366-0.573,0.712-0.924,1.007C7.609,42.965,7.033,42.451,6.529,41.867z M7.776,42.241
			c0.122,0,0.248,0.005,0.372-0.009c0.097-0.066,0.081-0.2,0.112-0.298C8.087,42.017,7.924,42.12,7.776,42.241z M8.475,42.147
			c-0.004,0.1-0.009,0.201-0.013,0.302c0.084,0.026,0.167,0.053,0.251,0.08C8.634,42.401,8.554,42.274,8.475,42.147z M7.898,42.463
			c-0.086-0.013-0.2,0.125-0.079,0.166C7.963,42.71,8.11,42.445,7.898,42.463z"/>
	</g>
	<path fill="#A0A1A2" d="M42.339,41.298c0.103-0.034,0.139,0.001,0.11,0.105C42.346,41.435,42.31,41.4,42.339,41.298z"/>
	<g>
		<path fill="#A0A1A2" d="M42.697,41.261c0.296,0.168,0.502,0.444,0.737,0.685c-0.222,0.25-0.488,0.458-0.706,0.711
			c-0.149,0.169-0.318,0.319-0.502,0.451c-0.262,0.187-0.445,0.458-0.681,0.674c-0.128-0.106-0.281-0.187-0.421-0.053
			c0.109,0.048,0.22,0.097,0.33,0.147c-0.564,0.416-1.088,0.882-1.638,1.314c-0.177-0.244-0.361-0.484-0.568-0.702
			c0.045-0.086,0.091-0.171,0.137-0.255c0.107,0.014,0.216,0.029,0.325,0.044c-0.067-0.114-0.134-0.227-0.199-0.341
			c-0.107,0.149-0.218,0.294-0.331,0.438c-0.062-0.077-0.124-0.152-0.185-0.226c0.292-0.16,0.517-0.424,0.835-0.541
			c-0.009,0.149-0.053,0.292-0.13,0.42c0.078-0.017,0.156-0.033,0.236-0.047c0.103-0.149,0.202-0.299,0.296-0.454
			c-0.124,0.008-0.248,0.016-0.371,0.023c0.051-0.088,0.101-0.271,0.239-0.214c0.194,0.022,0.243,0.211,0.276,0.372
			c0.033-0.005,0.097-0.015,0.131-0.02c0.07-0.109,0.136-0.222,0.225-0.316c0.124-0.01,0.247,0.002,0.372,0.011
			c-0.153-0.082-0.292-0.185-0.441-0.272c-0.095-0.003-0.19-0.009-0.284-0.014c0.189-0.198,0.47-0.1,0.705-0.079
			c0.009-0.168-0.003-0.338-0.061-0.497c0.281-0.117,0.633-0.114,0.817-0.395c0.09,0.29,0.431,0.258,0.669,0.339
			c0.033-0.074,0.066-0.146,0.099-0.219c-0.071,0.014-0.14,0.029-0.209,0.045c-0.16-0.212-0.143-0.466-0.074-0.709
			c0.034,0.021,0.102,0.065,0.137,0.086c-0.026,0.125-0.052,0.249-0.076,0.374c0.109-0.134,0.215-0.269,0.323-0.403
			C42.704,41.512,42.698,41.386,42.697,41.261z M42.843,41.92c-0.071,0.058-0.058,0.211,0.045,0.224
			C43.035,42.132,42.985,41.841,42.843,41.92z M41.485,42.558c0.063,0.102,0.124,0.206,0.18,0.313
			c0.01-0.043,0.031-0.128,0.041-0.171c0.064-0.077,0.128-0.155,0.192-0.233C41.76,42.495,41.622,42.527,41.485,42.558z
			 M41.448,42.915c-0.039,0.118,0.002,0.16,0.122,0.122C41.607,42.917,41.567,42.877,41.448,42.915z M40.285,43.944
			c-0.083,0.101,0.096,0.2,0.158,0.1C40.527,43.942,40.347,43.845,40.285,43.944z M39.98,44.085
			c-0.097,0.049-0.097,0.099-0.002,0.148C40.075,44.183,40.075,44.133,39.98,44.085z M40.126,44.317
			c-0.099-0.004-0.133,0.175-0.02,0.177C40.204,44.497,40.239,44.318,40.126,44.317z"/>
	</g>
	<path fill="#A0A1A2" d="M41.431,42.095c0.146-0.136,0.298-0.268,0.466-0.378c-0.06,0.219-0.239,0.366-0.39,0.522
		C41.488,42.202,41.45,42.131,41.431,42.095z"/>
	<path fill="#A0A1A2" d="M9.982,41.837c0.141,0.205,0.235,0.441,0.182,0.693c0.107,0.001,0.214,0.001,0.321,0.004
		c-0.036,0.123-0.07,0.248-0.102,0.373c-0.038,0-0.112-0.004-0.148-0.005c0.016-0.086,0.033-0.172,0.051-0.258
		c-0.318,0.051-0.403-0.316-0.591-0.495c0.097,0.038,0.194,0.077,0.29,0.116C9.958,42.124,9.955,41.978,9.982,41.837z"/>
	<path fill="#A0A1A2" d="M41.958,42.126c0.101-0.031,0.137,0.005,0.106,0.108C41.962,42.265,41.926,42.229,41.958,42.126z"/>
	<path fill="#A0A1A2" d="M9.471,42.679c-0.009-0.17,0.031-0.327,0.192-0.41c-0.003,0.084-0.007,0.169-0.012,0.254
		c0.183,0.086,0.382,0.176,0.454,0.384C9.884,42.856,9.676,42.771,9.471,42.679z"/>
	<path fill="#A0A1A2" d="M10.901,42.833c0.232-0.019-0.016,0.308-0.141,0.188C10.706,42.931,10.823,42.848,10.901,42.833z"/>
	<path fill="#A0A1A2" d="M10.158,42.995c0.108-0.01,0.196,0.144,0.126,0.23C10.163,43.295,10.006,43.044,10.158,42.995z"/>
	<path fill="#A0A1A2" d="M10.334,43.408c0.129-0.145,0.311-0.202,0.498-0.227c-0.033,0.08-0.073,0.156-0.121,0.228
		C10.586,43.419,10.459,43.412,10.334,43.408z"/>
	<path fill="#A0A1A2" d="M11.336,43.192c0.277-0.039-0.002,0.344-0.071,0.09C11.283,43.259,11.318,43.214,11.336,43.192z"/>
	<path fill="#A0A1A2" d="M10.637,43.506c0.085-0.104,0.29,0.017,0.194,0.136C10.753,43.745,10.562,43.613,10.637,43.506z"/>
	<path fill="#A0A1A2" d="M10.859,43.757c0.096-0.073,0.192-0.149,0.286-0.227c-0.003,0.142-0.006,0.285-0.01,0.428
		C11.043,43.891,10.951,43.824,10.859,43.757z"/>
	<path fill="#A0A1A2" d="M38.297,44.05c0.09-0.049,0.26,0.06,0.23,0.164C38.433,44.273,38.252,44.163,38.297,44.05z"/>
	<path fill="#A0A1A2" d="M14.131,44.687c0.088-0.081,0.252,0.059,0.177,0.157C14.22,44.92,14.054,44.784,14.131,44.687z"/>
	<path fill="#A0A1A2" d="M14.775,44.755c0.113,0.002,0.077,0.179-0.021,0.178C14.64,44.93,14.676,44.752,14.775,44.755z"/>
	<path fill="#A0A1A2" d="M37.049,45.042c0.104-0.036,0.137-0.002,0.104,0.102C37.049,45.179,37.016,45.145,37.049,45.042z"/>
	<path fill="#A0A1A2" d="M13.516,45.344c0.195-0.088,0.404-0.18,0.617-0.092c-0.048,0.164-0.139,0.31-0.25,0.439
		c-0.118-0.059-0.238-0.116-0.359-0.17C13.522,45.476,13.518,45.389,13.516,45.344z"/>
	<path fill="#A0A1A2" d="M15.721,45.265c0.131-0.046,0.175,0.166,0.048,0.197C15.636,45.512,15.593,45.292,15.721,45.265z"/>
	<path fill="#A0A1A2" d="M14.606,45.4c0.33,0.122,0.744,0.063,1.01,0.326c0.052,0.174-0.11,0.338-0.171,0.496
		c-0.055-0.077-0.109-0.152-0.164-0.227c0.049-0.111,0.099-0.22,0.146-0.33c-0.084,0.07-0.167,0.141-0.25,0.212
		c-0.073-0.034-0.146-0.068-0.218-0.101c0.128,0.171,0.239,0.356,0.27,0.571c-0.091-0.038-0.181-0.076-0.271-0.113
		c-0.029-0.121-0.056-0.24-0.084-0.36c-0.044-0.013-0.134-0.039-0.179-0.051c0.022,0.101,0.045,0.204,0.067,0.306
		c-0.125-0.06-0.251-0.12-0.377-0.177c0.067-0.076,0.137-0.151,0.205-0.225C14.596,45.617,14.6,45.508,14.606,45.4z"/>
	<path fill="#A0A1A2" d="M14.065,45.706c0.09-0.08,0.252,0.067,0.172,0.163C14.146,45.942,13.988,45.801,14.065,45.706z"/>
	<g>
		<path fill="#A0A1A2" d="M36.541,45.71c0.059,0.028,0.118,0.058,0.177,0.087c0.024-0.023,0.067-0.069,0.089-0.092
			c0.141,0.335,0.317,0.652,0.495,0.969c0.058,0.065-0.028,0.208-0.111,0.182c-0.09-0.007-0.154-0.081-0.229-0.122
			c-0.004,0.083-0.007,0.166-0.01,0.25c-0.56,0.261-1.082,0.602-1.66,0.825c-0.044-0.092-0.093-0.18-0.128-0.274
			c0.056-0.112,0.132-0.21,0.202-0.312c-0.099,0.068-0.196,0.137-0.294,0.206c-0.109-0.234-0.212-0.468-0.304-0.708
			c0.054-0.035,0.108-0.07,0.163-0.104c0.036,0.095,0.07,0.192,0.098,0.291c0.109-0.028,0.219-0.056,0.33-0.082
			c-0.073,0.118-0.148,0.236-0.222,0.354c0.088-0.043,0.179-0.082,0.265-0.133c0.036-0.123,0.118-0.288,0.014-0.398
			c-0.068-0.087-0.148-0.166-0.222-0.246c0.122,0.036,0.246,0.072,0.37,0.107c-0.012-0.104-0.024-0.207-0.035-0.31
			c0.12,0.058,0.282,0.236,0.393,0.066C36.082,46.033,36.303,45.859,36.541,45.71z M35.888,46.805
			c-0.069,0.031-0.121,0.179-0.017,0.197C36,47.014,36.047,46.734,35.888,46.805z"/>
	</g>
	<path fill="#A0A1A2" d="M33.947,45.736c0.214,0.218,0.367,0.484,0.558,0.722c0.021,0.026,0.065,0.077,0.088,0.103
		c-0.191,0.009-0.378,0.051-0.557,0.12c-0.03-0.079-0.06-0.157-0.088-0.235c0.088,0,0.177,0.001,0.267,0.002
		C34.105,46.219,34.004,45.985,33.947,45.736z"/>
	<path fill="#A0A1A2" d="M33.494,46.401c0.112-0.14,0.263-0.24,0.398-0.354c-0.005,0.092-0.009,0.185-0.014,0.278
		c-0.056,0.037-0.112,0.073-0.167,0.111c0.042,0.131,0.082,0.263,0.122,0.395c-0.118,0.038-0.237,0.077-0.354,0.117
		C33.482,46.766,33.461,46.581,33.494,46.401z"/>
	<path fill="#A0A1A2" d="M32.928,46.657c0.129,0.002,0.257,0.004,0.387,0.004c-0.115,0.156-0.213,0.322-0.283,0.501
		C33,46.993,32.964,46.825,32.928,46.657z"/>
	<g>
		<path fill="#A0A1A2" d="M17.792,47.651c0.358,0.011,0.695,0.141,1.021,0.278c0.306,0.135,0.659,0.075,0.964,0.217
			c0.135,0.061,0.274,0.114,0.419,0.146c0.075,0.051,0.149,0.103,0.224,0.156c0.064-0.033,0.128-0.066,0.192-0.098
			c0.073,0.065,0.145,0.13,0.218,0.196c0.039-0.071,0.078-0.142,0.117-0.213c0.296,0.113,0.601,0.204,0.918,0.222
			c0.04,0.095,0.078,0.191,0.118,0.289c0.073-0.124,0.114-0.283,0.256-0.345c0.086,0.088,0.146,0.2,0.154,0.324
			c-0.107,0.051-0.23,0.049-0.345,0.067c0.109,0.052,0.219,0.099,0.337,0.131c0.007,0.084,0.014,0.168,0.02,0.252
			c-0.131-0.073-0.262-0.145-0.393-0.216c0.005,0.047,0.016,0.142,0.022,0.189c0.105,0.099,0.287,0.161,0.292,0.329
			c0.022,0.141-0.069,0.263-0.127,0.384c-0.215-0.078,0.014-0.326,0.032-0.471c-0.092,0.003-0.181,0.008-0.271,0.012
			c-0.01,0.121-0.019,0.243-0.027,0.366c-0.563-0.06-1.122-0.153-1.671-0.291c-0.775-0.08-1.491-0.408-2.255-0.535
			c-0.207-0.043-0.404-0.118-0.6-0.197C17.561,48.455,17.658,48.047,17.792,47.651z M17.862,47.975
			c-0.087,0.108,0.105,0.22,0.177,0.116C18.126,47.981,17.934,47.869,17.862,47.975z M19.483,48.189
			c-0.031,0.102,0.005,0.137,0.107,0.106C19.622,48.192,19.586,48.156,19.483,48.189z M18.437,48.649
			c-0.031,0.102,0.004,0.138,0.107,0.106C18.574,48.651,18.539,48.616,18.437,48.649z M20.201,48.653
			c0,0.147,0.001,0.294,0.009,0.442c0.1-0.097,0.139-0.232,0.173-0.362c0.077-0.024,0.154-0.046,0.231-0.067l-0.007-0.051
			C20.472,48.629,20.337,48.643,20.201,48.653z M21.103,48.773c-0.075,0.096,0.093,0.206,0.162,0.115
			C21.34,48.791,21.171,48.681,21.103,48.773z M20.82,49.26c0.135,0.056,0.271,0.112,0.407,0.168
			c-0.037-0.105-0.073-0.209-0.109-0.312C21.018,49.164,20.918,49.212,20.82,49.26z"/>
	</g>
	<path fill="#A0A1A2" d="M23.036,48.127c0.143-0.148,0.3-0.281,0.472-0.391C23.429,47.945,23.269,48.107,23.036,48.127z"/>
	<path fill="#A0A1A2" d="M31.931,47.74c0.215-0.019,0.062,0.246-0.081,0.167C31.728,47.865,31.847,47.729,31.931,47.74z"/>
	<path fill="#A0A1A2" d="M24.237,47.827c0.072-0.105,0.264,0.008,0.178,0.117C24.342,48.049,24.15,47.936,24.237,47.827z"/>
	<path fill="#A0A1A2" d="M23.796,47.889c0.232-0.02-0.016,0.307-0.141,0.187C23.601,47.987,23.719,47.903,23.796,47.889z"/>
	<path fill="#A0A1A2" d="M24.924,47.926c0.136,0.039,0.203,0.209,0.34,0.269c0.08-0.088,0.16-0.174,0.242-0.259
		c0.036,0.204,0.072,0.409,0.107,0.615c-0.302,0.015-0.603,0.018-0.905,0.005c-0.018-0.074-0.035-0.146-0.058-0.217
		c-0.139,0.068-0.287,0.113-0.443,0.067c0.029-0.095,0.059-0.188,0.088-0.281C24.532,48.177,24.801,48.174,24.924,47.926z"/>
	<path fill="#A0A1A2" d="M31.486,47.926c0.056-0.079,0.216,0.001,0.161,0.093C31.589,48.099,31.429,48.018,31.486,47.926z"/>
	<path fill="#A0A1A2" d="M22.686,47.971c0.097-0.007,0.194-0.014,0.29-0.02c-0.068,0.036-0.138,0.072-0.207,0.109
		c0.094,0.091,0.186,0.182,0.281,0.274c-0.166,0.025-0.334,0.048-0.499,0.077c0.013-0.079,0.027-0.157,0.042-0.234
		C22.622,48.108,22.654,48.039,22.686,47.971z"/>
	<g>
		<path fill="#A0A1A2" d="M30.865,47.935c0.127,0.006,0.255,0.013,0.383,0.019c-0.078,0.143-0.188,0.302-0.066,0.454
			c0.061-0.093,0.128-0.183,0.201-0.267c-0.012,0.171-0.031,0.341-0.046,0.512c0.191-0.166,0.313-0.391,0.444-0.603
			c0.164,0.006,0.329,0.009,0.494,0.007c0,0.045,0,0.134,0,0.179c-0.073-0.01-0.148-0.021-0.221-0.031
			c-0.018,0.027-0.056,0.081-0.075,0.108c0.235,0.153,0.591,0.237,0.609,0.572c-0.718,0.227-1.455,0.389-2.17,0.619
			c-0.016-0.13-0.037-0.259-0.063-0.387c-0.041,0.083-0.08,0.166-0.12,0.251c-0.026-0.39-0.117-0.771-0.23-1.142
			c0.157-0.087,0.305-0.01,0.434,0.087c0.01-0.06,0.031-0.18,0.041-0.24c0.156,0.147,0.075,0.322-0.015,0.48
			c0.028,0.017,0.085,0.05,0.113,0.067C30.761,48.432,30.792,48.172,30.865,47.935z M30.158,48.284
			c0.043,0.138,0.056,0.322,0.226,0.363C30.398,48.475,30.306,48.356,30.158,48.284z"/>
	</g>
	<path fill="#A0A1A2" d="M23.219,48.193c0.047-0.005,0.141-0.013,0.187-0.017c0.001,0.102,0.003,0.206,0.005,0.31
		c-0.152-0.001-0.305-0.002-0.459-0.003c0.065-0.043,0.13-0.086,0.196-0.127C23.166,48.314,23.202,48.234,23.219,48.193z"/>
	<path fill="#A0A1A2" d="M23.837,48.151c0.174,0.075,0.261,0.243,0.328,0.409C23.975,48.499,23.864,48.345,23.837,48.151z"/>
	<path fill="#A0A1A2" d="M25.838,48.2c0.113,0.002,0.079,0.18-0.02,0.178C25.704,48.375,25.738,48.197,25.838,48.2z"/>
	<path fill="#A0A1A2" d="M26.598,48.274c0.235-0.015,0.449,0.085,0.646,0.203c-0.231,0.013-0.461,0.013-0.692,0.006
		C26.564,48.431,26.586,48.326,26.598,48.274z"/>
	<path fill="#A0A1A2" d="M23.641,48.341c0.12-0.04,0.16,0.001,0.122,0.121C23.644,48.5,23.603,48.46,23.641,48.341z"/>
	<path fill="#646364" d="M25.465,0.91c0.094,0.031,0.187,0.061,0.281,0.093c-0.02,0.146-0.042,0.293-0.062,0.44
		c0.527-0.274,1.111,0.125,1.649-0.055c0.046,0.076,0.092,0.154,0.139,0.231c-0.786-0.142-1.591-0.145-2.387-0.131
		c0.158-0.041,0.314-0.089,0.472-0.131C25.525,1.206,25.496,1.058,25.465,0.91z"/>
	<path fill="#646364" d="M25.996,1.02c0.09-0.097,0.251,0.06,0.139,0.143C26.041,1.263,25.886,1.109,25.996,1.02z"/>
	<path fill="#646364" d="M25.178,1.073c0.094,0.05,0.094,0.099-0.005,0.148C25.079,1.171,25.08,1.121,25.178,1.073z"/>
	<path fill="#646364" d="M26.82,1.145c0.084-0.068,0.131-0.05,0.141,0.056C26.877,1.269,26.83,1.251,26.82,1.145z"/>
	<path fill="#646364" d="M30.082,1.453c0.054-0.006,0.163-0.017,0.218-0.023c0.046,0.206,0.086,0.413,0.122,0.621
		c0.109-0.11,0.216-0.22,0.323-0.331c0.034,0.129,0.067,0.257,0.101,0.386C31,2.052,31.155,1.995,31.309,1.938
		c-0.014,0.075-0.027,0.149-0.041,0.224c0.258-0.019,0.521-0.047,0.747-0.183c-0.019,0.092-0.036,0.183-0.052,0.275
		c0.104,0.118,0.209,0.237,0.296,0.369c-0.727-0.307-1.506-0.46-2.276-0.616C30.011,1.82,30.044,1.636,30.082,1.453z"/>
	<path fill="#646364" d="M31.482,1.665c0.121-0.034,0.196,0.174,0.063,0.203C31.423,1.902,31.349,1.696,31.482,1.665z"/>
	<g>
		<path fill="#646364" d="M27.524,1.704c0.167,0.052,0.332,0.108,0.5,0.161c0.237-0.063,0.487-0.076,0.724,0
			c0.382,0.111,0.78,0.137,1.176,0.139c-0.188,0.421-0.36,0.859-0.369,1.327c-0.059-0.071-0.118-0.142-0.179-0.213
			c-0.064,0.077-0.129,0.155-0.192,0.233c-0.235-0.033-0.471-0.07-0.707-0.102c0.016-0.068,0.032-0.136,0.048-0.204
			c-0.197,0.104-0.415,0.154-0.636,0.177c0.05-0.087,0.099-0.174,0.148-0.261c-0.194,0.066-0.389,0.133-0.587,0.184
			C27.414,2.663,27.438,2.18,27.524,1.704z M28.985,2.622 M28.918,2.939c-0.059,0.093-0.05,0.266,0.059,0.319
			C29.106,3.224,29.034,2.933,28.918,2.939z M29.088,2.978c0.012,0.103,0.061,0.121,0.147,0.054
			C29.223,2.929,29.173,2.911,29.088,2.978z"/>
	</g>
	<path fill="#646364" d="M32.104,1.952c0.045-0.003,0.133-0.008,0.177-0.011c-0.006,0.135-0.01,0.27-0.019,0.404
		C32.163,2.237,32.125,2.095,32.104,1.952z"/>
	<g>
		<path fill="#646364" d="M32.321,2.725c0.661,0.211,1.314,0.45,1.943,0.745c0.211,0.118,0.465,0.04,0.684,0.132
			c0.166,0.062,0.321,0.162,0.494,0.205c0.177,0.003,0.345-0.065,0.515-0.103c-0.07,0.099-0.14,0.197-0.212,0.294
			c0.4,0.204,0.813,0.38,1.218,0.572c-0.009-0.081-0.018-0.163-0.026-0.245c0.133,0.239,0.309,0.458,0.58,0.545
			c0.101-0.128,0.203-0.253,0.309-0.376c0.057,0.273,0.107,0.547,0.148,0.823c0.086-0.073,0.172-0.146,0.26-0.22
			c0.027,0.018,0.081,0.055,0.109,0.073c-0.01,0.07-0.02,0.141-0.03,0.211c0.13-0.025,0.259-0.049,0.389-0.073
			c0.015,0.129,0.031,0.259,0.046,0.389c0.027-0.029,0.081-0.086,0.107-0.115c-0.011-0.114-0.021-0.228-0.033-0.342
			c0.047-0.001,0.139-0.003,0.185-0.005c0.013,0.246-0.043,0.491-0.167,0.704c-0.964-0.642-1.926-1.295-2.97-1.801
			c-0.413-0.185-0.791-0.462-1.241-0.55c-0.362,0.331-0.409,0.873-0.748,1.226c-0.379-0.11-0.687-0.381-1.071-0.479
			c-0.301-0.078-0.603-0.149-0.897-0.252C32.05,3.628,32.198,3.18,32.321,2.725z M32.586,3.794c-0.097,0.061-0.007,0.247,0.096,0.16
			C32.783,3.893,32.688,3.709,32.586,3.794z M32.811,4.018c-0.08,0.007-0.178,0.103-0.13,0.184
			C32.78,4.279,32.951,4.059,32.811,4.018z M33.102,4.148"/>
	</g>
	<g>
		<path fill="#646364" d="M16.947,3.019c0.226-0.105,0.469-0.265,0.728-0.203c0.288,0.363,0.353,0.846,0.505,1.274
			c-0.585,0.089-1.101,0.4-1.669,0.548c-0.418,0.094-0.766,0.357-1.139,0.551c-0.442,0.255-0.933,0.415-1.349,0.714
			c-0.189-0.32-0.374-0.643-0.573-0.956c-0.092-0.101-0.192-0.299-0.354-0.217c-0.353,0.141-0.653,0.385-0.973,0.584
			c0.198-0.192,0.38-0.409,0.621-0.549c0.23-0.112,0.496-0.091,0.746-0.11c0.074,0.181,0.15,0.362,0.226,0.543
			c0.342-0.13,0.532-0.458,0.825-0.656c0.108,0.053,0.205,0.123,0.307,0.187c0.051-0.32,0.05-0.656,0.188-0.954
			c0.045-0.003,0.136-0.008,0.181-0.011c0.111,0.044,0.219,0.092,0.329,0.137c0.128-0.174,0.259-0.345,0.402-0.506
			c0.02-0.017,0.059-0.05,0.077-0.067C16.333,3.227,16.661,3.18,16.947,3.019z M14.978,4.296c0.052-0.005,0.156-0.016,0.208-0.022
			c0.054-0.127,0.109-0.254,0.16-0.382C15.148,3.95,15.022,4.096,14.978,4.296z M16.424,4.241c0.059,0.117,0.123,0.237,0.237,0.308
			c-0.021-0.139-0.049-0.277-0.076-0.415C16.546,4.161,16.465,4.214,16.424,4.241z M14.996,5.03c-0.097,0.052-0.099,0.1-0.003,0.148
			C15.09,5.128,15.091,5.079,14.996,5.03z"/>
	</g>
	<path fill="#646364" d="M36.829,3.438c0.103-0.032,0.137,0.004,0.107,0.106C36.832,3.576,36.797,3.541,36.829,3.438z"/>
	<path fill="#646364" d="M36.538,4.004c0.094,0.049,0.094,0.099-0.003,0.148C36.44,4.103,36.44,4.054,36.538,4.004z"/>
	<path fill="#646364" d="M14.133,4.37c0.102-0.032,0.139,0.004,0.107,0.106C14.138,4.508,14.102,4.473,14.133,4.37z"/>
	<path fill="#646364" d="M37.57,4.385c0.101-0.078,0.199,0.1,0.103,0.164C37.571,4.627,37.473,4.449,37.57,4.385z"/>
	<path fill="#646364" d="M38.227,4.65c0.278-0.04-0.001,0.344-0.071,0.089C38.174,4.718,38.21,4.672,38.227,4.65z"/>
	<path fill="#646364" d="M13.676,4.811c0.103-0.033,0.138,0.001,0.103,0.103C13.676,4.949,13.641,4.914,13.676,4.811z"/>
	<path fill="#646364" d="M39.258,4.908c0.132-0.099,0.143,0.19,0.033,0.218C39.19,5.119,39.208,4.964,39.258,4.908z"/>
	<path fill="#646364" d="M38.681,4.965c0.097-0.107,0.268,0.059,0.158,0.157C38.743,5.228,38.575,5.061,38.681,4.965z"/>
	<path fill="#646364" d="M10.156,5.645c0.105,0.011,0.124,0.059,0.056,0.143C10.106,5.777,10.088,5.73,10.156,5.645z"/>
	<path fill="#646364" d="M9.802,6.261c0.061,0.023,0.122,0.045,0.182,0.069C9.947,6.44,9.911,6.552,9.878,6.664
		c-0.042,0.013-0.125,0.04-0.166,0.053C9.742,6.565,9.772,6.412,9.802,6.261z"/>
	<path fill="#646364" d="M15.127,8.977c1.272-0.75,2.607-1.406,4.022-1.837c0.145,0.339,0.351,0.667,0.37,1.044
		c-0.112-0.32-0.246-0.63-0.37-0.946c-0.635,0.104-1.21,0.406-1.8,0.646c-1.489,0.652-2.878,1.518-4.144,2.534
		c-0.392,0.267-0.707,0.625-1.083,0.912c0.337-0.45,0.81-0.763,1.239-1.116C13.936,9.781,14.522,9.365,15.127,8.977z"/>
	<path fill="#646364" d="M30.799,7.172c0.633,0.164,1.232,0.438,1.826,0.706c-0.048,0.061-0.094,0.124-0.141,0.185
		c-0.089-0.034-0.179-0.066-0.268-0.099c-0.021,0.123-0.042,0.247-0.062,0.37c-0.037-0.008-0.111-0.022-0.148-0.029
		c-0.065-0.193-0.13-0.386-0.191-0.58c-0.129,0.144-0.265,0.283-0.408,0.414c0.044-0.134,0.092-0.267,0.139-0.401
		c-0.199,0.015-0.398,0.037-0.595,0.066C30.846,7.61,30.792,7.394,30.799,7.172z"/>
	<g>
		<path fill="#646364" d="M9.2,7.431c0.069-0.05,0.14-0.098,0.209-0.148C9.348,7.376,9.29,7.472,9.233,7.568
			c0.245,0.263,0.461,0.549,0.71,0.807c0.082,0.092,0.174,0.182,0.217,0.3C9.67,9.287,8.977,9.729,8.575,10.415
			c-0.137,0.242-0.347,0.429-0.54,0.623c0.107-0.283,0.437-0.433,0.479-0.746C8.248,9.959,7.901,9.7,7.625,9.374
			C7.568,9.23,7.724,9.143,7.802,9.05c0.19-0.177,0.326-0.402,0.523-0.571C8.585,8.274,8.762,7.984,9.042,7.8
			C9.177,7.727,9.172,7.562,9.2,7.431z M8.921,7.931c-0.017,0.03-0.052,0.09-0.069,0.12c0.097,0.132,0.17,0.281,0.219,0.437
			C8.956,8.391,8.845,8.288,8.737,8.184c-0.19,0.192-0.408,0.357-0.587,0.56C8.03,8.862,8.081,9.043,8.075,9.192
			c-0.09-0.013-0.179-0.026-0.268-0.04C7.76,9.198,7.713,9.243,7.664,9.289c0.106,0.113,0.209,0.227,0.31,0.343
			c0.072-0.175,0.178-0.35,0.39-0.346C8.397,9.11,8.45,8.931,8.599,8.82c0.204-0.221,0.533-0.118,0.798-0.133
			C9.231,8.434,9.268,8.018,8.921,7.931z"/>
	</g>
	<g>
		<path fill="#646364" d="M39.685,8.626c0.417-0.257,0.729-0.639,1.092-0.959c0.572,0.524,1.099,1.094,1.672,1.617
			c-0.356,0.331-0.731,0.64-1.096,0.961c-0.234-0.327-0.495-0.637-0.816-0.882C40.238,9.133,39.984,8.853,39.685,8.626z
			 M40.502,9.13"/>
	</g>
	<path fill="#646364" d="M19.756,8.533c0.505-0.159,1.011-0.335,1.545-0.366c-0.547,0.152-1.097,0.301-1.65,0.431
		c-0.037-0.121-0.076-0.24-0.114-0.361C19.61,8.336,19.682,8.435,19.756,8.533z"/>
	<path fill="#646364" d="M36.004,9.777c0.199,0.177,0.434,0.307,0.642,0.472c0.315,0.271,0.614,0.559,0.94,0.817
		c-0.122,0.082-0.237,0.17-0.353,0.257c-0.02-0.116-0.032-0.236-0.063-0.349c-0.126-0.068-0.269-0.099-0.406-0.141
		c-0.001-0.094-0.001-0.187-0.001-0.281c-0.114-0.1-0.226-0.203-0.338-0.306c-0.09,0.066-0.183,0.132-0.273,0.198
		C35.991,10.256,35.952,10.015,36.004,9.777z"/>
	<g>
		<path fill="#646364" d="M43.112,10.007c0.376,0.336,0.652,0.767,0.957,1.165c0.446-0.203,0.821-0.531,1.272-0.724
			c0.146,0.23,0.315,0.445,0.464,0.674c0.179,0.266,0.304,0.564,0.504,0.818c0.135,0.168,0.239,0.357,0.319,0.558
			c-0.44,0.172-0.801,0.49-1.2,0.735c0.226,0.523,0.544,1,0.777,1.52c0.264,0.459,0.347,0.989,0.578,1.463
			c0.16,0.447,0.377,0.874,0.493,1.336c0.025,0.102,0.104,0.227,0.227,0.203c0.45-0.064,0.875-0.24,1.319-0.334
			c0.258,0.764,0.415,1.554,0.65,2.323c-0.465,0.162-0.979,0.181-1.41,0.433c0.078,0.376,0.179,0.752,0.171,1.138
			c-0.228-1.174-0.369-2.378-0.812-3.499c-0.505,0.033-0.96,0.27-1.445,0.387c-0.182-0.464-0.315-0.945-0.494-1.41
			c-0.073-0.205-0.245-0.382-0.237-0.609c0.367-0.258,0.802-0.407,1.202-0.609c-0.183-0.89-0.803-1.598-1.112-2.439
			c-0.237-0.578-0.646-1.06-0.983-1.58C43.94,11.038,43.474,10.563,43.112,10.007z M44.628,11.096
			c0.126,0.031,0.256,0.047,0.386,0.045c-0.019-0.08-0.037-0.16-0.056-0.239c0.152,0.012,0.306,0.02,0.459,0.024
			c-0.161,0.123-0.326,0.249-0.446,0.415c0.029,0.166,0.224,0.205,0.336,0.302c-0.024,0.182-0.29,0.173-0.423,0.262
			c-0.089-0.043-0.179-0.085-0.268-0.125c0.118,0.252,0.381,0.362,0.614,0.482c-0.053,0.074-0.12,0.14-0.149,0.227
			c0.071,0.09,0.197,0.109,0.296,0.161c-0.023,0.063-0.045,0.127-0.066,0.19c0.19-0.01,0.381,0.002,0.57-0.019
			c0.236-0.092,0.434-0.26,0.659-0.375c-0.162-0.338-0.415-0.62-0.59-0.951c-0.188-0.343-0.423-0.657-0.65-0.976
			C45.064,10.691,44.713,10.782,44.628,11.096z M44.461,11.067c-0.082,0.028-0.132,0.152-0.071,0.22
			C44.506,11.339,44.593,11.081,44.461,11.067z M44.669,11.197c-0.099-0.003-0.133,0.175-0.019,0.177
			C44.748,11.376,44.783,11.198,44.669,11.197z M46.471,15.705c-0.094,0.176-0.192,0.349-0.288,0.524
			c0.107-0.073,0.213-0.146,0.321-0.218c-0.024,0.179-0.051,0.357-0.082,0.536c0.147,0.025,0.294,0.047,0.444,0.067
			C46.763,16.299,46.646,15.988,46.471,15.705z M46.582,17.301c0.196,0.03,0.394,0.025,0.591,0.037
			c-0.049-0.151-0.142-0.276-0.286-0.344c-0.024-0.094-0.046-0.188-0.067-0.282C46.593,16.823,46.603,17.086,46.582,17.301z
			 M46.945,17.577c-0.003,0.048-0.011,0.146-0.014,0.194c0.115,0.009,0.23,0.018,0.347,0.027c-0.024-0.131-0.044-0.262-0.063-0.393
			C47.125,17.463,47.035,17.52,46.945,17.577z M48.122,17.813c-0.034,0.014-0.103,0.042-0.138,0.056
			c0.005-0.052,0.014-0.157,0.019-0.209c-0.093,0.036-0.184,0.072-0.275,0.109c0.126,0.08,0.241,0.179,0.33,0.303
			c-0.169-0.042-0.332-0.096-0.497-0.149c0.009,0.195,0.105,0.356,0.274,0.453c-0.035,0.075-0.099,0.149-0.075,0.238
			c0.087,0.483,0.232,0.954,0.352,1.43c0.416-0.1,0.831-0.206,1.245-0.313c-0.015-0.391-0.164-0.757-0.244-1.136
			c-0.086-0.377-0.214-0.743-0.341-1.107C48.532,17.539,48.22,17.535,48.122,17.813z"/>
	</g>
	<path fill="#646364" d="M36.832,10.968c0.119-0.038,0.16,0.002,0.122,0.122C36.834,11.128,36.793,11.087,36.832,10.968z"/>
	<g>
		<path fill="#646364" d="M7.277,11.965c0.241-0.317,0.433-0.683,0.758-0.926c-0.73,0.969-1.459,1.941-2.038,3.008
			c-0.486-0.175-0.914-0.466-1.371-0.701c-0.289,0.439-0.531,0.907-0.749,1.386c-0.107,0.245-0.268,0.474-0.314,0.742
			c0.062,0.059,0.131,0.11,0.202,0.16c-0.112,0.053-0.273,0.059-0.318,0.194c-0.242,0.624-0.496,1.244-0.714,1.876
			c0.356,0.162,0.738,0.249,1.125,0.301c-0.019-0.295,0.111-0.559,0.286-0.787c-0.068-0.006-0.135-0.013-0.202-0.019
			c-0.039-0.063-0.078-0.126-0.116-0.189c-0.087,0.029-0.174,0.06-0.261,0.089c-0.083-0.111-0.166-0.222-0.249-0.332
			c0.035-0.024,0.102-0.072,0.135-0.097c0.065,0.1,0.129,0.2,0.194,0.299c-0.01-0.162-0.022-0.323-0.034-0.485
			c0.207-0.159,0.427-0.302,0.66-0.423c-0.037-0.075-0.073-0.15-0.108-0.224c0.218,0.088,0.434,0.181,0.651,0.275
			c-0.063,0.257-0.148,0.507-0.269,0.743c-0.211,0.41-0.285,0.875-0.508,1.279c-0.487,0.035-0.916-0.262-1.389-0.328
			c-0.493,0.016-0.958-0.176-1.435-0.271c-0.284,0.705-0.447,1.452-0.61,2.192c0.413,0.105,0.829,0.208,1.253,0.259
			c0.232-0.629,0.309-1.311,0.611-1.913c-0.148,0.694-0.415,1.356-0.538,2.057c0.449,0.154,0.927,0.217,1.369,0.396
			c0.093,0.109,0.052,0.265,0.033,0.393c-0.125,0.577-0.196,1.163-0.272,1.748c-0.409,0.011-0.814-0.038-1.219-0.098
			c-0.123-0.036-0.26,0.063-0.254,0.195c-0.061,0.751-0.123,1.505-0.088,2.26c0.495,0.028,1.003-0.061,1.487,0.053
			c0.12,0.405,0.012,0.838,0.066,1.253c0.145,0.905,0.019,1.837,0.273,2.728C3.471,29.994,3.764,30.896,4,31.812
			c-0.428,0.135-0.828,0.386-1.289,0.389c0.273-0.095,0.521-0.248,0.738-0.439c-0.075-0.019-0.151-0.038-0.228-0.056
			c-0.013-0.023-0.039-0.07-0.054-0.094c-0.198,0.058-0.408,0.06-0.602-0.015c0.133-0.029,0.268-0.056,0.402-0.082
			c-0.052-0.219-0.091-0.453,0.026-0.659c-0.118-0.16-0.23-0.344-0.419-0.427c-0.107,0.001-0.213,0.02-0.318,0.034
			c0.069-0.223,0.207-0.414,0.4-0.546c0.12,0.058,0.241,0.116,0.362,0.175c0.032-0.081,0.063-0.161,0.096-0.241
			c-0.111,0.01-0.219,0.02-0.329,0.028c0.004-0.081,0.007-0.162,0.012-0.241c-0.114,0.08-0.228,0.162-0.343,0.242
			c0.014-0.196,0.03-0.391,0.042-0.586c-0.143,0.103-0.317,0.192-0.392,0.361c-0.073,0.174-0.114,0.361-0.202,0.529
			c0.058,0.01,0.116,0.019,0.174,0.027c0.006,0.035,0.02,0.104,0.026,0.139c-0.231-0.08-0.468-0.21-0.72-0.166
			c-0.266,0.047-0.524,0.134-0.783,0.209c0.15,0.744,0.279,1.51,0.632,2.191c0.504-0.082,0.996-0.22,1.478-0.383
			c-0.033,0.206-0.009,0.415,0.074,0.608c0.504,1.368,1.068,2.726,1.843,3.966c0.443-0.218,0.832-0.566,1.319-0.683
			c0.17,0.182,0.291,0.402,0.421,0.614c0.254,0.426,0.586,0.803,0.81,1.249c0.167,0.331,0.375,0.642,0.636,0.907
			c0.277,0.279,0.481,0.616,0.728,0.92c-0.178,0.184-0.367,0.357-0.57,0.514c-0.228,0.174-0.363,0.435-0.506,0.678
			c-0.248,0.359-0.631,0.591-0.939,0.894c0.504,0.584,1.081,1.098,1.63,1.639c0.351-0.295,0.651-0.641,0.924-1.007
			c0.516-0.148,0.797-0.647,1.162-1c0.28,0.144,0.477,0.395,0.727,0.582c0.347,0.266,0.66,0.586,1.062,0.774
			c0.257,0.124,0.495,0.281,0.727,0.446c0.402,0.283,0.852,0.494,1.225,0.817c0.19,0.163,0.406,0.292,0.632,0.398
			c0.398,0.185,0.763,0.44,1.183,0.573c0.826,0.233,1.609,0.589,2.41,0.894c-0.122,0.501-0.294,0.985-0.455,1.474
			c0.398,0.213,0.85,0.281,1.275,0.419c0.722,0.245,1.494,0.273,2.227,0.474c0.423,0.082,0.869,0.205,1.294,0.062
			c0.165-0.028,0.333-0.052,0.499-0.077c-0.094-0.092-0.186-0.183-0.281-0.274c0.069-0.037,0.139-0.074,0.207-0.109
			c-0.097,0.006-0.194,0.013-0.29,0.02c-0.032,0.068-0.063,0.136-0.093,0.205c0.064-0.385,0.085-0.775,0.114-1.164
			c0.745,0.055,1.493,0.125,2.239,0.068c0.402-0.031,0.802,0.075,1.202,0.027c0.372-0.058,0.748-0.074,1.124-0.057
			c0.009,0.471,0.086,0.935,0.155,1.4c0.795-0.05,1.575-0.218,2.364-0.321c0.655-0.044,1.272-0.286,1.9-0.458
			c0.199-0.067,0.428-0.09,0.581-0.245c-0.114-0.473-0.235-0.949-0.415-1.401c0.51-0.223,1.054-0.356,1.558-0.595
			c0.172-0.081,0.349-0.149,0.529-0.212c0.194,0.409,0.358,0.832,0.561,1.238c-0.191-0.237-0.344-0.503-0.558-0.722
			c0.057,0.249,0.158,0.483,0.268,0.712c-0.09-0.001-0.179-0.002-0.267-0.002c0.029,0.078,0.058,0.155,0.088,0.235
			c0.179-0.069,0.366-0.112,0.557-0.12c0.386-0.097,0.737-0.295,1.094-0.463c0.375-0.218,0.822-0.368,1.076-0.744
			c-0.252-0.358-0.413-0.768-0.635-1.143c0.527-0.489,1.198-0.783,1.737-1.257c0.262,0.281,0.473,0.605,0.701,0.914
			c0.086,0.095,0.196,0.271,0.346,0.185c0.615-0.308,1.075-0.834,1.608-1.252c0.542-0.353,0.928-0.883,1.414-1.299
			c0.199-0.17,0.43-0.333,0.522-0.588c0.005-0.165-0.129-0.294-0.232-0.409c-0.254-0.245-0.514-0.48-0.765-0.727
			c0.204-0.237,0.377-0.499,0.582-0.735c0.257-0.317,0.551-0.61,0.742-0.976c0.361,0.28,0.758,0.511,1.103,0.812
			c-0.112-0.055-0.226-0.105-0.339-0.156c-0.041,0.028-0.122,0.084-0.163,0.112c0.109,0.077,0.205,0.204,0.349,0.211
			c0.076-0.03,0.143-0.08,0.21-0.127c0.602-0.597,0.918-1.409,1.458-2.056c-0.285,0.568-0.683,1.068-1.001,1.617
			c-0.176,0.306-0.491,0.494-0.675,0.792c-0.33,0.494-0.724,0.938-1.094,1.401c-0.148,0.133-0.021,0.322,0.088,0.433
			c0.265,0.272,0.529,0.547,0.809,0.804c-0.241,0.323-0.565,0.565-0.824,0.871c-0.192,0.203-0.428,0.355-0.64,0.536
			c-0.207,0.229-0.389,0.487-0.642,0.67c-0.538,0.385-1.017,0.844-1.556,1.228c-0.067,0.012-0.121-0.007-0.16-0.058
			c-0.264-0.315-0.476-0.673-0.778-0.955c-0.271-0.107-0.461,0.159-0.659,0.294c-0.45,0.29-0.891,0.595-1.373,0.83
			c-0.124,0.035-0.153,0.168-0.09,0.271c0.195,0.404,0.387,0.812,0.644,1.181c-0.574,0.331-1.179,0.599-1.756,0.927
			c-0.138,0.053-0.286,0.17-0.436,0.134c-0.298-0.367-0.39-0.845-0.644-1.234c-0.362,0-0.65,0.246-0.984,0.348
			c-0.449,0.151-0.886,0.334-1.334,0.491c0.078,0.5,0.209,0.993,0.379,1.47c-0.742,0.218-1.491,0.417-2.238,0.62
			c-0.127,0.043-0.231-0.092-0.242-0.206c-0.062-0.402-0.155-0.799-0.258-1.192c-1.117,0.206-2.242,0.416-3.382,0.373
			c-0.677,0.132-1.366,0.043-2.051,0.074c-0.493,0.036-0.974-0.134-1.467-0.061c-0.15,0.036-0.28-0.133-0.423-0.04
			c-0.232,0.196-0.192,0.514-0.207,0.785c-0.034,0.244-0.075,0.488-0.128,0.729c-0.279,0.041-0.508-0.164-0.78-0.165
			c-0.53-0.001-1.035-0.181-1.554-0.258c-0.599-0.088-1.164-0.318-1.75-0.455c-0.297-0.034-0.583-0.121-0.862-0.227
			c0.157-0.492,0.387-0.971,0.408-1.494c0.098-0.477,0.351-0.92,0.362-1.416c-0.604-0.21-1.205-0.427-1.79-0.686
			c-0.099-0.038-0.2-0.102-0.31-0.081c-0.24,0.398-0.402,0.84-0.575,1.269c-0.421-0.102-0.779-0.363-1.177-0.523
			c-0.332-0.127-0.621-0.341-0.946-0.48c0.153-0.374,0.343-0.73,0.548-1.077c0.061-0.094,0.063-0.208,0.077-0.315
			c-0.462-0.263-0.92-0.533-1.353-0.84c-0.17-0.115-0.333-0.251-0.53-0.32c-0.112,0.047-0.167,0.166-0.245,0.254
			c-0.209,0.298-0.474,0.554-0.663,0.867c-0.291-0.228-0.6-0.433-0.879-0.674c-0.307-0.299-0.644-0.566-0.997-0.807
			c-0.157-0.02-0.233,0.141-0.328,0.233c-0.225,0.307-0.542,0.528-0.772,0.83c-0.585-0.586-1.177-1.166-1.757-1.758
			c0.301-0.284,0.638-0.529,0.939-0.814c0.069-0.077,0.144-0.17,0.129-0.28c-0.26-0.402-0.602-0.743-0.878-1.134
			c-0.179-0.251-0.409-0.462-0.549-0.739c0.324-0.344,0.776-0.539,1.073-0.907c-0.097-0.322-0.355-0.561-0.53-0.841
			c-0.218-0.349-0.428-0.704-0.677-1.033c-0.477,0.184-0.867,0.548-1.358,0.689c-0.519-0.954-1.022-1.919-1.42-2.932
			c-0.231-0.516-0.373-1.066-0.597-1.585c-0.44,0.163-0.906,0.239-1.351,0.39c-0.345-0.747-0.47-1.564-0.664-2.358
			c0.411-0.072,0.819-0.164,1.219-0.28c0.153-0.04,0.294-0.226,0.209-0.38c-0.173-0.687-0.216-1.402-0.343-2.097
			c0.489-0.061,0.982-0.087,1.466-0.184c0.002-0.199,0.01-0.399-0.029-0.594c-0.107-0.531,0.008-1.079-0.069-1.611
			c-0.024-0.022-0.071-0.066-0.095-0.088c-0.476-0.046-0.958-0.034-1.436-0.027c-0.001-0.811,0.003-1.624,0.119-2.427
			c0.09-0.243,0.135-0.497,0.131-0.756c0.108-0.493,0.156-0.994,0.273-1.486c0.063-0.16-0.069-0.286-0.192-0.365
			c-0.401-0.088-0.805-0.169-1.206-0.255c0.016-0.465,0.202-0.897,0.3-1.346c0.071-0.335,0.192-0.655,0.286-0.983
			c0.443,0.125,0.888,0.276,1.349,0.318c0.211-0.105,0.277-0.356,0.357-0.559c0.195-0.662,0.561-1.263,0.699-1.942
			c0.294-0.672,0.656-1.313,0.996-1.964c0.265,0.05,0.483,0.215,0.72,0.334c0.222,0.113,0.44,0.235,0.651,0.367
			C6.375,13.323,6.775,12.608,7.277,11.965z M3.858,16.61c-0.039,0.119,0.003,0.159,0.122,0.122
			C4.017,16.612,3.978,16.572,3.858,16.61z M4.078,16.903c-0.038,0.119,0.002,0.16,0.122,0.122
			C4.237,16.905,4.197,16.865,4.078,16.903z M2.1,20.284c-0.032,0.102,0.003,0.138,0.107,0.107
			C2.237,20.289,2.202,20.253,2.1,20.284z M1.977,20.486c-0.01,0.122,0,0.245,0.026,0.366c0.1-0.095,0.199-0.193,0.3-0.288
			C2.193,20.537,2.085,20.511,1.977,20.486z M2.319,20.713c-0.038,0.119,0.003,0.16,0.122,0.122
			C2.479,20.715,2.438,20.674,2.319,20.713z M1.898,21.19c0.038-0.031,0.076-0.062,0.113-0.094c0.107,0.045,0.211,0.092,0.317,0.138
			c-0.058-0.116-0.092-0.301-0.25-0.311C1.931,20.861,1.807,21.076,1.898,21.19z M2.537,20.932
			c-0.033,0.103,0.001,0.138,0.104,0.103C2.675,20.932,2.641,20.897,2.537,20.932z M1.884,21.335
			c-0.071,0.243-0.175,0.484-0.179,0.741c0.09,0.101,0.216,0.159,0.327,0.233c-0.075-0.199-0.143-0.401-0.195-0.608
			c0.107-0.01,0.322,0.036,0.322-0.126C2.218,21.397,2.002,21.379,1.884,21.335z M2.009,21.795c0.005,0.065,0.016,0.196,0.022,0.261
			c0.095-0.064,0.177-0.144,0.241-0.239C2.205,21.812,2.073,21.8,2.009,21.795z M2.573,27.817c-0.062-0.063-0.124-0.125-0.185-0.187
			c0.035-0.035,0.106-0.105,0.143-0.139c-0.268,0.035-0.534,0.079-0.801,0.107c0.001,0.194-0.002,0.389-0.01,0.584
			c0.124-0.102,0.247-0.205,0.37-0.307c-0.003,0.051-0.009,0.152-0.013,0.202c-0.091,0.065-0.182,0.129-0.273,0.194
			c-0.003,0.051-0.01,0.154-0.014,0.207c0.069-0.071,0.137-0.14,0.206-0.21c0.145,0.21,0.307,0.406,0.473,0.599
			c0.239-0.084,0.316-0.338,0.459-0.522c-0.085-0.064-0.169-0.129-0.254-0.192c0.022-0.294,0.172-0.539,0.384-0.736
			C2.803,27.403,2.684,27.632,2.573,27.817z M2.01,28.599c-0.137,0.304-0.146,0.641-0.062,0.96c0.037-0.021,0.111-0.063,0.148-0.084
			c-0.031-0.184-0.063-0.367-0.094-0.55c0.11,0.046,0.22,0.091,0.332,0.134C2.274,28.875,2.144,28.733,2.01,28.599z M3.157,30.341
			c0.107,0.041,0.215,0.08,0.323,0.12c-0.001-0.067-0.003-0.202-0.003-0.27C3.369,30.237,3.261,30.287,3.157,30.341z M2.941,30.506
			c0.035,0.145,0.133,0.251,0.258,0.327C3.191,30.663,3.139,30.51,2.941,30.506z M3.345,30.679
			c-0.038,0.119,0.003,0.159,0.122,0.121C3.505,30.681,3.465,30.64,3.345,30.679z M3.202,31.127
			c-0.106,0.071,0.006,0.263,0.116,0.177C3.421,31.233,3.31,31.04,3.202,31.127z M3.648,31.624c-0.126,0.027-0.09,0.243,0.042,0.201
			C3.817,31.798,3.783,31.579,3.648,31.624z M7.236,38.396c-0.078,0.067,0.032,0.208,0.115,0.145
			C7.428,38.474,7.319,38.334,7.236,38.396z M6.796,38.593c-0.082,0.1,0.096,0.2,0.159,0.1C7.038,38.592,6.858,38.494,6.796,38.593z
			 M6.139,38.921c0.219,0.34,0.491,0.643,0.724,0.974c0.05,0.002,0.148,0.007,0.198,0.01c-0.013-0.112-0.027-0.222-0.039-0.333
			c0.051,0.106,0.107,0.211,0.161,0.317c0.077,0.001,0.156,0.004,0.233,0.007c0.027-0.144,0.056-0.286,0.085-0.429
			c-0.033-0.02-0.098-0.062-0.131-0.083c-0.076-0.17-0.268-0.204-0.422-0.27c-0.057,0.041-0.114,0.082-0.17,0.124
			c-0.013-0.236-0.118-0.443-0.294-0.599C6.372,38.735,6.256,38.83,6.139,38.921z M7.505,39.097c0.023,0.04,0.072,0.119,0.096,0.16
			c0.132-0.056,0.264-0.111,0.394-0.169C7.834,39.02,7.666,39.055,7.505,39.097z M7.884,39.551
			c-0.128,0.026-0.092,0.245,0.043,0.197C8.055,39.722,8.016,39.505,7.884,39.551z M7.666,39.87
			c-0.006,0.037-0.019,0.112-0.026,0.149c-0.209-0.045-0.43-0.049-0.61,0.085c0.075,0.081,0.15,0.162,0.224,0.243
			c0.042-0.077,0.084-0.154,0.127-0.23c0.164,0.062,0.328,0.122,0.493,0.179c-0.021-0.114-0.044-0.227-0.065-0.34
			c0.101,0.054,0.201,0.11,0.302,0.165c-0.006-0.091-0.012-0.183-0.019-0.274C7.951,39.855,7.809,39.865,7.666,39.87z
			 M42.553,40.376c-0.078,0.065,0.027,0.209,0.112,0.148C42.741,40.457,42.636,40.313,42.553,40.376z M7.612,40.431
			c-0.068,0.022-0.171,0.1-0.128,0.182C7.607,40.711,7.832,40.407,7.612,40.431z M42.339,41.298
			c-0.029,0.102,0.007,0.138,0.11,0.105C42.479,41.299,42.442,41.264,42.339,41.298z M42.697,41.261
			c0.001,0.125,0.007,0.251,0.012,0.377c-0.109,0.133-0.215,0.269-0.323,0.403c0.024-0.126,0.05-0.25,0.076-0.374
			c-0.035-0.021-0.103-0.065-0.137-0.086c-0.069,0.243-0.086,0.497,0.074,0.709c0.069-0.016,0.139-0.031,0.209-0.045
			c-0.033,0.073-0.066,0.145-0.099,0.219c-0.237-0.08-0.578-0.048-0.669-0.339c-0.184,0.281-0.536,0.277-0.817,0.395
			c0.059,0.159,0.07,0.328,0.061,0.497c-0.236-0.021-0.516-0.119-0.705,0.079c0.094,0.005,0.189,0.011,0.284,0.014
			c0.149,0.087,0.288,0.19,0.441,0.272c-0.125-0.008-0.248-0.021-0.372-0.011c-0.089,0.094-0.155,0.208-0.225,0.316
			c-0.033,0.005-0.098,0.014-0.131,0.02c-0.033-0.161-0.082-0.35-0.276-0.372c-0.139-0.057-0.188,0.127-0.239,0.214
			c0.123-0.007,0.247-0.015,0.371-0.023c-0.094,0.154-0.193,0.305-0.296,0.454c-0.08,0.015-0.158,0.031-0.236,0.047
			c0.077-0.128,0.121-0.27,0.13-0.42c-0.317,0.117-0.542,0.381-0.835,0.541c0.061,0.075,0.123,0.149,0.185,0.226
			c0.113-0.145,0.224-0.289,0.331-0.438c0.065,0.114,0.131,0.227,0.199,0.341c-0.109-0.015-0.218-0.029-0.325-0.044
			c-0.046,0.084-0.092,0.169-0.137,0.255c0.207,0.219,0.39,0.458,0.568,0.702c0.55-0.432,1.074-0.898,1.638-1.314
			c-0.111-0.05-0.221-0.098-0.33-0.147c0.139-0.134,0.292-0.053,0.421,0.053c0.236-0.216,0.419-0.487,0.681-0.674
			c0.183-0.132,0.353-0.282,0.502-0.451c0.218-0.253,0.484-0.461,0.706-0.711C43.199,41.706,42.993,41.43,42.697,41.261z
			 M41.431,42.095c0.018,0.036,0.056,0.108,0.075,0.144c0.152-0.157,0.331-0.303,0.39-0.522
			C41.729,41.827,41.578,41.958,41.431,42.095z M9.982,41.837c-0.027,0.141-0.024,0.286,0.002,0.428
			c-0.096-0.04-0.193-0.079-0.29-0.116c0.188,0.179,0.273,0.546,0.591,0.495c-0.018,0.086-0.035,0.172-0.051,0.258
			c0.037,0.002,0.111,0.005,0.148,0.005c0.032-0.125,0.066-0.25,0.102-0.373c-0.107-0.002-0.214-0.003-0.321-0.004
			C10.216,42.278,10.122,42.042,9.982,41.837z M41.958,42.126c-0.033,0.103,0.003,0.138,0.106,0.108
			C42.096,42.131,42.06,42.096,41.958,42.126z M9.471,42.679c0.205,0.092,0.413,0.177,0.634,0.229
			c-0.072-0.208-0.271-0.299-0.454-0.384c0.005-0.085,0.009-0.17,0.012-0.254C9.503,42.351,9.463,42.508,9.471,42.679z
			 M10.901,42.833c-0.077,0.015-0.195,0.098-0.141,0.188C10.885,43.14,11.132,42.814,10.901,42.833z M10.158,42.995
			c-0.151,0.049,0.006,0.301,0.126,0.23C10.353,43.138,10.265,42.984,10.158,42.995z M10.334,43.408
			c0.125,0.004,0.252,0.011,0.377,0.001c0.048-0.072,0.088-0.148,0.121-0.228C10.646,43.206,10.463,43.263,10.334,43.408z
			 M11.336,43.192c-0.018,0.023-0.053,0.067-0.071,0.09C11.334,43.536,11.614,43.153,11.336,43.192z M10.637,43.506
			c-0.075,0.107,0.116,0.239,0.194,0.136C10.927,43.524,10.722,43.402,10.637,43.506z M10.859,43.757
			c0.092,0.067,0.184,0.134,0.277,0.201c0.004-0.143,0.007-0.285,0.01-0.428C11.051,43.607,10.956,43.683,10.859,43.757z
			 M38.297,44.05c-0.044,0.113,0.136,0.223,0.23,0.164C38.557,44.11,38.387,44.001,38.297,44.05z M14.131,44.687
			c-0.077,0.097,0.088,0.233,0.177,0.157C14.383,44.745,14.219,44.605,14.131,44.687z M14.775,44.755
			c-0.099-0.004-0.135,0.175-0.021,0.178C14.852,44.935,14.888,44.757,14.775,44.755z M37.049,45.042
			c-0.033,0.103,0,0.137,0.104,0.102C37.187,45.04,37.153,45.006,37.049,45.042z M13.516,45.344
			c0.002,0.045,0.007,0.132,0.009,0.177c0.121,0.055,0.241,0.112,0.359,0.17c0.111-0.129,0.201-0.275,0.25-0.439
			C13.919,45.164,13.711,45.256,13.516,45.344z M15.721,45.265c-0.129,0.027-0.085,0.247,0.048,0.197
			C15.896,45.431,15.852,45.219,15.721,45.265z M14.606,45.4c-0.006,0.108-0.01,0.217-0.017,0.327
			c-0.068,0.074-0.137,0.149-0.205,0.225c0.126,0.057,0.252,0.116,0.377,0.177c-0.022-0.102-0.046-0.205-0.067-0.306
			c0.045,0.012,0.135,0.038,0.179,0.051c0.027,0.12,0.055,0.239,0.084,0.36c0.09,0.037,0.181,0.075,0.271,0.113
			c-0.031-0.216-0.143-0.4-0.27-0.571c0.073,0.032,0.146,0.067,0.218,0.101c0.082-0.071,0.166-0.142,0.25-0.212
			c-0.047,0.11-0.097,0.219-0.146,0.33c0.055,0.075,0.109,0.15,0.164,0.227c0.061-0.158,0.224-0.323,0.171-0.496
			C15.351,45.463,14.936,45.522,14.606,45.4z M14.065,45.706c-0.077,0.095,0.081,0.236,0.172,0.163
			C14.317,45.773,14.155,45.626,14.065,45.706z M36.541,45.71c-0.238,0.149-0.459,0.323-0.62,0.556
			c-0.111,0.17-0.273-0.008-0.393-0.066c0.012,0.103,0.024,0.206,0.035,0.31c-0.124-0.035-0.247-0.071-0.37-0.107
			c0.075,0.08,0.154,0.159,0.222,0.246c0.104,0.109,0.022,0.275-0.014,0.398c-0.086,0.051-0.177,0.09-0.265,0.133
			c0.074-0.118,0.149-0.236,0.222-0.354c-0.111,0.026-0.221,0.054-0.33,0.082c-0.028-0.099-0.062-0.195-0.098-0.291
			c-0.055,0.034-0.109,0.069-0.163,0.104c0.092,0.24,0.195,0.475,0.304,0.708c0.098-0.069,0.194-0.138,0.294-0.206
			c-0.07,0.102-0.146,0.2-0.202,0.312c0.035,0.095,0.084,0.182,0.128,0.274c0.578-0.223,1.1-0.564,1.66-0.825
			c0.003-0.084,0.007-0.167,0.01-0.25c0.075,0.041,0.139,0.115,0.229,0.122c0.083,0.026,0.169-0.116,0.111-0.182
			c-0.177-0.318-0.354-0.635-0.495-0.969c-0.022,0.023-0.065,0.069-0.089,0.092C36.659,45.768,36.6,45.738,36.541,45.71z
			 M33.494,46.401c-0.033,0.18-0.012,0.365-0.015,0.548c0.117-0.04,0.236-0.08,0.354-0.117c-0.041-0.132-0.08-0.264-0.122-0.395
			c0.056-0.037,0.112-0.074,0.167-0.111c0.005-0.093,0.009-0.186,0.014-0.278C33.757,46.161,33.605,46.261,33.494,46.401z
			 M32.928,46.657c0.036,0.168,0.073,0.336,0.104,0.505c0.071-0.18,0.168-0.346,0.283-0.501
			C33.185,46.661,33.057,46.659,32.928,46.657z M17.792,47.651c-0.135,0.396-0.232,0.805-0.389,1.193
			c0.196,0.079,0.394,0.154,0.6,0.197c0.764,0.127,1.481,0.456,2.255,0.535c0.549,0.138,1.108,0.231,1.671,0.291
			c0.009-0.123,0.018-0.245,0.027-0.366c0.09-0.004,0.18-0.009,0.271-0.012c-0.018,0.145-0.247,0.393-0.032,0.471
			c0.058-0.121,0.148-0.243,0.127-0.384c-0.005-0.168-0.186-0.23-0.292-0.329c-0.005-0.047-0.016-0.142-0.022-0.189
			c0.131,0.071,0.262,0.144,0.393,0.216c-0.006-0.084-0.013-0.168-0.02-0.252c-0.118-0.032-0.228-0.079-0.337-0.131
			c0.116-0.018,0.238-0.016,0.345-0.067c-0.008-0.125-0.068-0.237-0.154-0.324c-0.142,0.062-0.183,0.221-0.256,0.345
			c-0.04-0.097-0.078-0.194-0.118-0.289c-0.317-0.018-0.623-0.11-0.918-0.222c-0.039,0.071-0.079,0.142-0.117,0.213
			c-0.073-0.066-0.146-0.131-0.218-0.196c-0.063,0.032-0.128,0.064-0.192,0.098c-0.075-0.053-0.148-0.105-0.224-0.156
			c-0.145-0.032-0.284-0.086-0.419-0.146c-0.304-0.142-0.658-0.081-0.964-0.217C18.487,47.792,18.151,47.662,17.792,47.651z
			 M23.036,48.127c0.233-0.019,0.393-0.181,0.472-0.391C23.336,47.846,23.179,47.979,23.036,48.127z M31.931,47.74
			c-0.084-0.011-0.203,0.126-0.081,0.167C31.993,47.985,32.146,47.721,31.931,47.74z M24.237,47.827
			c-0.086,0.109,0.105,0.222,0.178,0.117C24.501,47.834,24.309,47.722,24.237,47.827z M23.796,47.889
			c-0.078,0.014-0.195,0.098-0.141,0.187C23.78,48.196,24.029,47.869,23.796,47.889z M24.924,47.926
			c-0.123,0.247-0.392,0.251-0.629,0.2c-0.029,0.093-0.059,0.186-0.088,0.281c0.156,0.045,0.304,0.001,0.443-0.067
			c0.023,0.071,0.04,0.144,0.058,0.217c0.302,0.013,0.603,0.01,0.905-0.005c-0.035-0.206-0.071-0.411-0.107-0.615
			c-0.082,0.085-0.162,0.171-0.242,0.259C25.128,48.136,25.06,47.965,24.924,47.926z M31.486,47.926
			c-0.057,0.092,0.103,0.173,0.161,0.093C31.702,47.927,31.542,47.847,31.486,47.926z M30.865,47.935
			c-0.073,0.237-0.105,0.497-0.287,0.685c-0.028-0.017-0.085-0.05-0.113-0.067c0.09-0.159,0.171-0.333,0.015-0.48
			c-0.009,0.06-0.03,0.18-0.041,0.24c-0.129-0.097-0.277-0.174-0.434-0.087c0.113,0.372,0.205,0.753,0.23,1.142
			c0.04-0.084,0.08-0.168,0.12-0.251c0.026,0.128,0.047,0.257,0.063,0.387c0.715-0.23,1.452-0.392,2.17-0.619
			c-0.018-0.335-0.373-0.42-0.609-0.572c0.019-0.027,0.057-0.08,0.075-0.108c0.073,0.01,0.148,0.021,0.221,0.031
			c0-0.045,0-0.134,0-0.179c-0.165,0.002-0.33-0.001-0.494-0.007c-0.131,0.212-0.253,0.437-0.444,0.603
			c0.014-0.171,0.034-0.341,0.046-0.512c-0.073,0.084-0.139,0.174-0.201,0.267c-0.122-0.151-0.012-0.311,0.066-0.454
			C31.12,47.948,30.992,47.941,30.865,47.935z M23.219,48.193c-0.017,0.041-0.052,0.122-0.07,0.163
			c-0.066,0.041-0.131,0.084-0.196,0.127c0.153,0.001,0.306,0.002,0.459,0.003c-0.003-0.104-0.005-0.207-0.005-0.31
			C23.359,48.179,23.266,48.188,23.219,48.193z M23.837,48.151c0.027,0.194,0.138,0.348,0.328,0.409
			C24.098,48.394,24.011,48.226,23.837,48.151z M25.838,48.2c-0.099-0.003-0.134,0.175-0.02,0.178
			C25.916,48.38,25.951,48.202,25.838,48.2z M26.598,48.274c-0.012,0.052-0.034,0.157-0.046,0.209
			c0.231,0.007,0.461,0.008,0.692-0.006C27.047,48.359,26.833,48.259,26.598,48.274z M23.641,48.341
			c-0.038,0.119,0.003,0.159,0.122,0.121C23.801,48.342,23.761,48.301,23.641,48.341z"/>
	</g>
	<path fill="#646364" d="M11.528,11.92c0.122-0.18,0.242-0.379,0.453-0.464C11.831,11.612,11.68,11.766,11.528,11.92z"/>
	<path fill="#646364" d="M45.65,11.561c0.095-0.066,0.289,0.056,0.23,0.171C45.782,11.804,45.599,11.673,45.65,11.561z"/>
	<path fill="#646364" d="M11.2,12.279c-0.077-0.13,0.117-0.366,0.258-0.281C11.377,12.096,11.316,12.219,11.2,12.279z"/>
	<g>
		<path fill="#646364" d="M38.79,12.274c0.329,0.234,0.563,0.569,0.818,0.877c1.486,1.799,2.637,3.882,3.33,6.113
			c0.162,0.53,0.351,1.056,0.451,1.603c0.128,0.685,0.29,1.365,0.35,2.061c0.008,0.224-0.048,0.45-0.001,0.674
			c0.078,0.445,0.035,0.899,0.042,1.349c-0.432,0.137-0.887,0.041-1.329,0.055c0.198-0.029,0.397-0.041,0.597-0.055
			c0.05-0.181,0.096-0.363,0.135-0.545c0.138-0.05,0.276-0.101,0.414-0.155c-0.226-0.103-0.47-0.136-0.705-0.048
			c0.024-0.072,0.048-0.145,0.074-0.217c0.088-0.029,0.176-0.059,0.265-0.086c-0.044-0.186-0.085-0.373-0.123-0.56
			c0.094,0.037,0.188,0.076,0.283,0.113c0.07-0.124,0.155-0.238,0.254-0.34c0.037-0.187,0.028-0.38-0.002-0.566
			c-0.203-1.26-0.456-2.52-0.904-3.719C41.922,16.386,40.5,14.182,38.79,12.274z M43.28,24.743
			c-0.039,0.119,0.001,0.159,0.122,0.122C43.439,24.745,43.397,24.705,43.28,24.743z"/>
	</g>
	<g>
		<path fill="#646364" d="M9.877,13.82c0.406-0.448,0.749-0.95,1.17-1.385c0.015,0.11,0.029,0.22,0.043,0.329
			c-0.091,0.008-0.179,0.015-0.269,0.023c0.026,0.239,0.061,0.477,0.118,0.711c-0.279,0.055-0.559,0.106-0.84,0.146
			c0.161,0.11,0.328,0.213,0.495,0.313c-0.148-0.011-0.296-0.03-0.445-0.023c-0.097,0.133-0.114,0.302-0.156,0.456
			c-0.12,0.035-0.239,0.068-0.36,0.103c0.1,0.13,0.199,0.261,0.298,0.392c-0.211,0.101-0.417,0.21-0.616,0.331
			c0.005,0.087,0.01,0.174,0.015,0.262c-0.143-0.032-0.285-0.066-0.428-0.099c0.056,0.109,0.113,0.219,0.167,0.329
			c-0.129-0.027-0.259-0.056-0.388-0.083c0.15-0.188,0.3-0.378,0.406-0.596c0.17-0.373,0.427-0.697,0.7-0.999
			c-0.033,0.069-0.065,0.138-0.096,0.208c0.045,0.025,0.138,0.072,0.183,0.096c0.001-0.138,0.003-0.276,0.001-0.415
			C9.876,13.894,9.877,13.845,9.877,13.82z M10.683,13.32c-0.079,0.097,0.09,0.208,0.161,0.117
			C10.92,13.342,10.753,13.229,10.683,13.32z M9.599,14.775c-0.069,0.088,0.085,0.182,0.144,0.096
			C9.814,14.782,9.658,14.69,9.599,14.775z"/>
	</g>
	<path fill="#646364" d="M9.212,15.696c0.086-0.064,0.215,0.079,0.152,0.162C9.274,15.927,9.144,15.781,9.212,15.696z"/>
	<path fill="#646364" d="M7.805,17.253c0.149-0.326,0.273-0.674,0.517-0.944c-1.241,2.382-1.964,5.026-2.126,7.706
		c-0.024-1.244,0.256-2.469,0.523-3.677C7.002,19.285,7.357,18.249,7.805,17.253z"/>
	<path fill="#646364" d="M3.05,17.14c0.103-0.031,0.137,0.004,0.106,0.107C3.054,17.279,3.017,17.243,3.05,17.14z"/>
	<path fill="#646364" d="M48.152,18.281c0.119-0.084,0.251-0.152,0.383-0.213c0.022,0.037,0.066,0.109,0.088,0.146
		C48.467,18.243,48.309,18.267,48.152,18.281z"/>
	<path fill="#646364" d="M47.855,18.654c0.06-0.097,0.141-0.176,0.229-0.248c0.026,0.045,0.08,0.136,0.107,0.181
		C48.079,18.612,47.966,18.634,47.855,18.654z"/>
	<path fill="#646364" d="M1.731,18.899c0.102-0.032,0.137,0.004,0.107,0.106C1.735,19.037,1.699,19.002,1.731,18.899z"/>
	<g>
		<path fill="#646364" d="M48.234,21.314l0.045-0.015c0.07,0.439,0.116,0.882,0.161,1.325c-0.496,0.014-0.972,0.191-1.47,0.175
			c0,0.372-0.026,0.747,0.026,1.117c0.077,0.376,0.031,0.763,0.046,1.143c0.49,0.018,0.988-0.044,1.468,0.083
			c-0.031,0.523,0.049,1.055-0.064,1.573c-0.034,0.248,0.006,0.5-0.032,0.747c-0.506,0.079-1.005-0.124-1.514-0.056
			c0.015,0.356-0.087,0.699-0.09,1.053c-0.06,0.374-0.184,0.737-0.218,1.117c0.449,0.149,0.927,0.198,1.37,0.37
			c-0.464-0.071-0.916-0.203-1.379-0.281c-0.065-0.583,0.152-1.14,0.194-1.716c0.03-0.445,0.233-0.86,0.228-1.309
			c-0.005-0.509,0.114-1.023-0.014-1.525c-0.122-0.51-0.014-1.034-0.069-1.549c-0.029-0.268-0.062-0.535-0.074-0.805
			c0.512-0.101,1.038-0.099,1.55-0.201C48.337,22.145,48.305,21.727,48.234,21.314z M48.259,26.428
			c-0.097,0.05-0.098,0.099-0.003,0.148C48.354,26.526,48.354,26.476,48.259,26.428z M48.069,26.864
			c-0.075,0.097,0.095,0.205,0.163,0.114C48.307,26.878,48.136,26.771,48.069,26.864z"/>
	</g>
	<path fill="#646364" d="M6.119,24.507c-0.003-0.129,0.025-0.255,0.065-0.376c-0.099,2.649,0.313,5.327,1.294,7.795
		c0.352,0.847,0.714,1.697,1.217,2.467c0.027,0.01,0.081,0.027,0.109,0.036c0.423-0.17,0.819-0.405,1.236-0.594
		c0.22,0.485,0.605,0.874,0.82,1.36c-0.253,0.234-0.538,0.43-0.801,0.653c-0.071,0.039-0.141,0.077-0.213,0.115
		c0.01-0.046,0.027-0.138,0.037-0.183c0.335-0.146,0.625-0.368,0.913-0.588c-0.253-0.423-0.528-0.833-0.796-1.247
		c-0.296,0.123-0.592,0.248-0.882,0.386c0.078,0.112,0.154,0.226,0.228,0.34c-0.023,0.164-0.136,0.377,0.027,0.502
		c0.233,0.162,0.508,0.255,0.738,0.424c-0.184,0.003-0.366-0.027-0.544-0.078c0.099,0.207,0.171,0.426,0.237,0.645
		c-0.224-0.279-0.457-0.559-0.6-0.89c-0.113-0.274-0.372-0.456-0.472-0.737c0.143,0.06,0.293,0.099,0.445,0.132
		c-0.137-0.113-0.3-0.189-0.481-0.19l-0.046-0.004c-0.318-0.602-0.68-1.183-0.924-1.82c-0.72-1.588-1.166-3.29-1.431-5.009
		C6.199,26.6,6.103,25.556,6.119,24.507z"/>
	<path fill="#646364" d="M2.325,27.778c0.073,0.085,0.15,0.181,0.133,0.301c-0.078,0.043-0.155,0.083-0.235,0.122
		C2.253,28.058,2.285,27.917,2.325,27.778z"/>
	<g>
		<path fill="#646364" d="M41.901,28.628c0.031-0.21,0.071-0.416,0.113-0.623c-0.003,0.188-0.022,0.374-0.05,0.56
			c0.466,0.21,0.99,0.223,1.458,0.426c-0.124,0.721-0.301,1.437-0.598,2.107c-0.302,0.812-0.555,1.649-0.961,2.419
			c-0.226,0.491-0.517,0.947-0.773,1.423c-0.083,0.155-0.189,0.299-0.325,0.414c0.469-0.732,0.875-1.502,1.258-2.28
			c0.061-0.135,0.097-0.279,0.133-0.42c-0.445-0.177-0.854-0.427-1.287-0.629c0.24-0.501,0.434-1.022,0.604-1.55
			c0.462,0.161,0.936,0.296,1.418,0.391c0.186-0.604,0.363-1.21,0.493-1.829C42.906,28.846,42.393,28.773,41.901,28.628z
			 M41.515,30.584c-0.183,0.462-0.367,0.925-0.528,1.394c0.323,0.253,0.725,0.424,1.143,0.364c-0.059-0.099-0.167-0.136-0.266-0.177
			c0.198-0.24,0.532-0.288,0.725-0.526c-0.124,0.01-0.247,0.024-0.37,0.036c0.053-0.094,0.107-0.187,0.162-0.281
			c0.084,0.052,0.169,0.104,0.255,0.156c-0.035-0.093-0.071-0.184-0.105-0.277c-0.116,0.045-0.232,0.088-0.347,0.129
			c-0.02-0.126-0.039-0.251-0.056-0.377c-0.093,0.019-0.184,0.038-0.275,0.057c0.016-0.034,0.052-0.103,0.069-0.136
			c0.141-0.053,0.281-0.111,0.419-0.174C42.067,30.703,41.79,30.646,41.515,30.584z M42.329,30.981
			c-0.105,0.072,0.008,0.263,0.117,0.177C42.55,31.085,42.437,30.893,42.329,30.981z"/>
	</g>
	<g>
		<path fill="#646364" d="M48.067,29.964l0.007,0.071c0.005,0.387,0.169,0.743,0.421,1.032c-0.083,0.061-0.165,0.128-0.257,0.177
			c-0.131-0.019-0.254-0.064-0.379-0.103c-0.041,0.175-0.082,0.35-0.124,0.526c0.054,0.012,0.163,0.037,0.218,0.05
			c-0.201,0.155-0.374,0.345-0.477,0.58l-0.046,0.029c-0.222,0.139-0.46,0.247-0.702,0.343c0.126,0.098,0.251,0.195,0.377,0.293
			c-0.183,0.123-0.368,0.242-0.557,0.356c0.122,0.003,0.245,0.003,0.366,0.012c-0.026,0.167-0.21,0.219-0.328,0.311
			c0.071,0.22,0.115,0.455,0.041,0.68c-0.036,0.111-0.084,0.217-0.126,0.326c0.117,0.069,0.237,0.133,0.353,0.205
			c0.109,0.068,0.215,0.142,0.32,0.217c-0.255,0.104-0.453-0.097-0.637-0.24c0.087,0.246,0.183,0.488,0.277,0.732
			c0.073-0.036,0.146-0.072,0.22-0.107c-0.014,0.043-0.041,0.128-0.054,0.17c-0.114,0.029-0.228,0.059-0.341,0.091
			c-0.027-0.208-0.064-0.414-0.108-0.62c-0.158,0.217-0.294,0.45-0.396,0.698c0.082,0.149,0.161,0.3,0.239,0.452
			c-0.073,0.154-0.137,0.313-0.197,0.473c-0.116-0.042-0.229-0.089-0.349-0.11c-0.137,0.028-0.254,0.11-0.368,0.186
			c0.097-0.121,0.188-0.248,0.268-0.382c0.075,0,0.152-0.002,0.227-0.005c-0.012-0.083-0.064-0.152-0.106-0.221
			c0.191-0.399,0.368-0.805,0.571-1.197c0.056-0.125,0.158-0.339-0.025-0.406c-0.392-0.224-0.82-0.38-1.234-0.559
			c0.11-0.378,0.282-0.734,0.436-1.096c0.121-0.28,0.14-0.605,0.325-0.855c0.065-0.12,0.209-0.077,0.319-0.063
			c0.402,0.076,0.77,0.284,1.185,0.295C47.739,31.554,47.856,30.744,48.067,29.964z M48.116,30.972
			c-0.039,0.119,0.002,0.16,0.122,0.122C48.275,30.974,48.235,30.933,48.116,30.972z M45.916,33.155
			c0.04,0.002,0.12,0.006,0.161,0.008c0.041-0.334,0.203-0.676,0.066-1.008C45.988,32.467,46.049,32.834,45.916,33.155z
			 M46.504,32.301c-0.101-0.005-0.135,0.173-0.022,0.177C46.581,32.483,46.616,32.306,46.504,32.301z M46.808,32.294
			c-0.077,0.096,0.09,0.209,0.16,0.116C47.042,32.313,46.878,32.2,46.808,32.294z M45.773,33.111
			c-0.097,0.015-0.142,0.158-0.071,0.226C45.832,33.408,45.92,33.126,45.773,33.111z M45.847,33.472
			c-0.105,0.072,0.007,0.264,0.117,0.178C46.068,33.577,45.956,33.385,45.847,33.472z M46.17,33.569
			c0.103,0.036,0.208,0.072,0.311,0.108c0.027-0.082,0.056-0.164,0.084-0.245C46.423,33.448,46.282,33.478,46.17,33.569z
			 M45.624,33.683c-0.039,0.119,0.003,0.159,0.122,0.122C45.784,33.685,45.744,33.645,45.624,33.683z M46.289,34.216
			c-0.107,0.096,0.056,0.269,0.155,0.158C46.55,34.279,46.386,34.106,46.289,34.216z"/>
	</g>
	<path fill="#646364" d="M2.536,30.997c0.088-0.07,0.182,0.085,0.096,0.144C2.542,31.212,2.451,31.055,2.536,30.997z"/>
	<path fill="#646364" d="M2.184,31.053c0.097-0.077,0.206,0.092,0.114,0.163C2.203,31.289,2.091,31.122,2.184,31.053z"/>
	<path fill="#646364" d="M41.6,31.345c0.058-0.087,0.117-0.173,0.177-0.259c0.01,0.099,0.022,0.199,0.033,0.298
		c0.061-0.022,0.123-0.042,0.186-0.062c-0.001,0.027-0.004,0.081-0.006,0.107c0.056,0.064,0.128,0.11,0.206,0.144
		c-0.056,0.014-0.169,0.043-0.224,0.058c0.003,0.041,0.012,0.124,0.016,0.165C41.876,31.632,41.75,31.478,41.6,31.345z"/>
	<path fill="#646364" d="M48.555,31.264c0.102-0.034,0.137,0,0.103,0.103C48.554,31.401,48.52,31.367,48.555,31.264z"/>
	<path fill="#646364" d="M2.623,31.341c0.062-0.1,0.243-0.006,0.16,0.097C2.722,31.539,2.54,31.443,2.623,31.341z"/>
	<path fill="#646364" d="M2.322,31.441c0.144-0.077,0.192,0.214,0.045,0.224C2.264,31.653,2.253,31.498,2.322,31.441z"/>
	<path fill="#646364" d="M9.866,34.935c0.122,0,0.105,0.201-0.009,0.2C9.734,35.133,9.751,34.933,9.866,34.935z"/>
	<path fill="#646364" d="M47.19,35.218c0.083-0.07,0.131-0.051,0.143,0.054C47.248,35.341,47.201,35.322,47.19,35.218z"/>
	<path fill="#646364" d="M39.803,36.684c0.304-0.417,0.617-0.826,0.909-1.252c-0.068,0.189-0.171,0.362-0.294,0.522
		C40.221,36.204,40.067,36.495,39.803,36.684z"/>
	<path fill="#646364" d="M46.97,36.245c0.084-0.07,0.131-0.051,0.143,0.055C47.027,36.368,46.98,36.349,46.97,36.245z"/>
	<path fill="#646364" d="M10.089,36.534c0.086,0.073,0.158,0.16,0.21,0.261C10.169,36.875,9.985,36.643,10.089,36.534z"/>
	<path fill="#646364" d="M39.523,37.015c0.052-0.101,0.127-0.185,0.212-0.259C39.838,36.867,39.651,37.097,39.523,37.015z"/>
	<path fill="#646364" d="M10.356,36.879c0.271,0.325,0.568,0.631,0.833,0.963C10.844,37.59,10.563,37.251,10.356,36.879z"/>
	<path fill="#646364" d="M45.951,36.995c0.073-0.07,0.247-0.077,0.29,0.03C46.213,37.152,45.911,37.141,45.951,36.995z"/>
	<path fill="#646364" d="M37.181,39.392c0.822-0.702,1.577-1.479,2.287-2.293c-0.301,0.518-0.756,0.922-1.173,1.345
		C37.949,38.786,37.622,39.167,37.181,39.392z"/>
	<path fill="#646364" d="M11.311,37.988c0.124,0.129,0.251,0.256,0.375,0.386C11.511,38.302,11.371,38.17,11.311,37.988z"/>
	<path fill="#646364" d="M12.056,38.71c0.245,0.174,0.448,0.396,0.657,0.609C12.437,39.189,12.236,38.949,12.056,38.71z"/>
	<g>
		<path fill="#646364" d="M33.745,40.014c0.48-0.239,0.934-0.526,1.372-0.837c0.321,0.344,0.58,0.739,0.887,1.093
			c0.396-0.234,0.744-0.537,1.105-0.82c-0.205,0.285-0.505,0.475-0.781,0.683c-0.67,0.492-1.417,0.869-2.085,1.364
			c-0.452,0.273-0.928,0.502-1.407,0.72c0.474-0.375,1.124-0.484,1.544-0.924C34.209,40.849,33.942,40.449,33.745,40.014z
			 M33.817,40.059c0.198,0.299,0.307,0.651,0.53,0.933c0.124,0.035,0.221-0.067,0.322-0.118c-0.163-0.238,0.065-0.437,0.185-0.63
			c0.206-0.015,0.411-0.039,0.616-0.05c-0.069,0.139-0.233,0.15-0.363,0.196c0.086,0.092,0.168,0.189,0.246,0.288
			c0.119-0.211,0.277-0.402,0.369-0.627c-0.16-0.297-0.407-0.53-0.614-0.792C34.702,39.561,34.26,39.812,33.817,40.059z
			 M34.78,40.504c-0.099,0.062-0.001,0.242,0.101,0.16C34.98,40.601,34.882,40.421,34.78,40.504z"/>
	</g>
	<path fill="#646364" d="M7.1,39.331c0.092,0.011,0.183,0.028,0.271,0.053c-0.031,0.065-0.052,0.168-0.138,0.177
		C7.144,39.523,7.133,39.411,7.1,39.331z"/>
	<path fill="#646364" d="M6.801,39.418c0.109-0.084,0.194,0.067,0.222,0.155C6.924,39.624,6.71,39.552,6.801,39.418z"/>
	<path fill="#646364" d="M12.784,39.377c0.333,0.233,0.643,0.497,0.944,0.768C13.365,39.958,13.061,39.672,12.784,39.377z"/>
	<path fill="#646364" d="M14.794,39.542c0.102-0.032,0.138,0.004,0.107,0.107C14.798,39.68,14.762,39.645,14.794,39.542z"/>
	<g>
		<path fill="#646364" d="M14.334,39.855c0.233,0.066,0.472,0.025,0.691-0.066c-0.113,0.162-0.227,0.324-0.342,0.485
			c0.254,0.113,0.5,0.242,0.748,0.368c-0.074-0.1-0.149-0.198-0.224-0.297c0.111-0.051,0.222-0.103,0.333-0.155
			c0.018,0.089,0.036,0.178,0.054,0.268c0.065-0.004,0.13-0.009,0.194-0.013c-0.069,0.306-0.134,0.613-0.215,0.916
			c-0.207-0.203-0.495-0.281-0.725-0.446c-0.316-0.229-0.679-0.395-0.952-0.68c0.163,0.021,0.326,0.047,0.488,0.08
			C14.345,40.164,14.305,40.009,14.334,39.855z M14.628,40.435c-0.114-0.002-0.135,0.198-0.012,0.2
			C14.73,40.636,14.749,40.436,14.628,40.435z"/>
	</g>
	<path fill="#646364" d="M35.143,39.909c0.12-0.039,0.16,0.002,0.122,0.121C35.146,40.068,35.105,40.028,35.143,39.909z"/>
	<path fill="#646364" d="M32.085,41.714c0.122,0.106,0.243,0.213,0.363,0.323c-0.16-0.018-0.318-0.038-0.476-0.063
		C32.009,41.887,32.047,41.8,32.085,41.714z"/>
	<path fill="#646364" d="M42.843,41.92c0.143-0.078,0.192,0.213,0.045,0.224C42.785,42.131,42.772,41.977,42.843,41.92z"/>
	<path fill="#646364" d="M7.776,42.241c0.149-0.121,0.311-0.224,0.483-0.308c-0.031,0.098-0.015,0.232-0.112,0.298
		C8.024,42.247,7.898,42.241,7.776,42.241z"/>
	<path fill="#646364" d="M32.248,42.148c0.143,0.005,0.283,0.047,0.425,0.065c-0.534,0.373-1.185,0.475-1.78,0.711
		c-0.063-0.231-0.121-0.463-0.181-0.694c0.101,0.082,0.198,0.174,0.311,0.242c0.11-0.059,0.208-0.14,0.324-0.188
		c0.128-0.009,0.256,0.011,0.384,0.022c0.003,0.097,0.006,0.195,0.01,0.292C31.957,42.505,32.102,42.324,32.248,42.148z"/>
	<path fill="#646364" d="M8.475,42.147c0.08,0.127,0.16,0.254,0.238,0.382c-0.084-0.027-0.167-0.054-0.251-0.08
		C8.466,42.348,8.471,42.247,8.475,42.147z"/>
	<path fill="#646364" d="M7.898,42.463c0.212-0.018,0.065,0.248-0.079,0.166C7.698,42.587,7.813,42.45,7.898,42.463z"/>
	<path fill="#646364" d="M41.485,42.558c0.137-0.031,0.275-0.063,0.412-0.092c-0.063,0.078-0.128,0.155-0.192,0.233
		c-0.009,0.044-0.03,0.128-0.041,0.171C41.609,42.764,41.548,42.66,41.485,42.558z"/>
	<path fill="#646364" d="M41.448,42.915c0.119-0.039,0.159,0.002,0.122,0.122C41.45,43.075,41.409,43.034,41.448,42.915z"/>
	<path fill="#646364" d="M23.725,43.836c0.779,0.054,1.561,0.042,2.34,0.03c-0.124,0.036-0.251,0.061-0.38,0.06
		c-0.659-0.001-1.318-0.004-1.976-0.024L23.725,43.836z"/>
	<path fill="#646364" d="M40.285,43.944c0.061-0.1,0.241-0.002,0.158,0.1C40.381,44.144,40.202,44.045,40.285,43.944z"/>
	<path fill="#646364" d="M39.98,44.085c0.094,0.048,0.094,0.098-0.002,0.148C39.883,44.184,39.884,44.134,39.98,44.085z"/>
	<path fill="#646364" d="M40.126,44.317c0.113,0.002,0.078,0.18-0.02,0.177C39.993,44.492,40.027,44.313,40.126,44.317z"/>
	<path fill="#646364" d="M35.888,46.805c0.158-0.07,0.112,0.209-0.017,0.197C35.767,46.984,35.82,46.836,35.888,46.805z"/>
	<path fill="#646364" d="M17.862,47.975c0.071-0.106,0.264,0.006,0.177,0.116C17.968,48.195,17.775,48.082,17.862,47.975z"/>
	<path fill="#646364" d="M19.483,48.189c0.103-0.033,0.139,0.003,0.107,0.106C19.488,48.326,19.452,48.291,19.483,48.189z"/>
	<path fill="#646364" d="M30.158,48.284c0.149,0.072,0.24,0.19,0.226,0.363C30.213,48.607,30.201,48.422,30.158,48.284z"/>
	<path fill="#646364" d="M18.437,48.649c0.102-0.032,0.137,0.003,0.107,0.106C18.441,48.786,18.405,48.751,18.437,48.649z"/>
	<path fill="#646364" d="M20.201,48.653c0.135-0.01,0.271-0.024,0.407-0.037l0.007,0.051c-0.077,0.021-0.154,0.043-0.231,0.067
		c-0.035,0.13-0.073,0.264-0.173,0.362C20.202,48.947,20.201,48.8,20.201,48.653z"/>
	<path fill="#646364" d="M21.103,48.773c0.068-0.092,0.237,0.018,0.162,0.115C21.196,48.979,21.028,48.869,21.103,48.773z"/>
	<path fill="#646364" d="M20.82,49.26c0.099-0.048,0.198-0.096,0.298-0.145c0.036,0.103,0.072,0.207,0.109,0.312
		C21.091,49.371,20.954,49.316,20.82,49.26z"/>
	<g>
		<path fill="#FFFFFF" d="M25.085,1.487c0.795-0.013,1.601-0.011,2.387,0.131c0.012,0.021,0.039,0.064,0.052,0.086
			c-0.086,0.476-0.109,0.959-0.073,1.44c0.198-0.052,0.393-0.118,0.587-0.184c-0.049,0.087-0.099,0.174-0.148,0.261
			c0.221-0.023,0.439-0.073,0.636-0.177c-0.016,0.068-0.033,0.136-0.048,0.204c0.236,0.032,0.472,0.069,0.707,0.102
			c0.063-0.078,0.128-0.155,0.192-0.233c0.06,0.071,0.12,0.142,0.179,0.213c0.009-0.468,0.181-0.906,0.369-1.327l0.06,0.002
			c0.77,0.156,1.55,0.309,2.276,0.616c0.015,0.026,0.046,0.077,0.061,0.103C32.198,3.18,32.05,3.628,31.914,4.08
			c0.294,0.102,0.596,0.174,0.897,0.252c0.383,0.098,0.692,0.37,1.071,0.479c0.339-0.353,0.386-0.895,0.748-1.226
			c0.449,0.089,0.828,0.366,1.241,0.55c1.044,0.506,2.007,1.159,2.97,1.801c-0.256,0.481-0.646,0.881-0.858,1.388
			c0.603,0.386,1.122,0.884,1.703,1.302c0.299,0.227,0.553,0.507,0.852,0.736c0.321,0.246,0.582,0.555,0.816,0.882
			c0.366-0.321,0.74-0.63,1.096-0.961c0.249,0.214,0.447,0.478,0.663,0.723c0.362,0.555,0.828,1.031,1.24,1.548
			c0.338,0.52,0.746,1.002,0.983,1.58c0.309,0.841,0.929,1.548,1.112,2.439c-0.4,0.202-0.835,0.351-1.202,0.609
			c-0.008,0.227,0.165,0.404,0.237,0.609c0.179,0.465,0.312,0.946,0.494,1.41c0.485-0.117,0.94-0.354,1.445-0.387
			c0.443,1.121,0.585,2.324,0.812,3.499c0.071,0.413,0.103,0.831,0.164,1.245c-0.512,0.103-1.037,0.1-1.55,0.201
			c0.012,0.269,0.044,0.537,0.074,0.805c0.056,0.515-0.053,1.039,0.069,1.549c0.128,0.502,0.009,1.017,0.014,1.525
			c0.006,0.449-0.198,0.865-0.228,1.309c-0.042,0.576-0.259,1.133-0.194,1.716c0.463,0.078,0.915,0.21,1.379,0.281
			c0.027,0.004,0.078,0.014,0.105,0.018c-0.211,0.78-0.328,1.589-0.641,2.338c-0.415-0.011-0.784-0.219-1.185-0.295
			c-0.11-0.014-0.253-0.056-0.319,0.063c-0.185,0.25-0.204,0.576-0.325,0.855c-0.154,0.362-0.326,0.718-0.436,1.096
			c0.415,0.179,0.842,0.335,1.234,0.559c0.183,0.067,0.081,0.281,0.025,0.406c-0.203,0.393-0.38,0.799-0.571,1.197
			c-0.031,0.056-0.092,0.17-0.121,0.226c-0.079,0.134-0.17,0.262-0.268,0.382c-0.015,0.018-0.044,0.052-0.058,0.069
			c-0.54,0.646-0.856,1.459-1.458,2.056l-0.057-0.04c-0.345-0.302-0.742-0.532-1.103-0.812c-0.191,0.366-0.485,0.659-0.742,0.976
			c-0.205,0.236-0.378,0.498-0.582,0.735c0.251,0.247,0.511,0.482,0.765,0.727c0.102,0.115,0.236,0.245,0.232,0.409
			c-0.092,0.256-0.323,0.419-0.522,0.588c-0.486,0.416-0.872,0.946-1.414,1.299c-0.533,0.418-0.994,0.945-1.608,1.252
			c-0.15,0.086-0.26-0.09-0.346-0.185c-0.228-0.309-0.439-0.633-0.701-0.914c-0.54,0.475-1.211,0.768-1.737,1.257
			c0.222,0.375,0.383,0.785,0.635,1.143c-0.254,0.376-0.7,0.526-1.076,0.744c-0.358,0.168-0.708,0.367-1.094,0.463
			c-0.022-0.026-0.067-0.077-0.088-0.103c-0.203-0.406-0.366-0.829-0.561-1.238c-0.18,0.063-0.357,0.131-0.529,0.212
			c-0.504,0.239-1.048,0.372-1.558,0.595c0.181,0.452,0.302,0.927,0.415,1.401c-0.154,0.155-0.383,0.178-0.581,0.245
			c-0.628,0.171-1.245,0.414-1.9,0.458c-0.789,0.102-1.569,0.27-2.364,0.321c-0.069-0.465-0.146-0.929-0.155-1.4
			c-0.375-0.016-0.752-0.001-1.124,0.057c-0.4,0.047-0.801-0.058-1.202-0.027c-0.746,0.057-1.494-0.013-2.239-0.068
			c-0.029,0.388-0.05,0.779-0.114,1.164c-0.014,0.077-0.029,0.155-0.042,0.234c-0.425,0.144-0.871,0.02-1.294-0.062
			c-0.733-0.2-1.505-0.229-2.227-0.474c-0.425-0.138-0.877-0.206-1.275-0.419c0.16-0.489,0.332-0.974,0.455-1.474
			c-0.801-0.305-1.584-0.661-2.41-0.894c-0.42-0.133-0.785-0.388-1.183-0.573c-0.226-0.106-0.441-0.235-0.632-0.398
			c-0.373-0.323-0.823-0.534-1.225-0.817c-0.232-0.165-0.47-0.322-0.727-0.446c-0.402-0.187-0.715-0.508-1.062-0.774
			c-0.251-0.186-0.447-0.437-0.727-0.582c-0.365,0.353-0.646,0.852-1.162,1c-0.265-0.271-0.566-0.507-0.81-0.8
			c-0.233-0.278-0.506-0.52-0.805-0.725c0.143-0.243,0.277-0.504,0.506-0.678c0.203-0.157,0.392-0.33,0.57-0.514
			c-0.247-0.304-0.451-0.641-0.728-0.92c-0.26-0.265-0.469-0.576-0.636-0.907c-0.224-0.445-0.555-0.822-0.81-1.249
			c-0.13-0.211-0.251-0.431-0.421-0.614c-0.487,0.116-0.876,0.465-1.319,0.683c-0.776-1.24-1.339-2.598-1.843-3.966
			c-0.083-0.192-0.107-0.401-0.074-0.608c0.46-0.003,0.86-0.254,1.289-0.389c-0.236-0.915-0.529-1.817-0.675-2.753
			c-0.254-0.891-0.128-1.823-0.273-2.728c-0.054-0.415,0.054-0.848-0.066-1.253c-0.483-0.115-0.992-0.026-1.487-0.053
			c-0.035-0.754,0.027-1.509,0.088-2.26c-0.007-0.132,0.131-0.231,0.254-0.195c0.404,0.06,0.81,0.109,1.219,0.098
			c0.076-0.585,0.147-1.171,0.272-1.748c0.019-0.128,0.06-0.284-0.033-0.393c-0.442-0.179-0.92-0.242-1.369-0.396
			c0.122-0.701,0.39-1.364,0.538-2.057c0.05-0.095,0.115-0.183,0.181-0.268c0.473,0.066,0.902,0.364,1.389,0.328
			c0.222-0.404,0.297-0.869,0.508-1.279c0.12-0.236,0.206-0.486,0.269-0.743c-0.216-0.094-0.432-0.187-0.651-0.275
			c-0.136-0.06-0.271-0.124-0.398-0.203c-0.071-0.05-0.14-0.101-0.202-0.16c0.046-0.269,0.207-0.497,0.314-0.742
			c0.218-0.478,0.46-0.947,0.749-1.386c0.457,0.234,0.885,0.526,1.371,0.701c0.579-1.068,1.308-2.039,2.038-3.008
			c0.194-0.195,0.403-0.382,0.54-0.623C8.977,9.729,9.67,9.287,10.16,8.674c-0.043-0.118-0.135-0.208-0.217-0.3
			c-0.249-0.259-0.464-0.544-0.71-0.807C9.29,7.472,9.348,7.376,9.409,7.282c0.558-0.392,1.054-0.864,1.633-1.226
			c0.355-0.255,0.721-0.495,1.081-0.744c0.32-0.199,0.62-0.443,0.973-0.584c0.162-0.081,0.262,0.116,0.354,0.217
			c0.199,0.313,0.384,0.636,0.573,0.956c0.416-0.299,0.908-0.459,1.349-0.714c0.373-0.194,0.722-0.457,1.139-0.551
			c0.567-0.148,1.084-0.459,1.669-0.548c0.235-0.033,0.464-0.096,0.691-0.167c0.504-0.155,1.02-0.258,1.529-0.398
			c-0.082-0.504-0.23-0.997-0.261-1.51c0.939-0.168,1.879-0.346,2.834-0.396c0.521-0.023,1.041-0.109,1.564-0.08
			C24.721,1.551,24.905,1.529,25.085,1.487z M22.467,6.379c-0.461,0.062-0.919,0.14-1.373,0.242
			c0.035,0.454,0.117,0.906,0.259,1.339c0.037,0.1,0.018,0.169-0.052,0.206c-0.534,0.031-1.04,0.207-1.545,0.366
			c-0.074-0.098-0.146-0.196-0.218-0.295L19.52,8.184c-0.019-0.378-0.226-0.705-0.37-1.044c-1.416,0.431-2.751,1.087-4.022,1.837
			c-0.606,0.388-1.191,0.804-1.765,1.237c-0.428,0.354-0.902,0.667-1.239,1.116c-0.05,0.039-0.096,0.081-0.142,0.126
			c-0.211,0.085-0.331,0.284-0.453,0.464c-0.018,0.02-0.052,0.059-0.07,0.079c-0.141-0.085-0.336,0.151-0.258,0.281
			c-0.041,0.024-0.121,0.073-0.162,0.097c0.003,0.015,0.007,0.044,0.009,0.059c-0.421,0.435-0.764,0.937-1.17,1.385
			c0,0.025-0.001,0.074-0.001,0.099c-0.022,0.028-0.067,0.083-0.088,0.111c-0.273,0.302-0.53,0.626-0.7,0.999
			c-0.105,0.218-0.256,0.408-0.406,0.596c-0.147,0.212-0.278,0.438-0.36,0.684c-0.245,0.269-0.368,0.618-0.517,0.944
			c-0.447,0.996-0.803,2.032-1.085,3.085c-0.267,1.208-0.547,2.433-0.523,3.677c-0.003,0.028-0.009,0.087-0.012,0.116
			c-0.041,0.121-0.069,0.247-0.065,0.376c-0.016,1.049,0.08,2.093,0.178,3.135c0.265,1.719,0.711,3.42,1.431,5.009
			c0.244,0.637,0.606,1.218,0.924,1.82l0.046,0.004c0.009,0.015,0.027,0.044,0.036,0.059c0.101,0.282,0.359,0.463,0.472,0.737
			c0.143,0.331,0.376,0.611,0.6,0.89c0.033,0.123,0.12,0.217,0.213,0.298c0.018,0.019,0.054,0.056,0.071,0.074
			c-0.104,0.109,0.08,0.341,0.21,0.261c0.014,0.021,0.043,0.063,0.058,0.084c0.207,0.371,0.488,0.711,0.833,0.963
			c0.039,0.049,0.079,0.098,0.122,0.145c0.06,0.182,0.2,0.315,0.375,0.386c0.116,0.119,0.237,0.235,0.37,0.336
			c0.181,0.239,0.381,0.479,0.657,0.609c0.018,0.015,0.054,0.043,0.071,0.058c0.277,0.295,0.582,0.581,0.944,0.768
			c0.022,0.019,0.065,0.058,0.086,0.077c0.021,0.003,0.061,0.01,0.082,0.013c0.273,0.285,0.636,0.451,0.952,0.68
			c0.23,0.166,0.518,0.243,0.725,0.446c0.182,0.137,0.379,0.254,0.584,0.354c0.394,0.188,0.767,0.441,1.204,0.526
			c0.215-0.428,0.389-0.876,0.607-1.302c0.563,0.126,1.073,0.416,1.627,0.575c-0.12,0.487-0.331,0.948-0.421,1.444
			c0.202,0.094,0.409,0.184,0.627,0.235c0.88,0.218,1.765,0.437,2.666,0.549c0.421,0.027,0.835,0.132,1.258,0.094l-0.016,0.066
			c0.658,0.02,1.317,0.023,1.976,0.024c0.129,0.002,0.256-0.024,0.38-0.06c0.046-0.005,0.137-0.014,0.182-0.019
			c0.949-0.01,1.883-0.203,2.813-0.368c0.612-0.178,1.263-0.252,1.831-0.556c0.596-0.236,1.247-0.338,1.78-0.711
			c0.056,0.003,0.111,0.004,0.165,0.004c0.479-0.217,0.955-0.447,1.407-0.72c0.668-0.495,1.415-0.871,2.085-1.364
			c0.276-0.207,0.576-0.397,0.781-0.683c0.018-0.014,0.054-0.045,0.071-0.06c0.441-0.225,0.768-0.606,1.114-0.948
			c0.417-0.423,0.873-0.826,1.173-1.345c0.013-0.021,0.042-0.063,0.055-0.084c0.128,0.082,0.315-0.148,0.212-0.259
			c0.017-0.018,0.051-0.054,0.067-0.072c0.265-0.189,0.419-0.48,0.616-0.73c0.123-0.159,0.226-0.333,0.294-0.522
			c0.014-0.02,0.04-0.059,0.053-0.079c0.136-0.114,0.242-0.258,0.325-0.414c0.256-0.476,0.548-0.932,0.773-1.423
			c0.406-0.77,0.659-1.606,0.961-2.419c0.298-0.67,0.474-1.386,0.598-2.107c-0.468-0.203-0.992-0.216-1.458-0.426
			c0.027-0.185,0.046-0.372,0.05-0.56c0.065-0.346,0.113-0.695,0.159-1.043l-0.005,0.059c0.114-0.561,0.122-1.138,0.139-1.707
			c0.015-0.115-0.018-0.293,0.143-0.309c0.442-0.013,0.897,0.082,1.329-0.055c-0.007-0.45,0.036-0.904-0.042-1.349
			c-0.046-0.224,0.009-0.45,0.001-0.674c-0.06-0.696-0.222-1.376-0.35-2.061c-0.099-0.548-0.288-1.073-0.451-1.603
			c-0.693-2.231-1.844-4.313-3.33-6.113c-0.254-0.308-0.489-0.643-0.818-0.877c-0.017-0.019-0.049-0.057-0.065-0.075
			c-0.309-0.443-0.73-0.789-1.139-1.133c-0.326-0.258-0.625-0.546-0.94-0.817c-0.209-0.165-0.443-0.295-0.642-0.472
			c-0.868-0.676-1.837-1.202-2.815-1.7c-0.18-0.086-0.368-0.157-0.565-0.199c-0.594-0.268-1.193-0.542-1.826-0.706
			c-0.325-0.178-0.696-0.242-1.049-0.343c-1.213-0.31-2.452-0.512-3.698-0.606c-0.49,0.011-0.979,0.011-1.468,0.004
			C23.873,6.196,23.174,6.344,22.467,6.379z"/>
	</g>
	<path d="M28.985,2.622"/>
	<path d="M28.918,2.939c0.116-0.006,0.188,0.285,0.059,0.319C28.868,3.205,28.859,3.032,28.918,2.939z"/>
	<path d="M29.088,2.978c0.085-0.067,0.135-0.049,0.147,0.054C29.149,3.099,29.1,3.081,29.088,2.978z"/>
	<path d="M32.586,3.794c0.103-0.086,0.197,0.099,0.096,0.16C32.579,4.041,32.489,3.855,32.586,3.794z"/>
	<path d="M32.811,4.018c0.141,0.041-0.031,0.261-0.13,0.184C32.633,4.12,32.731,4.025,32.811,4.018z"/>
	<path d="M16.424,4.241c0.041-0.027,0.122-0.08,0.162-0.108c0.027,0.138,0.055,0.276,0.076,0.415
		C16.547,4.478,16.483,4.358,16.424,4.241z"/>
	<path d="M33.102,4.148"/>
	<path d="M14.996,5.03c0.095,0.048,0.094,0.098-0.003,0.148C14.897,5.131,14.899,5.082,14.996,5.03z"/>
	<path d="M40.502,9.13"/>
	<g>
		<path fill="#A0A1A2" d="M22.467,6.379c0.707-0.035,1.406-0.184,2.116-0.152c0.489,0.007,0.978,0.007,1.468-0.004
			c1.247,0.095,2.486,0.296,3.698,0.606c0.353,0.101,0.724,0.165,1.049,0.343c-0.007,0.222,0.047,0.438,0.152,0.633
			c0.197-0.029,0.396-0.051,0.595-0.066c-0.048,0.133-0.096,0.267-0.139,0.401c0.143-0.131,0.279-0.27,0.408-0.414
			c0.061,0.194,0.126,0.388,0.191,0.58c0.037,0.008,0.111,0.022,0.148,0.029c0.02-0.123,0.041-0.247,0.062-0.37
			c0.089,0.033,0.179,0.065,0.268,0.099c0.047-0.062,0.093-0.125,0.141-0.185c0.196,0.042,0.385,0.113,0.565,0.199
			c0.978,0.498,1.947,1.024,2.815,1.7c-0.052,0.238-0.013,0.478,0.147,0.667c0.091-0.066,0.183-0.132,0.273-0.198
			c0.112,0.103,0.224,0.206,0.338,0.306c0,0.094,0,0.187,0.001,0.281c0.137,0.042,0.279,0.073,0.406,0.141
			c0.031,0.114,0.044,0.233,0.063,0.349c0.116-0.086,0.232-0.174,0.353-0.257c0.409,0.344,0.83,0.691,1.139,1.133
			c-0.387-0.348-0.693-0.821-1.173-1.043c-0.404,0.211-0.666,0.623-0.989,0.939c-0.392-0.362-0.784-0.73-1.247-1.002
			c0.225-0.363,0.468-0.719,0.645-1.108c0.089-0.133-0.037-0.24-0.139-0.309c-0.872-0.63-1.813-1.158-2.78-1.626
			c-0.122-0.047-0.249-0.132-0.385-0.095c-0.343,0.301-0.527,0.742-0.669,1.166c-0.497-0.21-1.011-0.375-1.521-0.546
			c0.137-0.401,0.266-0.812,0.304-1.234c-0.009-0.029-0.027-0.084-0.035-0.112c-0.198-0.201-0.498-0.217-0.754-0.303
			c-1.598-0.408-3.243-0.702-4.899-0.64c-0.308,0.007-0.616-0.05-0.925-0.019c-1.019,0.079-2.049,0.15-3.044,0.401
			c0.057,0.436,0.158,0.863,0.237,1.294c-0.142-0.433-0.224-0.885-0.259-1.339C21.548,6.519,22.006,6.442,22.467,6.379z
			 M36.832,10.968c-0.039,0.119,0.003,0.16,0.122,0.122C36.991,10.97,36.951,10.93,36.832,10.968z"/>
	</g>
</g>
<g>
</g>
<g>
</g>
<g>
</g>
<g>
</g>
<g>
</g>
<g>
</g>
<g>
</g>
<g>
</g>
<g>
</g>
<g>
</g>
<g>
</g>
<g>
</g>
<g>
</g>
<g>
</g>
<g>
</g>
</svg>
