<?xml version="1.0" encoding="utf-8"?>
<!-- Generator: Adobe Illustrator 17.0.0, SVG Export Plug-In . SVG Version: 6.00 Build 0)  -->
<!DOCTYPE svg PUBLIC "-//W3C//DTD SVG 1.1 Tiny//EN" "http://www.w3.org/Graphics/SVG/1.1/DTD/svg11-tiny.dtd">
<svg version="1.1" baseProfile="tiny" id="Layer_1" xmlns="http://www.w3.org/2000/svg" xmlns:xlink="http://www.w3.org/1999/xlink"
	 x="0px" y="0px" width="50px" height="50px" viewBox="0 0 50 50" xml:space="preserve">
<g>
	<path fill="#646364" d="M29.286,36.459c0.111-0.087,0.265,0.102,0.178,0.202C29.353,36.745,29.196,36.56,29.286,36.459z"/>
	<path fill="#646364" d="M25.022,37.711c0.116-0.037,0.156,0.004,0.121,0.12C25.026,37.867,24.984,37.826,25.022,37.711z"/>
	<g>
		<g>
			<path fill="#A0A1A2" d="M25.047,11.756c0.377,0.125,0.773,0.119,1.165,0.114c-0.109,0.257-0.056,0.544-0.133,0.81
				c-0.084,0.53,0.022,1.071-0.038,1.604c-0.066,0.517-0.129,1.035-0.151,1.556c0.302,0.089,0.617,0.117,0.921,0.196
				c-0.01,0.809-0.348,1.567-0.443,2.365c0.091,0.189,0.314,0.125,0.468,0.065c0.443-0.461,0.413-1.162,0.549-1.75
				c0.045-0.363,0.462-0.509,0.558-0.849c0.166-0.519,0.334-1.034,0.536-1.537c0.371,0.128,0.735,0.308,1.138,0.296
				c0.252-0.558,0.487-1.123,0.732-1.685c0.353,0.219,0.733,0.391,1.115,0.552c-0.281,0.531-0.628,1.023-0.918,1.551
				c-0.389-0.133-0.714-0.447-1.153-0.378c-0.103,0.256-0.168,0.524-0.26,0.783c-0.177,0.27-0.311,0.567-0.416,0.872
				c-0.084,0.341,0.196,0.62,0.463,0.781c0.117-0.006,0.233-0.035,0.349-0.038c0.264,0.095,0.465,0.308,0.73,0.397
				c0.152-0.124,0.282-0.27,0.426-0.399c-0.13,0.171-0.27,0.333-0.414,0.493c-0.254-0.167-0.513-0.331-0.777-0.484
				c-0.49,0.651-0.802,1.41-1.243,2.092c-0.193-0.071-0.384-0.142-0.575-0.215c0.205-0.872,0.792-1.598,0.975-2.475
				c-0.294-0.098-0.593-0.183-0.899-0.224c-0.265,0.749-0.511,1.505-0.769,2.257c-0.216,0.061-0.441,0.033-0.661,0.006
				c0.062-0.834,0.394-1.62,0.464-2.452c-0.301-0.056-0.602-0.11-0.907-0.151c-0.056-0.737,0.152-1.457,0.155-2.191
				c-0.352-0.015-0.697-0.068-1.043-0.117c-0.146,0.754-0.013,1.526-0.087,2.287c-0.157,0.104-0.332,0.184-0.469,0.315
				c-0.048,0.187-0.027,0.383-0.026,0.575c-0.081-0.003-0.162-0.006-0.241-0.009c0.001,0.166,0.003,0.331,0.007,0.497
				c0.09-0.007,0.179-0.013,0.269-0.018c-0.132,0.281-0.199,0.585-0.188,0.896c0.147-0.062,0.304-0.092,0.462-0.101
				c-0.259,0.376-0.698,0.571-1.149,0.558c0.063,0.299,0.148,0.591,0.25,0.879c0.135-0.091,0.269-0.182,0.402-0.273
				c-0.113,0.192-0.273,0.366-0.323,0.589c-0.017,0.241,0.051,0.478,0.086,0.714c0.064,0.413,0.143,0.825,0.2,1.24
				c-0.123,0.019-0.247,0.038-0.369,0.058c-0.098-0.337-0.205-0.672-0.313-1.005c-0.151-0.005-0.303-0.009-0.454-0.015l-0.073-0.002
				c-0.158-0.048-0.315-0.098-0.473-0.149c0.08-0.061,0.156-0.123,0.235-0.186c0.005-0.027,0.016-0.079,0.024-0.106
				c-0.158-0.094-0.341-0.12-0.513-0.168c0.096-0.095,0.205-0.177,0.279-0.29c-0.082-0.096-0.22-0.092-0.328-0.134
				c0.062-0.09,0.137-0.173,0.172-0.277c-0.042-0.098-0.081-0.199-0.152-0.281c-0.179-0.076-0.37,0.022-0.542,0.071
				c-0.254,0.077-0.491,0.303-0.765,0.249c-0.128-0.13-0.218-0.29-0.321-0.442c0.15,0.142,0.243,0.356,0.436,0.446
				c0.368-0.18,0.755-0.327,1.115-0.525c0.266,0.146,0.192,0.501,0.372,0.719c0.144,0.359,0.347,0.691,0.47,1.06
				c0.185-0.008,0.371-0.008,0.557-0.011c0.045,0.348,0.199,0.669,0.287,1.008c0.082-0.011,0.246-0.032,0.328-0.042
				c-0.15-0.667-0.192-1.348-0.328-2.016c-0.044-0.409-0.257-0.779-0.282-1.192c0.226-0.073,0.46-0.095,0.698-0.082
				c-0.033-0.836-0.174-1.66-0.19-2.498c0.235-0.004,0.481,0.044,0.705-0.046c0.031-0.042,0.096-0.124,0.128-0.166
				c0.031-0.606-0.018-1.211,0.014-1.816c0.018-0.287,0.192-0.546,0.168-0.84C25.062,12.632,25.079,12.193,25.047,11.756z
				 M30.374,13.102c-0.112,0.111,0.086,0.293,0.192,0.182C30.68,13.167,30.483,12.987,30.374,13.102z M30.649,13.883
				c0.176-0.011,0.351-0.025,0.526-0.044c-0.035-0.093-0.07-0.187-0.103-0.279C30.93,13.666,30.788,13.772,30.649,13.883z
				 M28.774,14.832c-0.131-0.002-0.152,0.226-0.011,0.226C28.892,15.06,28.912,14.832,28.774,14.832z M28.611,15.342
				c-0.006,0.058-0.016,0.172-0.023,0.23c0.169-0.049,0.345-0.089,0.489-0.194c0.02-0.111,0.031-0.223,0.034-0.336
				C28.942,15.138,28.777,15.241,28.611,15.342z M28.571,15.808c0.071,0.102,0.142,0.202,0.215,0.304
				c0.026-0.133,0.058-0.264,0.094-0.395C28.777,15.747,28.673,15.777,28.571,15.808z M24.11,16.405
				c-0.043,0.135,0.002,0.181,0.138,0.138C24.292,16.407,24.245,16.361,24.11,16.405z M28.702,17.816
				c-0.117,0.056-0.12,0.109-0.009,0.16C28.812,17.921,28.815,17.868,28.702,17.816z M28.143,17.912
				c-0.043,0.169-0.084,0.34-0.122,0.511c-0.149,0.16-0.198,0.367-0.045,0.545c0.103-0.006,0.206-0.006,0.308-0.006
				c0.2-0.294,0.355-0.614,0.478-0.946C28.548,18.02,28.337,18.004,28.143,17.912z"/>
		</g>
		<g>
			<path fill="#A0A1A2" d="M20.383,14.66c0.325-0.092,0.651-0.186,0.964-0.316c0.238,0.648,0.39,1.324,0.644,1.965
				c-0.277,0.033-0.544,0.114-0.803,0.219c-0.026-0.19-0.032-0.389-0.129-0.56C20.839,15.53,20.61,15.095,20.383,14.66z
				 M20.996,14.797c0.05,0.235,0.27,0.314,0.479,0.358C21.372,14.971,21.187,14.871,20.996,14.797z M21.643,15.999
				c-0.101,0.123,0.114,0.277,0.22,0.181C21.962,16.059,21.746,15.9,21.643,15.999z"/>
		</g>
		<path fill="#A0A1A2" d="M33,14.504c0.123-0.072,0.353,0.099,0.293,0.237C33.157,14.724,33.053,14.625,33,14.504z"/>
		<g>
			<path fill="#A0A1A2" d="M31.968,17.187c0.403-0.407,0.688-0.917,1.126-1.291c-0.147,0.253-0.406,0.416-0.553,0.668
				c-0.072,0.175,0.135,0.28,0.227,0.396c0.184,0.15,0.324,0.382,0.564,0.443c0.105-0.017,0.208-0.057,0.286-0.133
				c0.375-0.343,0.76-0.677,1.141-1.014c0.285,0.276,0.482,0.641,0.805,0.888c-0.529,0.308-0.973,0.733-1.488,1.061
				c-0.234-0.303-0.46-0.77-0.894-0.77c-0.235,0.168-0.431,0.382-0.651,0.567c-0.248,0.208-0.515,0.399-0.721,0.651
				c-0.067,0.113-0.032,0.259,0.053,0.353c0.348,0.448,0.623,0.948,0.869,1.459c-0.217,0.094-0.402,0.242-0.591,0.382
				c-0.253,0.19-0.572,0.244-0.848,0.392c-0.213,0.116-0.408,0.262-0.613,0.389c0.063,0.231,0.142,0.457,0.222,0.684
				c-0.589,0.234-1.151,0.528-1.724,0.799c-0.36,0.18-0.807,0.228-1.088,0.536c0.003,0.052,0.007,0.159,0.01,0.212
				c0.241,0.063,0.468-0.118,0.699-0.172c0.318-0.122,0.668-0.115,0.982-0.259c0.455-0.193,0.955-0.241,1.408-0.437
				c0.093,0.432,0.332,0.818,0.379,1.262c0.829,0.001,1.643-0.217,2.474-0.189c0.077,0.623-0.152,1.217-0.099,1.84
				c0.668,0.4,1.475,0.145,2.183,0.39c-0.124,0.326-0.206,0.669-0.192,1.021c0.629,0.219,1.3,0.275,1.939,0.455
				c-0.031,0.455-0.171,0.896-0.34,1.318c-1.135-0.392-2.288-0.722-3.429-1.1c-0.171-0.056-0.343-0.114-0.522-0.135
				c-0.198,0.213-0.221,0.537-0.338,0.801c-0.304-0.188-0.646-0.298-0.977-0.425c-0.379-0.154-0.739-0.349-1.118-0.497
				c-0.283,0.092-0.398,0.366-0.508,0.614c-0.514-0.224-0.945-0.586-1.411-0.884c-0.47-0.17-0.912-0.4-1.346-0.645
				c-0.024,0.019-0.073,0.06-0.095,0.08c-0.007,0.022-0.023,0.064-0.029,0.086c0.27,0.261,0.607,0.439,0.892,0.683
				c-0.073,0.116-0.197,0.218-0.202,0.364c0.265,0.415,0.731,0.639,1.055,1.002c0.27,0.287,0.566,0.547,0.82,0.849
				c-0.233-0.181-0.443-0.391-0.651-0.599c-0.402-0.408-0.854-0.759-1.259-1.163c0.035-0.165,0.072-0.329,0.107-0.493
				c-0.312-0.245-0.631-0.483-0.899-0.777c0.073-0.042,0.148-0.079,0.227-0.112c0.322,0.143,0.6,0.367,0.926,0.504
				c0.701,0.202,1.181,0.8,1.866,1.031c0.145-0.18,0.155-0.539,0.429-0.568c0.23,0.057,0.446,0.157,0.667,0.243
				c0.085-0.101,0.162-0.214,0.275-0.286c0.146,0.031,0.286,0.085,0.428,0.132c-0.109,0.075-0.218,0.149-0.325,0.223
				c0.008,0.03,0.021,0.092,0.03,0.123c0.233,0.085,0.47,0.169,0.708,0.248c0.006-0.046,0.019-0.139,0.026-0.184
				c0.16,0.017,0.343,0.112,0.494,0.008c-0.305-0.161-0.611-0.335-0.831-0.606c0.211,0.087,0.408,0.207,0.587,0.348
				c-0.001-0.04-0.003-0.122-0.005-0.163c0.132,0.007,0.264,0.013,0.396,0.024c0.175,0.025,0.349,0.06,0.519,0.113
				c1.158,0.369,2.319,0.732,3.474,1.113c0.141-0.406,0.268-0.818,0.333-1.244c-0.779-0.176-1.572-0.3-2.335-0.541
				c-0.178-0.043-0.275-0.201-0.357-0.35c0.007,0.053,0.02,0.16,0.027,0.213c-0.418-0.059-0.839-0.106-1.255-0.178
				c0.015-0.301,0.065-0.597,0.102-0.896c-0.022-0.029-0.063-0.086-0.084-0.114c-0.285-0.264-0.045-0.637,0.02-0.943
				c0.065-0.291,0.05-0.59,0.049-0.885c-0.833-0.024-1.65,0.2-2.483,0.181c-0.054-0.227-0.097-0.455-0.16-0.679
				c-0.191-0.289-0.53-0.116-0.792-0.059c0.095-0.125,0.189-0.252,0.281-0.379c-0.532,0.057-1.02,0.282-1.533,0.419
				c-0.443,0.058-0.841,0.336-1.287,0.337c-0.025-0.058-0.075-0.172-0.101-0.228c0.381-0.393,0.963-0.447,1.427-0.705
				c0.487-0.27,1.022-0.445,1.505-0.728c-0.076-0.204-0.154-0.408-0.235-0.609c0.604-0.542,1.465-0.668,2.025-1.266
				c-0.116-0.232-0.238-0.46-0.373-0.68c-0.336-0.522-0.669-1.051-1.102-1.498C31.34,17.795,31.713,17.527,31.968,17.187z
				 M32.845,17.245c-0.111-0.003-0.152,0.2-0.022,0.201C32.934,17.45,32.974,17.248,32.845,17.245z M33.766,17.486
				c-0.088,0.025-0.137,0.191-0.022,0.215C33.895,17.729,33.947,17.422,33.766,17.486z M31.909,17.983
				c0.118-0.038,0.236-0.076,0.355-0.115c-0.035-0.083-0.07-0.165-0.105-0.249C32.076,17.741,31.992,17.861,31.909,17.983z
				 M34.19,17.904c-0.126,0.022-0.127,0.251,0.023,0.203C34.343,18.087,34.342,17.847,34.19,17.904z M34.326,26.196
				c0.004,0.074,0.018,0.223,0.024,0.297c0.109-0.072,0.2-0.164,0.272-0.271C34.547,26.215,34.398,26.202,34.326,26.196z"/>
		</g>
		<path fill="#A0A1A2" d="M16.475,17.604c0.458,0.353,0.884,0.741,1.323,1.116c0.401,0.215,0.769,0.484,1.058,0.836
			c-0.279-0.213-0.529-0.461-0.814-0.663c-0.15,0.195-0.325,0.374-0.451,0.588c-0.078,0.251,0.202,0.356,0.356,0.485
			c0.059,0.105,0.113,0.212,0.169,0.319c-0.32-0.103-0.653-0.062-0.974,0.018c0.232,0.201,0.473,0.393,0.724,0.569
			c-0.266-0.166-0.522-0.345-0.79-0.504c0.237-0.257,0.498-0.546,0.437-0.925c-0.561-0.351-1.085-0.757-1.635-1.128
			C16.077,18.078,16.272,17.837,16.475,17.604z"/>
		<path fill="#A0A1A2" d="M21.82,19.399c0.073-0.005,0.22-0.014,0.294-0.019c-0.012,0.126-0.023,0.25-0.034,0.376
			C21.996,19.634,21.911,19.516,21.82,19.399z"/>
		<path fill="#A0A1A2" d="M12.782,19.734c0.523,0.231,1.033,0.488,1.558,0.714c-0.124,0.286-0.111,0.63-0.258,0.895
			c-0.569-0.145-1.117-0.384-1.678-0.564C12.563,20.444,12.719,20.102,12.782,19.734z"/>
		<path fill="#A0A1A2" d="M24.141,19.737c0.11-0.086,0.235,0.105,0.128,0.183C24.16,20.004,24.031,19.814,24.141,19.737z"/>
		<path fill="#A0A1A2" d="M18.318,20.427c0.189-0.084,0.161,0.368-0.011,0.317C18.236,20.655,18.248,20.512,18.318,20.427z"/>
		<path fill="#A0A1A2" d="M31.268,20.812c0.135-0.044,0.182,0.002,0.139,0.138C31.27,20.992,31.224,20.946,31.268,20.812z"/>
		<path fill="#A0A1A2" d="M18.531,20.908c0.325-0.001,0.678,0.002,0.92,0.256c-0.021,0.097-0.118,0.154-0.135,0.252
			c0.07,0.096,0.15,0.184,0.213,0.285c-0.332-0.169-0.67-0.324-0.997-0.501C18.532,21.103,18.531,21.005,18.531,20.908z"/>
		<path fill="#A0A1A2" d="M16.36,22.039c0.111-0.205,0.224-0.407,0.347-0.605c0.053,0.109,0.107,0.219,0.16,0.329
			c0.111-0.036,0.232-0.116,0.347-0.047c0.305,0.128,0.604,0.274,0.922,0.372c-0.131,0.164-0.273,0.318-0.438,0.45
			c-0.071-0.026-0.143-0.052-0.215-0.076c0.095-0.174,0.148-0.369,0.06-0.558c-0.101,0.149-0.19,0.304-0.277,0.461
			C16.954,22.284,16.652,22.173,16.36,22.039z"/>
		<path fill="#A0A1A2" d="M34.869,21.881c0.256-0.07,0.507-0.162,0.733-0.302c0.101,0.327,0.22,0.65,0.287,0.986
			c-0.655,0.12-1.315,0.245-1.948,0.453c-0.075-0.272-0.144-0.546-0.237-0.813C34.112,22.178,34.481,21.991,34.869,21.881z"/>
		<g>
			<path fill="#A0A1A2" d="M13.924,22.734c0.615,0.26,1.293,0.255,1.925,0.45c-0.072,0.243-0.126,0.491-0.114,0.746
				c-0.262-0.012-0.513-0.106-0.775-0.103c-0.406,0.022-0.793-0.121-1.198-0.094C13.89,23.412,13.798,23.057,13.924,22.734z
				 M13.89,23.252c-0.072,0.115,0.101,0.299,0.221,0.237C14.192,23.369,14.014,23.183,13.89,23.252z M14.552,23.336
				c-0.078,0.096-0.057,0.149,0.062,0.162C14.691,23.401,14.67,23.348,14.552,23.336z"/>
		</g>
		<path fill="#A0A1A2" d="M18.818,22.813c0.186-0.014,0.37-0.02,0.557-0.021c-0.063,0.085-0.128,0.169-0.19,0.255
			C19.05,22.991,18.905,22.939,18.818,22.813z"/>
		<path fill="#A0A1A2" d="M19.505,22.777c0.256,0.006,0.475,0.13,0.583,0.367c0.12,0.064,0.237,0.135,0.324,0.243
			C20.017,23.36,19.705,23.105,19.505,22.777z"/>
		<path fill="#A0A1A2" d="M15.873,24.954c0.038,0.001,0.114,0.006,0.152,0.009c0.74,0.015,1.48-0.011,2.22,0.011
			c0.021,0.227,0.042,0.456,0.086,0.68c0.044,0.216,0.097,0.43,0.147,0.645c0.295-0.047,0.621-0.066,0.864-0.259
			c0.061-0.104,0.097-0.218,0.141-0.33c0.215,0.082,0.432,0.206,0.67,0.187c0.292-0.03,0.576-0.113,0.861-0.177
			c-0.01-0.048-0.029-0.143-0.04-0.191c0.213,0.082,0.434,0.149,0.663,0.156c0.028,0.048,0.083,0.145,0.111,0.193
			c-0.046,0.265-0.324,0.324-0.527,0.432c-0.341,0.182-0.735,0.194-1.098,0.31c-0.485,0.155-0.981,0.268-1.465,0.421
			c0.079,0.199,0.129,0.468,0.37,0.53c0.37-0.026,0.608-0.332,0.894-0.523c0.262-0.091,0.548-0.107,0.797-0.239
			c0.064,0.155,0.131,0.311,0.2,0.466c-0.226,0.16-0.461,0.308-0.706,0.435c0.19-0.158,0.417-0.264,0.6-0.432
			c0.071-0.136-0.08-0.272-0.104-0.404c-0.645,0.111-1.143,0.565-1.746,0.779c-0.205-0.153-0.276-0.399-0.325-0.638
			c0.714-0.182,1.423-0.387,2.121-0.627c0.293-0.105,0.64-0.129,0.86-0.373c-0.004-0.052-0.012-0.156-0.016-0.208
			c-0.141-0.158-0.372-0.062-0.552-0.056c-0.459,0.107-0.923,0.192-1.386,0.281c-0.414,0.072-0.797,0.28-1.22,0.3
			c-0.028-0.453-0.253-0.868-0.216-1.33c-0.78-0.018-1.557,0.001-2.337-0.01L15.873,24.954z"/>
		<path fill="#A0A1A2" d="M31.905,25.304c0.226-0.021,0.453-0.04,0.677-0.065c0.023,0.029,0.069,0.086,0.095,0.114
			c-0.181,0.014-0.362,0.029-0.543,0.045c0.202,0.083,0.389,0.192,0.57,0.313C32.382,25.71,32.053,25.617,31.905,25.304z"/>
		<path fill="#A0A1A2" d="M19.911,25.624c0.074-0.088,0.256-0.051,0.271,0.071C20.169,25.881,19.817,25.792,19.911,25.624z"/>
		<path fill="#A0A1A2" d="M14.623,26.169c0.379,0.039,0.741-0.099,1.119-0.1c-0.015,0.253-0.004,0.51,0.105,0.745
			c-0.436,0.087-0.869,0.183-1.307,0.253c-0.214,0.016-0.411,0.106-0.604,0.193c-0.084-0.331-0.205-0.656-0.188-1.002
			C14.038,26.223,14.324,26.142,14.623,26.169z"/>
		<path fill="#A0A1A2" d="M31.268,27.286c0.134-0.045,0.181,0,0.141,0.137C31.274,27.468,31.227,27.422,31.268,27.286z"/>
		<path fill="#A0A1A2" d="M31.684,27.546c0.135-0.043,0.181,0.003,0.138,0.138C31.686,27.728,31.64,27.682,31.684,27.546z"/>
		<g>
			<path fill="#A0A1A2" d="M25.226,28.327c0.131-0.01,0.262-0.012,0.392-0.014c0.084,0.382,0.139,0.767,0.22,1.15
				c0.167,0.643,0.272,1.304,0.503,1.93c0.199-0.034,0.4-0.067,0.598-0.107c0.066,0.153,0.125,0.307,0.182,0.463
				c-0.071-0.124-0.131-0.255-0.22-0.366c-0.196-0.013-0.39,0.011-0.585,0.022c-0.236-0.658-0.317-1.356-0.534-2.019
				c-0.126-0.332-0.039-0.76-0.273-1.035c-0.051-0.006-0.151-0.016-0.202-0.022c-0.005,0.253-0.017,0.511,0.026,0.762
				c0.082,0.337,0.028,0.689,0.124,1.023c0.006,0.483,0.145,0.953,0.093,1.439c-0.183,0.004-0.364,0.005-0.546,0.005
				c-0.092,0.141-0.236,0.275-0.201,0.462c0.007,0.681-0.009,1.363,0.009,2.044c-0.251-0.007-0.505-0.002-0.742-0.098
				c-0.078,0.175-0.15,0.356-0.156,0.55c-0.035,0.578-0.139,1.149-0.19,1.725c-0.391-0.022-0.784-0.069-1.162-0.176
				c0.002-0.06,0.004-0.119,0.005-0.177c0.05,0.066,0.105,0.129,0.162,0.19c0.313,0.074,0.641,0.066,0.959,0.111
				c0.082-0.692,0.193-1.379,0.217-2.075c-0.292-0.039-0.582-0.083-0.873-0.126c-0.153,0.601-0.232,1.221-0.432,1.81
				c0.123-0.603,0.255-1.204,0.392-1.804c-0.126-0.048-0.25-0.095-0.372-0.142c0.129,0.019,0.26,0.032,0.393,0.046
				c0.132-0.787,0.303-1.568,0.485-2.345c0.171-0.004,0.341-0.005,0.513-0.007c0.175,0.037,0.296,0.165,0.402,0.298
				c0.071-0.1,0.142-0.2,0.215-0.299c0.078,0.036,0.156,0.073,0.235,0.109c0.111-0.079,0.223-0.157,0.336-0.236
				c0.107,0.03,0.215,0.059,0.322,0.091c0.043-0.669-0.184-1.314-0.182-1.98C25.333,29.126,25.278,28.726,25.226,28.327z
				 M23.523,31.571c-0.165,0.792-0.366,1.578-0.479,2.381c0.316,0.038,0.627,0.103,0.943,0.14c0.044-0.104,0.069-0.211,0.074-0.323
				c-0.007-0.653,0.236-1.284,0.176-1.939C24.134,31.538,23.774,31.567,23.523,31.571z M24.626,31.771
				c-0.02,0.026-0.06,0.075-0.08,0.101C24.626,32.156,24.946,31.725,24.626,31.771z M24.643,32.782
				c-0.035,0.116,0.004,0.157,0.12,0.121C24.8,32.787,24.759,32.746,24.643,32.782z M24.565,33.53
				c-0.082,0.099,0.094,0.205,0.162,0.109C24.81,33.538,24.632,33.434,24.565,33.53z M24.106,33.742
				c-0.106,0.115,0.093,0.301,0.2,0.185C24.41,33.809,24.212,33.638,24.106,33.742z"/>
		</g>
		<path fill="#A0A1A2" d="M19.554,28.98c0.125,0.083,0.251,0.164,0.377,0.246c-0.107,0.159-0.209,0.32-0.319,0.478
			c-0.021,0.02-0.063,0.06-0.084,0.08c-0.099,0.06-0.203,0.116-0.305,0.173c-0.107-0.138-0.215-0.276-0.322-0.412
			C19.128,29.37,19.348,29.182,19.554,28.98z"/>
		<g>
			<path fill="#A0A1A2" d="M32.962,29.528c0.128-0.207,0.212-0.444,0.361-0.638c0.615,0.229,1.221,0.49,1.799,0.798
				c-0.187,0.243-0.319,0.523-0.454,0.797C34.087,30.19,33.523,29.862,32.962,29.528z M33.853,29.413
				c-0.095,0.058-0.118,0.25,0.003,0.292C34.035,29.729,34.025,29.38,33.853,29.413z M34.522,29.878
				c-0.095,0.115,0.109,0.227,0.18,0.113C34.796,29.876,34.592,29.765,34.522,29.878z"/>
		</g>
		<path fill="#A0A1A2" d="M16.647,29.887c0.105-0.068,0.209-0.137,0.313-0.206c0.025,0.19,0.227,0.436,0.059,0.595
			C16.851,30.198,16.765,30.02,16.647,29.887z"/>
		<path fill="#A0A1A2" d="M18.375,29.838c0.16-0.043,0.321-0.086,0.481-0.128c0.03,0.163,0.063,0.326,0.094,0.489
			c-0.162,0.112-0.326,0.223-0.487,0.334c-0.072-0.076-0.146-0.15-0.219-0.226c-0.103,0.099-0.205,0.199-0.309,0.298
			c0.15,0.059,0.301,0.117,0.452,0.175c-0.033,0.016-0.101,0.048-0.134,0.064c-0.063,0.028-0.125,0.056-0.187,0.084
			c-0.12-0.185-0.243-0.368-0.364-0.55c0.141-0.095,0.276-0.203,0.43-0.274c0.139-0.005,0.27,0.053,0.404,0.083
			C18.481,30.071,18.429,29.955,18.375,29.838z"/>
		<path fill="#A0A1A2" d="M16.635,30.207c0.134-0.043,0.181,0.003,0.137,0.138C16.637,30.388,16.59,30.342,16.635,30.207z"/>
		<path fill="#A0A1A2" d="M15.56,30.544c0.137-0.116,0.303-0.187,0.46-0.272c0.051,0.165,0.12,0.328,0.144,0.501
			c-0.048,0.266-0.207,0.495-0.362,0.711c-0.085-0.114-0.169-0.228-0.255-0.342c0.198-0.138,0.548-0.378,0.299-0.633
			c-0.128,0.185-0.274,0.359-0.468,0.476C15.428,30.835,15.445,30.661,15.56,30.544z"/>
		<path fill="#A0A1A2" d="M16.722,30.534c0.176-0.064,0.15,0.242-0.006,0.215C16.604,30.727,16.63,30.563,16.722,30.534z"/>
		<path fill="#A0A1A2" d="M22.079,31.068c0.277-0.087,0.523,0.104,0.742,0.246c-0.213-0.175-0.481-0.194-0.746-0.183
			c-0.285,0.714-0.563,1.436-0.914,2.12c-0.261-0.052-0.494-0.182-0.722-0.309c-0.083,0.078-0.167,0.157-0.251,0.234
			c0.054-0.08,0.108-0.158,0.162-0.238c0.143-0.085,0.287-0.164,0.431-0.244c-0.024,0.125-0.047,0.25-0.069,0.374
			c0.154,0.01,0.342,0.129,0.478,0.044c0.213-0.358,0.329-0.765,0.533-1.127c-0.199-0.061-0.402-0.113-0.593-0.195
			c-0.001-0.02-0.002-0.06-0.003-0.08c0.179-0.079,0.37-0.13,0.543-0.222C21.841,31.385,21.911,31.172,22.079,31.068z"/>
		<path fill="#A0A1A2" d="M31.666,31.059c-0.095,0.346-0.463,0.507-0.638,0.801c-0.009,0.281,0.313,0.391,0.459,0.596
			c0.266,0.347,0.622,0.621,0.841,1.004c-0.258,0.156-0.512,0.321-0.736,0.523c-0.245-0.323-0.502-0.64-0.723-0.98
			c-0.239-0.366-0.625-0.602-0.866-0.965c-0.137-0.2-0.286-0.392-0.409-0.602c0.269,0.314,0.492,0.662,0.765,0.971
			C30.88,32.05,31.24,31.516,31.666,31.059z"/>
		<path fill="#A0A1A2" d="M21.467,31.215c0.238-0.064,0.078,0.358-0.092,0.256C21.308,31.385,21.381,31.257,21.467,31.215z"/>
		<path fill="#A0A1A2" d="M17.235,32.135c0.272-0.308,0.6-0.557,0.89-0.847c0.123,0.134,0.249,0.267,0.375,0.4
			c-0.132,0.045-0.265,0.089-0.396,0.135c0.093,0.073,0.187,0.146,0.28,0.221c-0.166,0.203-0.338,0.404-0.513,0.601
			c-0.265-0.075-0.541-0.052-0.72,0.18c0.163,0,0.328-0.003,0.493-0.006c-0.061,0.127-0.122,0.256-0.184,0.383
			c-0.023,0.04-0.067,0.12-0.09,0.162c-0.192-0.299-0.446-0.549-0.685-0.809C16.889,32.443,17.083,32.313,17.235,32.135z"/>
		<path fill="#A0A1A2" d="M20.85,32.539c0.106-0.244,0.253-0.494,0.504-0.61c0.04,0.105,0.079,0.212,0.119,0.317
			C21.268,32.348,21.06,32.448,20.85,32.539z"/>
		<g>
			<path fill="#A0A1A2" d="M17.172,33.815c0.1-0.103,0.249-0.12,0.379-0.164c0.014,0.092,0.028,0.185,0.043,0.278
				c0.124,0.027,0.249,0.051,0.373,0.083c0.105,0.054,0.209,0.107,0.314,0.164c-0.1,0.009-0.201,0.018-0.301,0.028
				c-0.277,0.447-0.6,0.862-0.945,1.26c-0.262-0.183-0.505-0.389-0.744-0.6C16.581,34.511,16.835,34.127,17.172,33.815z
				 M16.815,34.448c-0.097,0.102,0.088,0.199,0.156,0.102C17.069,34.449,16.881,34.351,16.815,34.448z"/>
		</g>
		<path fill="#A0A1A2" d="M26.994,34.031c0.216-0.062,0.434-0.122,0.652-0.182c0.163,0.608,0.423,1.191,0.534,1.813
			c-0.253,0.136-0.538,0.189-0.812,0.269c-0.064-0.296-0.152-0.587-0.191-0.888c0.098-0.048,0.198-0.089,0.298-0.132
			c-0.128-0.017-0.254-0.029-0.381-0.025C27.072,34.598,27.032,34.315,26.994,34.031z"/>
		<g>
			<path fill="#A0A1A2" d="M28.545,35.84c0.307-0.086,0.614-0.182,0.895-0.335c0.216,0.544,0.512,1.053,0.712,1.603
				c-0.359,0.122-0.71,0.267-1.07,0.382C28.961,36.922,28.692,36.402,28.545,35.84z M29.286,36.459
				c-0.09,0.101,0.067,0.286,0.178,0.202C29.551,36.561,29.398,36.372,29.286,36.459z"/>
		</g>
		<g>
			<path fill="#A0A1A2" d="M24.988,36.399c0.329-0.006,0.658-0.001,0.988-0.008c0.118,0.567,0.042,1.156,0.224,1.715
				c-0.402,0.064-0.803,0.142-1.211,0.099C24.981,37.603,24.981,37.001,24.988,36.399z M25.022,37.711
				c-0.038,0.115,0.004,0.156,0.121,0.12C25.179,37.715,25.139,37.674,25.022,37.711z"/>
		</g>
		<path fill="#646364" d="M30.649,13.883c0.139-0.111,0.281-0.217,0.423-0.323c0.033,0.092,0.067,0.186,0.103,0.279
			C31,13.858,30.825,13.872,30.649,13.883z"/>
		<path fill="#646364" d="M31.417,16.062c0.392-0.64,0.852-1.237,1.315-1.827c0.056,0.034,0.112,0.069,0.169,0.103
			c-0.171,0.088-0.338,0.188-0.448,0.35C32.106,15.144,31.809,15.639,31.417,16.062z"/>
		<path fill="#646364" d="M20.996,14.797c0.19,0.073,0.376,0.174,0.479,0.358C21.266,15.111,21.047,15.032,20.996,14.797z"/>
		<path fill="#646364" d="M28.774,14.832c0.137,0,0.118,0.228-0.011,0.226C28.622,15.058,28.643,14.831,28.774,14.832z"/>
		<path fill="#646364" d="M33.422,14.774c0.109,0.091,0.245,0.165,0.311,0.297c-0.048,0.285-0.296,0.466-0.488,0.657
			c0.145-0.196,0.285-0.393,0.427-0.59C33.589,15.018,33.504,14.896,33.422,14.774z"/>
		<path fill="#646364" d="M28.611,15.342c0.166-0.1,0.331-0.204,0.5-0.301c-0.003,0.113-0.014,0.225-0.034,0.336
			c-0.143,0.105-0.32,0.146-0.489,0.194C28.595,15.514,28.605,15.4,28.611,15.342z"/>
		<path fill="#646364" d="M28.571,15.808c0.102-0.031,0.205-0.061,0.309-0.091c-0.037,0.131-0.068,0.262-0.094,0.395
			C28.713,16.01,28.642,15.909,28.571,15.808z"/>
		<g>
			<path fill="#646364" d="M24.435,16.202c0.137-0.131,0.312-0.211,0.469-0.315c-0.145,0.927,0.067,1.864-0.082,2.79
				c-0.179,0.028-0.357,0.057-0.534,0.086c-0.034,0.35-0.033,0.705,0.053,1.047c0.017,0.159,0.103,0.335,0.02,0.489
				c-0.106,0.098-0.248,0.144-0.375,0.21c-0.035-0.236-0.103-0.473-0.086-0.714c0.05-0.222,0.211-0.397,0.323-0.589
				c-0.133,0.091-0.268,0.183-0.402,0.273c-0.102-0.287-0.186-0.58-0.25-0.879c0.451,0.013,0.89-0.182,1.149-0.558
				c-0.158,0.009-0.315,0.039-0.462,0.101c-0.01-0.311,0.056-0.615,0.188-0.896c-0.09,0.005-0.18,0.012-0.269,0.018
				c-0.004-0.166-0.007-0.332-0.007-0.497c0.08,0.003,0.16,0.006,0.241,0.009C24.407,16.585,24.387,16.39,24.435,16.202z
				 M24.141,19.737c-0.11,0.076,0.019,0.267,0.128,0.183C24.376,19.842,24.251,19.652,24.141,19.737z"/>
		</g>
		<path fill="#646364" d="M21.643,15.999c0.103-0.099,0.319,0.06,0.22,0.181C21.758,16.276,21.542,16.122,21.643,15.999z"/>
		<path fill="#646364" d="M30.923,16.744c0.103-0.224,0.255-0.424,0.432-0.596C31.23,16.359,31.086,16.56,30.923,16.744z"/>
		<path fill="#646364" d="M24.11,16.405c0.135-0.043,0.183,0.003,0.138,0.138C24.112,16.585,24.067,16.54,24.11,16.405z"/>
		<path fill="#646364" d="M30.79,16.831l0.076,0.005c-0.026,0.034-0.079,0.103-0.103,0.138l-0.026-0.073L30.79,16.831z"/>
		<path fill="#646364" d="M32.845,17.245c0.129,0.003,0.089,0.205-0.022,0.201C32.694,17.445,32.734,17.242,32.845,17.245z"/>
		<path fill="#646364" d="M33.766,17.486c0.181-0.064,0.13,0.243-0.022,0.215C33.628,17.676,33.678,17.51,33.766,17.486z"/>
		<path fill="#646364" d="M18.953,18.074c0.156-0.232,0.385-0.401,0.665-0.447l-0.053,0.036
			C19.362,17.798,19.157,17.937,18.953,18.074z"/>
		<path fill="#646364" d="M31.909,17.983c0.084-0.122,0.167-0.242,0.25-0.363c0.035,0.083,0.07,0.166,0.105,0.249
			C32.145,17.906,32.027,17.945,31.909,17.983z"/>
		<path fill="#646364" d="M19.751,17.912c0.296,0.327,0.572,0.678,0.776,1.072C20.228,18.657,19.973,18.293,19.751,17.912z"/>
		<path fill="#646364" d="M34.19,17.904c0.152-0.057,0.154,0.183,0.023,0.203C34.063,18.155,34.064,17.925,34.19,17.904z"/>
		<path fill="#646364" d="M18.978,18.349c-0.131,0.106-0.283-0.192-0.11-0.216C18.92,18.196,18.956,18.269,18.978,18.349z"/>
		<g>
			<path fill="#646364" d="M26.322,18.511c0.22,0.027,0.445,0.055,0.661-0.006c-0.098,0.204-0.208,0.4-0.304,0.605
				c0.221,0.059,0.442,0.118,0.662,0.18c-0.276,0.455-0.334,1.011-0.662,1.437c-0.243-0.091-0.489-0.174-0.735-0.253
				C26.127,19.831,26.283,19.178,26.322,18.511z M26.453,19.226 M26.809,19.479c0.01,0.116,0.066,0.138,0.164,0.063
				C26.962,19.425,26.907,19.404,26.809,19.479z"/>
		</g>
		<path fill="#646364" d="M19.104,18.549c0.302,0.255,0.562,0.552,0.82,0.848c0.178,0.208,0.412,0.38,0.516,0.638
			c-0.12,0.188-0.279,0.348-0.429,0.514c-0.077-0.048-0.151-0.096-0.226-0.146c0.307,0.102,0.438-0.225,0.602-0.414
			c-0.236-0.223-0.46-0.46-0.663-0.715C19.526,19.025,19.265,18.829,19.104,18.549z"/>
		<g>
			<path fill="#646364" d="M21.678,19.263c0.171-0.049,0.363-0.147,0.542-0.071c0.071,0.082,0.11,0.183,0.152,0.281
				c-0.035,0.104-0.11,0.187-0.172,0.277c0.107,0.043,0.246,0.039,0.328,0.134c-0.075,0.113-0.183,0.196-0.279,0.29
				c0.171,0.048,0.355,0.075,0.513,0.168c-0.007,0.027-0.019,0.079-0.024,0.106c-0.078,0.062-0.155,0.125-0.235,0.186
				c0.158,0.051,0.315,0.101,0.473,0.149c-0.118,0.031-0.236,0.066-0.353,0.1C22.265,20.369,21.96,19.821,21.678,19.263z
				 M21.82,19.399c0.09,0.117,0.175,0.236,0.26,0.357c0.011-0.126,0.022-0.25,0.034-0.376C22.041,19.385,21.894,19.394,21.82,19.399
				z"/>
		</g>
		<path fill="#646364" d="M18.938,19.627c0.307,0.163,0.536,0.436,0.746,0.707C19.399,20.139,19.174,19.877,18.938,19.627z"/>
		<g>
			<path fill="#646364" d="M32.289,19.701c0.135,0.22,0.256,0.449,0.373,0.68c-0.56,0.598-1.421,0.724-2.025,1.266
				c0.081,0.201,0.158,0.405,0.235,0.609c-0.483,0.283-1.018,0.458-1.505,0.728c-0.464,0.258-1.046,0.313-1.427,0.705
				c0.018-0.165,0.02-0.357,0.169-0.463c0.288-0.231,0.644-0.357,0.967-0.533c0.49-0.23,0.89-0.625,1.419-0.774
				c-0.127-0.189-0.253-0.38-0.392-0.56C30.749,20.698,31.626,20.343,32.289,19.701z M31.268,20.812
				c-0.044,0.134,0.003,0.18,0.139,0.138C31.45,20.814,31.403,20.768,31.268,20.812z"/>
		</g>
		<g>
			<path fill="#646364" d="M17.947,19.966c0.353,0.225,0.667,0.505,1.014,0.738c0.244,0.175,0.512,0.324,0.716,0.549
				c0.078,0.165-0.087,0.307-0.147,0.449c-0.063-0.101-0.143-0.19-0.213-0.285c0.017-0.098,0.114-0.154,0.135-0.252
				c-0.243-0.254-0.595-0.257-0.92-0.256c0,0.097,0.001,0.195,0.001,0.292c0.328,0.177,0.666,0.332,0.997,0.501
				c0.116,0.167,0.268,0.307,0.449,0.405c0.654,0.371,1.291,0.771,1.951,1.135c0,0.134-0.002,0.268-0.003,0.402
				c-0.447-0.13-0.863-0.349-1.311-0.478c-0.073,0.283-0.111,0.573-0.115,0.865c0.327,0.072,0.663,0.116,0.98,0.228
				c0.111,0.056,0.328,0.184,0.16,0.306c-0.273,0.101-0.574,0.051-0.858,0.037c-1.64-0.177-3.282-0.36-4.926-0.493
				c0,0.29-0.049,0.62,0.167,0.854c-0.037-0.003-0.114-0.007-0.152-0.009l-0.09-0.006c-0.068-0.297,0.004-0.596,0.041-0.892
				c1.924,0.11,3.831,0.443,5.757,0.517c-0.006-0.052-0.019-0.157-0.025-0.209c-0.328-0.184-0.724-0.157-1.069-0.295
				c-0.119-0.151,0.001-0.359-0.01-0.531c-0.973-0.433-2.037-0.614-3.023-1.018c-0.38-0.16-0.777-0.272-1.162-0.425
				c0.09-0.239,0.2-0.472,0.306-0.705c0.521,0.145,0.992,0.423,1.495,0.618c0.945,0.372,1.833,0.885,2.809,1.177
				c0.338,0.11,0.649,0.283,0.983,0.401c0.003-0.075,0.009-0.225,0.013-0.3c-0.695-0.357-1.348-0.79-2.026-1.175
				c-0.359-0.188-0.644-0.489-1.015-0.655c-0.347-0.164-0.677-0.361-0.99-0.583c-0.251-0.177-0.492-0.368-0.724-0.569
				c0.321-0.081,0.654-0.122,0.974-0.018C18.061,20.178,18.006,20.071,17.947,19.966z M18.318,20.427
				c-0.07,0.085-0.082,0.228-0.011,0.317C18.478,20.795,18.507,20.343,18.318,20.427z M16.36,22.039
				c0.292,0.133,0.595,0.245,0.907,0.327c0.087-0.157,0.176-0.312,0.277-0.461c0.088,0.189,0.035,0.384-0.06,0.558
				c0.071,0.024,0.143,0.05,0.215,0.076c0.165-0.131,0.307-0.286,0.438-0.45c-0.318-0.099-0.617-0.245-0.922-0.372
				c-0.115-0.069-0.236,0.01-0.347,0.047c-0.053-0.109-0.107-0.219-0.16-0.329C16.584,21.632,16.47,21.834,16.36,22.039z
				 M18.818,22.813c0.087,0.126,0.232,0.178,0.366,0.233c0.063-0.085,0.127-0.17,0.19-0.255
				C19.188,22.793,19.004,22.799,18.818,22.813z M19.505,22.777c0.2,0.328,0.512,0.583,0.907,0.61
				c-0.086-0.109-0.204-0.179-0.324-0.243C19.98,22.907,19.762,22.783,19.505,22.777z"/>
		</g>
		<path fill="#646364" d="M21.06,20.028c-0.003-0.175,0.368-0.098,0.296,0.063C21.255,20.085,21.154,20.063,21.06,20.028z"/>
		<path fill="#646364" d="M21.209,20.875c-0.239-0.135-0.392-0.365-0.443-0.633C20.897,20.465,21.05,20.672,21.209,20.875z"/>
		<path fill="#646364" d="M21.427,20.206c0.311,0.307,0.598,0.662,0.739,1.082c-0.001,0.184-0.236,0.247-0.393,0.246
			c0.122-0.079,0.244-0.157,0.366-0.237C21.924,20.919,21.657,20.574,21.427,20.206z"/>
		<path fill="#646364" d="M23.048,20.786c0.151,0.006,0.303,0.01,0.454,0.015c0.108,0.334,0.215,0.668,0.313,1.005
			c-0.055,0.011-0.169,0.031-0.225,0.042C23.437,21.482,23.286,21.109,23.048,20.786z"/>
		<path fill="#646364" d="M21.455,21.136c0.086,0.07,0.175,0.143,0.226,0.245C21.553,21.482,21.347,21.257,21.455,21.136z"/>
		<path fill="#646364" d="M13.89,23.252c0.124-0.069,0.302,0.117,0.221,0.237C13.991,23.551,13.818,23.367,13.89,23.252z"/>
		<path fill="#646364" d="M29.328,23.581c0.513-0.137,1.001-0.362,1.533-0.419c-0.092,0.128-0.186,0.254-0.281,0.379
			c0.262-0.057,0.601-0.23,0.792,0.059c-0.667,0.196-1.366,0.216-2.029,0.428C29.337,23.877,29.334,23.729,29.328,23.581z"/>
		<path fill="#646364" d="M14.552,23.336c0.118,0.012,0.139,0.065,0.062,0.162C14.495,23.485,14.474,23.431,14.552,23.336z"/>
		<g>
			<path fill="#646364" d="M28.314,24.346c0.336-0.103,0.687-0.135,1.026-0.223c0.041,0.112,0.081,0.225,0.12,0.339
				c0.564,0.042,1.118-0.131,1.683-0.085c0.029,0.195,0.065,0.388,0.107,0.581c-0.593,0.13-1.209,0.035-1.811,0.084
				c-0.009,0.108-0.018,0.218-0.026,0.327c-0.288-0.004-0.583,0.034-0.867-0.025c-0.101-0.072-0.188-0.159-0.277-0.241
				C28.295,24.854,28.224,24.582,28.314,24.346z M29.455,24.581c0.003,0.084,0.009,0.253,0.01,0.337
				c0.557-0.023,1.111,0.063,1.666-0.011c-0.003-0.164-0.005-0.328-0.009-0.491C30.564,24.42,30.005,24.487,29.455,24.581z"/>
		</g>
		<g>
			<path fill="#646364" d="M31.271,25.051c0.895-0.116,1.797-0.003,2.695-0.068c-0.065,0.305-0.305,0.679-0.02,0.943
				c-0.509-0.089-1.03-0.077-1.542-0.139c-0.413-0.062-0.825-0.132-1.238-0.188C31.201,25.416,31.238,25.234,31.271,25.051z
				 M31.905,25.304c0.148,0.313,0.477,0.406,0.799,0.408c-0.181-0.121-0.368-0.23-0.57-0.313c0.181-0.016,0.362-0.031,0.543-0.045
				c-0.025-0.028-0.072-0.086-0.095-0.114C32.358,25.264,32.131,25.283,31.905,25.304z"/>
		</g>
		<g>
			<path fill="#646364" d="M19.696,25.541c0.581-0.008,1.151-0.136,1.729-0.182c0.07,0.108,0.142,0.216,0.21,0.327
				c-0.23-0.007-0.45-0.074-0.663-0.156c0.01,0.048,0.03,0.143,0.04,0.191c-0.285,0.064-0.568,0.147-0.861,0.177
				c-0.238,0.019-0.455-0.105-0.67-0.187c-0.043,0.112-0.079,0.226-0.141,0.33c-0.243,0.193-0.569,0.212-0.864,0.259
				c-0.049-0.215-0.103-0.429-0.147-0.645C18.792,25.727,19.237,25.539,19.696,25.541z M19.911,25.624
				c-0.094,0.167,0.258,0.257,0.271,0.071C20.167,25.574,19.985,25.536,19.911,25.624z"/>
		</g>
		<path fill="#646364" d="M29.509,25.541c0.514,0.008,1.02,0.171,1.533,0.116c0.019,0.183,0.026,0.367,0.037,0.552
			c-0.117,0.017-0.237,0.059-0.354,0.021c-0.408-0.114-0.825-0.205-1.221-0.357C29.506,25.762,29.507,25.651,29.509,25.541z"/>
		<path fill="#646364" d="M21.746,25.878c0.018,0.152,0.026,0.306,0.034,0.461c-0.37,0.12-0.724,0.28-1.064,0.471
			c-0.249,0.133-0.535,0.148-0.797,0.239c-0.286,0.191-0.524,0.497-0.894,0.523c-0.241-0.063-0.292-0.331-0.37-0.53
			c0.485-0.153,0.98-0.266,1.465-0.421c0.363-0.116,0.757-0.128,1.098-0.31C21.422,26.202,21.7,26.143,21.746,25.878z"/>
		<path fill="#646364" d="M34.326,26.196c0.073,0.006,0.222,0.019,0.296,0.026c-0.073,0.107-0.163,0.199-0.272,0.271
			C34.343,26.419,34.33,26.27,34.326,26.196z"/>
		<path fill="#646364" d="M27.574,27.304c-0.028-0.152,0.022-0.308,0.05-0.458c0.268,0.294,0.587,0.532,0.899,0.777
			c-0.035,0.164-0.072,0.328-0.107,0.493C28.132,27.848,27.834,27.595,27.574,27.304z"/>
		<g>
			<path fill="#646364" d="M28.777,27.238c0.145-0.085,0.288-0.176,0.43-0.27c0.486,0.201,0.919,0.545,1.441,0.651
				c0.133-0.176,0.203-0.388,0.309-0.58c0.079,0.012,0.157,0.032,0.232,0.059c0.754,0.309,1.555,0.474,2.333,0.712
				c-0.131-0.011-0.264-0.017-0.396-0.024c0.002,0.041,0.003,0.123,0.005,0.163c-0.179-0.141-0.375-0.261-0.587-0.348
				c0.22,0.272,0.526,0.445,0.831,0.606c-0.151,0.105-0.334,0.01-0.494-0.008c-0.006,0.045-0.02,0.138-0.026,0.184
				c-0.238-0.079-0.474-0.163-0.708-0.248c-0.009-0.031-0.022-0.093-0.03-0.123c0.107-0.074,0.216-0.148,0.325-0.223
				c-0.142-0.047-0.283-0.101-0.428-0.132c-0.113,0.072-0.19,0.185-0.275,0.286c-0.221-0.086-0.437-0.186-0.667-0.243
				c-0.274,0.029-0.285,0.388-0.429,0.568C29.958,28.039,29.477,27.44,28.777,27.238z M31.268,27.286
				c-0.041,0.137,0.007,0.182,0.141,0.137C31.449,27.286,31.402,27.241,31.268,27.286z M31.684,27.546
				c-0.044,0.136,0.002,0.181,0.138,0.138C31.864,27.549,31.819,27.504,31.684,27.546z M29.865,27.626"/>
		</g>
		<g>
			<path fill="#646364" d="M19.119,28.343c0.32-0.276,0.688-0.498,1.09-0.633c-0.341,0.198-0.685,0.392-0.994,0.637
				c0.094,0.143,0.171,0.302,0.298,0.421c0.12,0.044,0.249,0.059,0.368,0.104c0.115,0.08,0.182,0.212,0.269,0.32
				c-0.176,0.174-0.356,0.343-0.538,0.512c0.11-0.158,0.212-0.319,0.319-0.478c-0.126-0.082-0.252-0.163-0.377-0.246
				c-0.206,0.202-0.426,0.39-0.654,0.566c0.108,0.136,0.216,0.274,0.322,0.412c0.101-0.058,0.205-0.114,0.305-0.173
				c-0.382,0.33-0.717,0.718-1.14,0.997c-0.151-0.059-0.302-0.117-0.452-0.175c0.104-0.1,0.207-0.199,0.309-0.298
				c0.073,0.076,0.147,0.15,0.219,0.226c0.162-0.111,0.325-0.223,0.487-0.334c-0.031-0.163-0.064-0.326-0.094-0.489
				c-0.161,0.042-0.321,0.085-0.481,0.128c0.054,0.116,0.106,0.233,0.16,0.35c-0.133-0.03-0.264-0.088-0.404-0.083
				c-0.154,0.071-0.289,0.18-0.43,0.274c0.122,0.183,0.245,0.365,0.364,0.55c0.062-0.028,0.124-0.057,0.187-0.084
				c-0.018,0.109-0.041,0.218-0.041,0.331c0.124,0.237,0.314,0.432,0.473,0.646c-0.402,0.465-0.771,0.962-1.224,1.38
				c0.063-0.127,0.123-0.256,0.184-0.383c-0.166,0.003-0.33,0.006-0.493,0.006c0.179-0.232,0.455-0.255,0.72-0.18
				c0.176-0.197,0.347-0.397,0.513-0.601c-0.093-0.075-0.187-0.148-0.28-0.221c0.131-0.046,0.264-0.09,0.396-0.135
				c-0.126-0.133-0.252-0.266-0.375-0.4c-0.29,0.29-0.617,0.539-0.89,0.847c-0.152,0.179-0.346,0.308-0.55,0.42
				c0.239,0.26,0.493,0.511,0.685,0.809c0.162,0.247,0.379,0.451,0.598,0.649c-0.125-0.031-0.25-0.056-0.373-0.083
				c-0.015-0.093-0.029-0.186-0.043-0.278c-0.131,0.044-0.279,0.061-0.379,0.164c-0.337,0.312-0.591,0.696-0.88,1.05
				c0.239,0.212,0.483,0.417,0.744,0.6c0.345-0.398,0.668-0.813,0.945-1.26c0.1-0.01,0.201-0.019,0.301-0.028
				c0.314,0.172,0.617,0.36,0.929,0.536c0.388-0.471,0.62-1.043,0.977-1.535c-0.251,0.538-0.561,1.049-0.881,1.547
				c-0.479,0.055-0.78-0.553-1.282-0.523c-0.224,0.529-0.65,0.928-0.975,1.392c-0.314-0.241-0.602-0.511-0.924-0.741
				c0.362-0.195,0.483-0.616,0.785-0.875c0.172-0.194,0.455-0.4,0.4-0.692c-0.249-0.245-0.513-0.472-0.746-0.731
				c0.384-0.338,0.78-0.664,1.174-0.987c0.156-0.125,0.257-0.297,0.355-0.466c-0.152-0.236-0.296-0.481-0.489-0.687
				c-0.148-0.07-0.273,0.043-0.392,0.117c-0.488,0.344-0.957,0.714-1.44,1.067c-0.202-0.303-0.436-0.593-0.562-0.939
				c0.597-0.337,1.172-0.707,1.771-1.042c0.143,0.241,0.279,0.491,0.479,0.693c0.215,0.075,0.379-0.121,0.536-0.235
				c0.484-0.423,1.138-0.65,1.514-1.191C19.378,28.705,19.25,28.522,19.119,28.343z M16.647,29.887
				c0.118,0.133,0.204,0.311,0.372,0.389c0.168-0.159-0.034-0.405-0.059-0.595C16.856,29.75,16.752,29.819,16.647,29.887z
				 M16.635,30.207c-0.044,0.135,0.002,0.181,0.137,0.138C16.815,30.21,16.769,30.164,16.635,30.207z M15.56,30.544
				c-0.115,0.118-0.132,0.292-0.183,0.442c0.194-0.117,0.34-0.291,0.468-0.476c0.249,0.255-0.101,0.495-0.299,0.633
				c0.086,0.114,0.17,0.228,0.255,0.342c0.156-0.217,0.314-0.445,0.362-0.711c-0.024-0.173-0.093-0.336-0.144-0.501
				C15.863,30.356,15.697,30.428,15.56,30.544z M16.722,30.534c-0.092,0.029-0.118,0.193-0.006,0.215
				C16.872,30.776,16.898,30.47,16.722,30.534z"/>
		</g>
		<path fill="#646364" d="M26.256,27.992c0.133-0.016,0.267-0.03,0.4-0.042c0.247,0.472,0.505,0.939,0.784,1.393
			c0.276,0.444,0.481,0.932,0.808,1.345c0.207-0.086,0.409-0.259,0.642-0.226c0.289,0.23,0.443,0.578,0.638,0.884
			c-0.269-0.256-0.418-0.609-0.687-0.864c-0.231,0.022-0.39,0.26-0.625,0.256c-0.349-0.369-0.509-0.866-0.786-1.284
			c-0.303-0.468-0.548-0.973-0.844-1.443c-0.051-0.008-0.154-0.023-0.205-0.032c-0.006,0.211,0.06,0.411,0.16,0.594
			c0.432,0.849,0.848,1.716,1.117,2.632c-0.41-0.848-0.727-1.736-1.158-2.573C26.395,28.43,26.311,28.216,26.256,27.992z"/>
		<path fill="#646364" d="M23.776,28.535c0.039-0.161,0.203-0.219,0.331-0.291c-0.009,0.343-0.067,0.688-0.206,1.003
			c-0.028,0.105-0.095,0.141-0.2,0.107C23.592,29.089,23.696,28.795,23.776,28.535z"/>
		<path fill="#646364" d="M24.967,28.68c-0.044-0.176,0.149-0.262,0.259-0.353c0.052,0.398,0.107,0.798,0.113,1.201
			c-0.003,0.666,0.224,1.311,0.182,1.98c-0.107-0.031-0.215-0.06-0.322-0.091c-0.113,0.078-0.225,0.157-0.336,0.236
			c-0.079-0.036-0.157-0.073-0.235-0.109c-0.073,0.098-0.144,0.199-0.215,0.299c-0.107-0.133-0.228-0.262-0.402-0.298
			c0.307-0.196,0.649-0.313,1.017-0.292c-0.001-0.541-0.145-1.079-0.066-1.62C25.01,29.316,24.991,28.997,24.967,28.68z"/>
		<g>
			<path fill="#646364" d="M23.057,29.308c0.103,0.026,0.203,0.052,0.308,0.077c-0.147,0.692-0.479,1.334-0.55,2.042
				c-0.131,0.767-0.521,1.463-0.649,2.232c0.15,0.064,0.3,0.131,0.453,0.191c-0.17-0.027-0.337-0.065-0.502-0.111
				c-0.003-0.392,0.158-0.752,0.278-1.116c0.146-0.435,0.294-0.869,0.426-1.309c-0.218-0.142-0.465-0.334-0.742-0.246
				c-0.169,0.104-0.239,0.317-0.409,0.421c-0.173,0.091-0.364,0.143-0.543,0.222c0.001,0.02,0.002,0.06,0.003,0.08
				c0.191,0.083,0.394,0.134,0.593,0.195c-0.204,0.362-0.32,0.769-0.533,1.127c-0.136,0.085-0.324-0.034-0.478-0.044
				c0.022-0.125,0.046-0.25,0.069-0.374c-0.145,0.08-0.288,0.16-0.431,0.244c0.419-0.827,0.915-1.605,1.412-2.386
				c0.209,0.069,0.425,0.151,0.651,0.139C22.695,30.267,22.795,29.749,23.057,29.308z M21.467,31.215
				c-0.086,0.042-0.159,0.169-0.092,0.256C21.545,31.574,21.705,31.151,21.467,31.215z M20.85,32.539
				c0.21-0.091,0.418-0.192,0.623-0.293c-0.041-0.105-0.079-0.212-0.119-0.317C21.102,32.046,20.956,32.296,20.85,32.539z"/>
		</g>
		<path fill="#646364" d="M33.853,29.413c0.172-0.033,0.182,0.316,0.003,0.292C33.735,29.663,33.759,29.471,33.853,29.413z"/>
		<path fill="#646364" d="M25.837,29.463c0.151,0.012,0.304,0.02,0.455,0.028c0.139,0.623,0.397,1.211,0.646,1.795
			c-0.198,0.04-0.399,0.073-0.598,0.107C26.109,30.767,26.005,30.106,25.837,29.463z"/>
		<path fill="#646364" d="M34.522,29.878c0.07-0.113,0.274-0.002,0.18,0.113C34.631,30.105,34.426,29.993,34.522,29.878z"/>
		<path fill="#646364" d="M30.406,29.951c0.347,0.164,0.585,0.481,0.84,0.758C30.939,30.486,30.671,30.219,30.406,29.951z"/>
		<g>
			<path fill="#646364" d="M27.658,31.208c0.18,0.276,0.286,0.59,0.425,0.887c0.177,0.426,0.425,0.83,0.512,1.29
				c-0.29,0.104-0.574,0.222-0.865,0.319c-0.016,0.191,0.039,0.374,0.106,0.551c0.184,0.482,0.275,0.997,0.483,1.472
				c-0.334,0.087-0.663,0.183-0.994,0.276c-0.126-0.676-0.353-1.336-0.366-2.029c0.254-0.068,0.511-0.134,0.769-0.196
				c-0.166-0.685-0.492-1.329-0.607-2.027c0.236,0.62,0.401,1.265,0.651,1.88c0.258-0.086,0.512-0.183,0.767-0.284
				C28.303,32.61,27.907,31.94,27.658,31.208z M26.994,34.031c0.038,0.284,0.077,0.567,0.1,0.855
				c0.127-0.004,0.254,0.008,0.381,0.025c-0.101,0.043-0.2,0.084-0.298,0.132c0.039,0.3,0.127,0.592,0.191,0.888
				c0.273-0.08,0.559-0.132,0.812-0.269c-0.111-0.621-0.37-1.205-0.534-1.813C27.428,33.909,27.211,33.969,26.994,34.031z"/>
		</g>
		<path fill="#646364" d="M24.626,31.771c0.321-0.046,0,0.386-0.08,0.101C24.566,31.845,24.606,31.796,24.626,31.771z"/>
		<path fill="#646364" d="M24.643,32.782c0.116-0.036,0.157,0.004,0.12,0.121C24.647,32.939,24.608,32.898,24.643,32.782z"/>
		<path fill="#646364" d="M24.565,33.53c0.067-0.096,0.245,0.008,0.162,0.109C24.659,33.735,24.483,33.629,24.565,33.53z"/>
		<path fill="#646364" d="M24.106,33.742c0.106-0.104,0.304,0.068,0.2,0.185C24.199,34.043,24,33.857,24.106,33.742z"/>
		<path fill="#646364" d="M16.815,34.448c0.065-0.097,0.254,0.001,0.156,0.102C16.903,34.646,16.718,34.55,16.815,34.448z"/>
		<g>
			<path fill="#FFFFFF" d="M24.991,13.6c0.347,0.049,0.691,0.103,1.043,0.117c-0.003,0.734-0.211,1.454-0.155,2.191
				c0.305,0.041,0.606,0.095,0.907,0.151c-0.071,0.832-0.402,1.618-0.464,2.452c-0.039,0.668-0.195,1.32-0.377,1.962
				c0.245,0.079,0.492,0.163,0.735,0.253c0.328-0.425,0.386-0.982,0.662-1.437c-0.22-0.062-0.441-0.12-0.662-0.18
				c0.096-0.205,0.205-0.401,0.304-0.605c0.258-0.752,0.504-1.508,0.769-2.257c0.307,0.04,0.606,0.126,0.899,0.224
				c-0.183,0.877-0.77,1.603-0.975,2.475c0.191,0.073,0.382,0.145,0.575,0.215c0.441-0.682,0.753-1.441,1.243-2.092
				c0.264,0.153,0.523,0.317,0.777,0.484c0.144-0.16,0.284-0.322,0.414-0.493c0.019-0.022,0.059-0.065,0.079-0.087
				c0.024-0.035,0.077-0.104,0.103-0.138c0.014-0.023,0.043-0.069,0.056-0.092c0.163-0.184,0.307-0.385,0.432-0.596
				c0.015-0.022,0.046-0.065,0.061-0.086c0.392-0.423,0.689-0.918,1.037-1.374c0.11-0.162,0.277-0.262,0.448-0.35
				c0.024,0.042,0.074,0.125,0.098,0.167c0.053,0.121,0.158,0.22,0.293,0.237c0.033,0.008,0.097,0.024,0.129,0.032
				c0.082,0.122,0.167,0.243,0.25,0.364c-0.143,0.197-0.283,0.394-0.427,0.59c-0.046,0.059-0.096,0.115-0.15,0.167
				c-0.438,0.374-0.723,0.885-1.126,1.291c-0.255,0.34-0.628,0.608-0.782,1.016c0.434,0.447,0.766,0.975,1.102,1.498
				c-0.663,0.642-1.54,0.997-2.186,1.659c0.139,0.18,0.265,0.37,0.392,0.56c-0.529,0.149-0.929,0.544-1.419,0.774
				c-0.323,0.176-0.678,0.302-0.967,0.533c-0.15,0.106-0.152,0.298-0.169,0.463c0.026,0.056,0.077,0.17,0.101,0.228
				c0.446-0.001,0.844-0.279,1.287-0.337c0.005,0.148,0.009,0.297,0.014,0.447c0.663-0.212,1.363-0.232,2.029-0.428
				c0.063,0.224,0.106,0.452,0.16,0.679c0.833,0.019,1.65-0.205,2.483-0.181c0.001,0.295,0.016,0.595-0.049,0.885
				c-0.898,0.065-1.8-0.048-2.695,0.068c-0.033,0.183-0.07,0.365-0.105,0.548c0.413,0.056,0.825,0.126,1.238,0.188
				c0.512,0.061,1.033,0.049,1.542,0.139c0.021,0.028,0.061,0.085,0.084,0.114c-0.037,0.299-0.087,0.595-0.102,0.896
				c0.416,0.072,0.837,0.119,1.255,0.178c-0.007-0.053-0.02-0.16-0.027-0.213c0.082,0.149,0.179,0.307,0.357,0.35
				c0.763,0.24,1.556,0.365,2.335,0.541c-0.065,0.426-0.192,0.838-0.333,1.244c-1.154-0.381-2.316-0.744-3.474-1.113
				c-0.169-0.054-0.344-0.088-0.519-0.113c-0.778-0.238-1.578-0.403-2.333-0.712c-0.075-0.027-0.153-0.047-0.232-0.059
				c-0.106,0.192-0.176,0.403-0.309,0.58c-0.522-0.106-0.955-0.449-1.441-0.651c-0.141,0.095-0.285,0.185-0.43,0.27
				c-0.326-0.137-0.604-0.361-0.926-0.504c-0.079,0.033-0.154,0.07-0.227,0.112c-0.027,0.15-0.078,0.306-0.05,0.458
				c0.26,0.29,0.558,0.543,0.841,0.812c0.405,0.403,0.857,0.755,1.259,1.163c0.207,0.208,0.417,0.418,0.651,0.599
				c0.02,0.018,0.061,0.054,0.081,0.073c0.265,0.268,0.532,0.535,0.84,0.758c0.144,0.111,0.278,0.233,0.42,0.35
				c-0.426,0.457-0.786,0.992-1.308,1.347c-0.273-0.308-0.496-0.657-0.765-0.971c-0.015-0.022-0.048-0.065-0.064-0.087
				c-0.194-0.306-0.349-0.654-0.638-0.884c-0.233-0.033-0.436,0.14-0.642,0.226c-0.327-0.413-0.532-0.901-0.808-1.345
				c-0.279-0.454-0.537-0.921-0.784-1.393c-0.133,0.012-0.267,0.026-0.4,0.042c0.056,0.223,0.139,0.438,0.244,0.642
				c0.431,0.837,0.749,1.725,1.158,2.573c0.249,0.732,0.644,1.402,0.88,2.137c-0.254,0.101-0.509,0.198-0.767,0.284
				c-0.25-0.615-0.415-1.26-0.651-1.88c-0.058-0.156-0.116-0.31-0.182-0.463c-0.249-0.584-0.507-1.172-0.646-1.795
				c-0.151-0.009-0.303-0.016-0.455-0.028c-0.08-0.383-0.136-0.768-0.22-1.15c-0.13,0.002-0.261,0.004-0.392,0.014
				c-0.111,0.091-0.303,0.177-0.259,0.353c0.024,0.316,0.044,0.636-0.005,0.952c-0.079,0.541,0.065,1.079,0.066,1.62
				c-0.368-0.021-0.71,0.096-1.017,0.292c-0.172,0.002-0.343,0.003-0.513,0.007c-0.182,0.777-0.353,1.558-0.485,2.345
				c-0.133-0.013-0.264-0.027-0.393-0.046c-0.154-0.06-0.303-0.126-0.453-0.191c0.128-0.769,0.518-1.465,0.649-2.232
				c0.071-0.709,0.403-1.35,0.55-2.042c-0.105-0.026-0.205-0.051-0.308-0.077c-0.262,0.441-0.362,0.959-0.644,1.385
				c-0.226,0.012-0.442-0.07-0.651-0.139c-0.497,0.781-0.994,1.559-1.412,2.386c-0.054,0.08-0.108,0.158-0.162,0.238
				c-0.357,0.492-0.589,1.064-0.977,1.535c-0.312-0.176-0.615-0.364-0.929-0.536c-0.105-0.058-0.209-0.111-0.314-0.164
				c-0.219-0.197-0.436-0.401-0.598-0.649c0.024-0.041,0.067-0.121,0.09-0.162c0.453-0.418,0.823-0.914,1.224-1.38
				c-0.159-0.214-0.349-0.409-0.473-0.646c0-0.113,0.023-0.222,0.041-0.331c0.033-0.016,0.101-0.048,0.134-0.064
				c0.423-0.278,0.758-0.667,1.14-0.997c0.021-0.02,0.064-0.06,0.084-0.08c0.183-0.169,0.362-0.338,0.538-0.512
				c-0.087-0.108-0.154-0.239-0.269-0.32c-0.119-0.045-0.248-0.059-0.368-0.104c-0.127-0.119-0.204-0.278-0.298-0.421
				c0.309-0.246,0.653-0.439,0.994-0.637c0.245-0.127,0.481-0.275,0.706-0.435c-0.069-0.155-0.135-0.311-0.2-0.466
				c0.34-0.191,0.694-0.35,1.064-0.471c-0.008-0.155-0.016-0.309-0.034-0.461c-0.027-0.048-0.082-0.145-0.111-0.193
				c-0.068-0.111-0.14-0.219-0.21-0.327c-0.578,0.046-1.147,0.175-1.729,0.182c-0.46-0.002-0.904,0.186-1.366,0.113
				c-0.044-0.225-0.065-0.453-0.086-0.68c-0.74-0.022-1.48,0.004-2.22-0.011c-0.216-0.234-0.167-0.564-0.167-0.854
				c1.644,0.133,3.286,0.317,4.926,0.493c0.285,0.014,0.585,0.064,0.858-0.037c0.167-0.122-0.049-0.25-0.16-0.306
				c-0.317-0.112-0.653-0.156-0.98-0.228c0.005-0.293,0.042-0.583,0.115-0.865c0.449,0.129,0.864,0.348,1.311,0.478
				c0.001-0.134,0.003-0.268,0.003-0.402c-0.659-0.364-1.296-0.764-1.951-1.135c-0.181-0.098-0.332-0.238-0.449-0.405
				c0.06-0.142,0.224-0.284,0.147-0.449c-0.203-0.224-0.472-0.373-0.716-0.549c-0.347-0.233-0.661-0.512-1.014-0.738
				c-0.154-0.129-0.434-0.234-0.356-0.485c0.126-0.214,0.301-0.392,0.451-0.588c0.286,0.202,0.536,0.45,0.814,0.663
				c0.02,0.018,0.062,0.053,0.082,0.071c0.236,0.25,0.46,0.512,0.746,0.707c0.026,0.017,0.077,0.052,0.101,0.069
				c0.075,0.05,0.15,0.097,0.226,0.146c0.15-0.166,0.309-0.326,0.429-0.514c-0.104-0.258-0.338-0.43-0.516-0.638
				c-0.258-0.296-0.519-0.592-0.82-0.848c-0.063-0.053-0.106-0.12-0.127-0.2c-0.022-0.08-0.058-0.153-0.11-0.216
				c0.022-0.015,0.065-0.044,0.086-0.059c0.204-0.136,0.408-0.276,0.612-0.411c0.065,0.08,0.127,0.164,0.186,0.25
				c0.222,0.382,0.477,0.745,0.776,1.072c0.015,0.021,0.049,0.065,0.064,0.086c0.103,0.152,0.194,0.312,0.321,0.442
				c0.275,0.054,0.512-0.172,0.765-0.249c0.282,0.559,0.587,1.106,0.944,1.621c0.118-0.034,0.235-0.069,0.353-0.1l0.073,0.002
				c0.237,0.323,0.388,0.696,0.542,1.063c0.056-0.011,0.17-0.031,0.225-0.042c0.122-0.021,0.246-0.039,0.369-0.058
				c-0.057-0.414-0.135-0.826-0.2-1.24c0.127-0.066,0.269-0.112,0.375-0.21c0.083-0.154-0.003-0.33-0.02-0.489
				c-0.086-0.342-0.087-0.698-0.053-1.047c0.177-0.029,0.356-0.058,0.534-0.086c0.149-0.926-0.063-1.863,0.082-2.79
				C24.978,15.126,24.845,14.354,24.991,13.6z M21.06,20.028c-0.097,0.072-0.196,0.144-0.294,0.214
				c0.05,0.268,0.204,0.498,0.443,0.633c0.075,0.092,0.157,0.182,0.246,0.261c-0.109,0.121,0.097,0.346,0.226,0.245
				c0.023,0.038,0.069,0.115,0.092,0.152c0.156,0.001,0.391-0.062,0.393-0.246c-0.141-0.42-0.428-0.774-0.739-1.082
				c-0.019-0.029-0.055-0.086-0.071-0.115C21.429,19.93,21.057,19.853,21.06,20.028z M28.314,24.346
				c-0.09,0.235-0.019,0.507-0.046,0.756c0.089,0.083,0.175,0.169,0.277,0.241c0.284,0.059,0.578,0.021,0.867,0.025
				c0.009-0.109,0.018-0.219,0.026-0.327c0.602-0.049,1.219,0.046,1.811-0.084c-0.042-0.192-0.077-0.386-0.107-0.581
				c-0.565-0.046-1.119,0.126-1.683,0.085c-0.039-0.114-0.079-0.227-0.12-0.339C29.001,24.212,28.649,24.244,28.314,24.346z
				 M29.509,25.541c-0.002,0.11-0.004,0.221-0.005,0.331c0.396,0.152,0.813,0.244,1.221,0.357c0.116,0.038,0.237-0.004,0.354-0.021
				c-0.011-0.185-0.018-0.369-0.037-0.552C30.529,25.712,30.024,25.549,29.509,25.541z M23.776,28.535
				c-0.08,0.26-0.184,0.554-0.075,0.82c0.105,0.034,0.171-0.002,0.2-0.107c0.139-0.315,0.198-0.661,0.206-1.003
				C23.979,28.316,23.815,28.374,23.776,28.535z"/>
		</g>
		<path d="M26.453,19.226"/>
		<path d="M26.809,19.479c0.098-0.076,0.152-0.055,0.164,0.063C26.875,19.617,26.82,19.595,26.809,19.479z"/>
		<path d="M29.865,27.626"/>
		<path fill="#FFFFFF" d="M23.031,33.986c0.29,0.043,0.581,0.087,0.873,0.126c-0.024,0.696-0.135,1.384-0.217,2.075
			c-0.318-0.044-0.646-0.037-0.959-0.111c-0.058-0.061-0.112-0.124-0.162-0.19l0.033-0.091C22.8,35.207,22.878,34.588,23.031,33.986
			z"/>
	</g>
</g>
<g>
</g>
<g>
</g>
<g>
</g>
<g>
</g>
<g>
</g>
<g>
</g>
<g>
</g>
<g>
</g>
<g>
</g>
<g>
</g>
<g>
</g>
<g>
</g>
<g>
</g>
<g>
</g>
<g>
</g>
</svg>
